<?xml version="1.0" encoding="utf-8" standalone="no"?>
<!DOCTYPE svg PUBLIC "-//W3C//DTD SVG 1.1//EN"
  "http://www.w3.org/Graphics/SVG/1.1/DTD/svg11.dtd">
<svg xmlns:xlink="http://www.w3.org/1999/xlink" width="703.81977pt" height="679.566576pt" viewBox="0 0 703.81977 679.566576" xmlns="http://www.w3.org/2000/svg" version="1.1">
 <metadata>
  <rdf:RDF xmlns:dc="http://purl.org/dc/elements/1.1/" xmlns:cc="http://creativecommons.org/ns#" xmlns:rdf="http://www.w3.org/1999/02/22-rdf-syntax-ns#">
   <cc:Work>
    <dc:type rdf:resource="http://purl.org/dc/dcmitype/StillImage"/>
    <dc:date>2026-06-18T01:38:36.830682</dc:date>
    <dc:format>image/svg+xml</dc:format>
    <dc:creator>
     <cc:Agent>
      <dc:title>Matplotlib v3.11.0, https://matplotlib.org/</dc:title>
     </cc:Agent>
    </dc:creator>
   </cc:Work>
  </rdf:RDF>
 </metadata>
 <defs>
  <style type="text/css">*{stroke-linejoin: round; stroke-linecap: butt}</style>
 </defs>
 <g id="figure_1">
  <g id="patch_1">
   <path d="M 0 679.566576 
L 703.81977 679.566576 
L 703.81977 0 
L 0 0 
z
" style="fill: #ffffff"/>
  </g>
  <g id="axes_1">
   <g id="patch_2">
    <path d="M 613.56367 379.679576 
C 613.56367 341.244272 605.992753 303.182702 591.284199 267.67311 
C 576.575644 232.163519 555.015497 199.896478 527.837632 172.718614 
C 500.659768 145.540749 468.392727 123.980602 432.883136 109.272048 
C 397.373544 94.563493 359.311974 86.992576 320.87667 86.992576 
C 282.441365 86.992576 244.379795 94.563493 208.870204 109.272048 
C 173.360613 123.980602 141.093572 145.540749 113.915707 172.718614 
C 86.737843 199.896478 65.177695 232.163519 50.469141 267.67311 
C 35.760587 303.182702 28.18967 341.244272 28.18967 379.679576 
C 28.18967 418.114881 35.760587 456.176451 50.469141 491.686042 
C 65.177695 527.195633 86.737843 559.462674 113.915707 586.640539 
C 141.093572 613.818403 173.360613 635.378551 208.870204 650.087105 
C 244.379795 664.795659 282.441365 672.366576 320.87667 672.366576 
C 359.311974 672.366576 397.373544 664.795659 432.883136 650.087105 
C 468.392727 635.378551 500.659768 613.818403 527.837632 586.640539 
C 555.015497 559.462674 576.575644 527.195633 591.284199 491.686042 
C 605.992753 456.176451 613.56367 418.114881 613.56367 379.679576 
M 320.87667 379.679576 
C 320.87667 379.679576 320.87667 379.679576 320.87667 379.679576 
C 320.87667 379.679576 320.87667 379.679576 320.87667 379.679576 
C 320.87667 379.679576 320.87667 379.679576 320.87667 379.679576 
C 320.87667 379.679576 320.87667 379.679576 320.87667 379.679576 
C 320.87667 379.679576 320.87667 379.679576 320.87667 379.679576 
C 320.87667 379.679576 320.87667 379.679576 320.87667 379.679576 
C 320.87667 379.679576 320.87667 379.679576 320.87667 379.679576 
C 320.87667 379.679576 320.87667 379.679576 320.87667 379.679576 
C 320.87667 379.679576 320.87667 379.679576 320.87667 379.679576 
C 320.87667 379.679576 320.87667 379.679576 320.87667 379.679576 
C 320.87667 379.679576 320.87667 379.679576 320.87667 379.679576 
C 320.87667 379.679576 320.87667 379.679576 320.87667 379.679576 
C 320.87667 379.679576 320.87667 379.679576 320.87667 379.679576 
C 320.87667 379.679576 320.87667 379.679576 320.87667 379.679576 
C 320.87667 379.679576 320.87667 379.679576 320.87667 379.679576 
C 320.87667 379.679576 320.87667 379.679576 320.87667 379.679576 
z
" style="fill: #ffffff"/>
   </g>
   <g id="patch_3">
    <path d="M 320.87667 116.261276 
L 376.549046 361.590525 
L 363.885945 438.876766 
L 295.071104 415.19789 
L 293.040482 370.635051 
z
" clip-path="url(#pe8613d5397)" style="fill: #2874a6; opacity: 0.18; stroke: #2874a6; stroke-linejoin: miter"/>
   </g>
   <g id="patch_4">
    <path d="M 320.87667 204.067376 
L 473.975703 329.934685 
L 406.895221 498.073955 
L 252.061829 474.395079 
L 237.368106 352.545999 
z
" clip-path="url(#pe8613d5397)" style="fill: #1e8449; opacity: 0.18; stroke: #1e8449; stroke-linejoin: miter"/>
   </g>
   <g id="patch_5">
    <path d="M 320.87667 130.895626 
L 571.402361 298.278845 
L 484.311917 604.628895 
L 162.602536 597.525233 
L 75.918217 300.08775 
z
" clip-path="url(#pe8613d5397)" style="fill: #6c3483; opacity: 0.22; stroke: #6c3483; stroke-linejoin: miter"/>
   </g>
   <g id="matplotlib.axis_1">
    <g id="xtick_1">
     <g id="line2d_1">
      <path d="M 320.87667 379.679576 
L 320.87667 86.992576 
" clip-path="url(#pe8613d5397)" style="fill: none; stroke: #b0b0b0; stroke-opacity: 0.25; stroke-width: 0.8; stroke-linecap: square"/>
     </g>
     <g id="text_1">
      <!-- 感知范围 -->
      <g style="fill: #2c3e50" transform="translate(298.87667 76.199012) scale(0.11 -0.11)">
       <defs>
        <path id="MicrosoftYaHei-6df" d="M 3531 1422 
Q 4013 1741 4388 2131 
Q 4022 2909 3944 4147 
L 1213 4147 
L 1213 3322 
Q 1213 1803 463 872 
Q 331 1134 138 1347 
Q 763 2034 763 3328 
L 763 4547 
L 3922 4547 
Q 3903 4928 3900 5284 
L 4363 5284 
Q 4363 4928 4378 4547 
L 6200 4547 
L 6200 4147 
L 4400 4147 
Q 4466 3184 4728 2531 
Q 5150 3088 5394 3772 
L 5819 3559 
Q 5456 2741 4947 2103 
Q 5059 1922 5194 1778 
Q 5344 1622 5475 1622 
Q 5594 1622 5669 1822 
Q 5763 2084 5856 2522 
Q 6019 2434 6319 2322 
Q 6175 1766 6069 1503 
Q 5888 1066 5538 1066 
Q 5250 1066 4925 1366 
Q 4756 1522 4616 1725 
Q 4278 1375 3888 1091 
Q 3738 1259 3531 1422 
z
M 1638 2891 
L 3563 2891 
L 3563 1541 
L 2063 1541 
L 2063 1366 
L 1638 1366 
L 1638 2891 
z
M 1713 997 
L 2188 997 
L 2188 134 
Q 2188 -253 2588 -253 
L 3713 -253 
Q 4194 -253 4263 109 
Q 4313 316 4375 778 
Q 4588 691 4869 591 
Q 4788 166 4706 -103 
Q 4556 -691 3813 -691 
L 2488 -691 
Q 1713 -691 1713 78 
L 1713 997 
z
M 1444 3697 
L 3719 3697 
L 3719 3322 
L 1444 3322 
L 1444 3697 
z
M 844 1028 
L 1288 853 
Q 969 47 594 -534 
Q 438 -441 175 -297 
Q 581 291 844 1028 
z
M 3138 1916 
L 3138 2516 
L 2063 2516 
L 2063 1916 
L 3138 1916 
z
M 5113 634 
L 5463 884 
Q 5863 422 6275 -166 
L 5863 -459 
Q 5563 34 5113 634 
z
M 2706 1072 
L 3044 1328 
Q 3456 891 3781 491 
L 3388 191 
Q 3050 678 2706 1072 
z
M 5656 4866 
L 5350 4559 
Q 5081 4809 4763 5066 
L 5038 5353 
Q 5363 5116 5656 4866 
z
" transform="scale(0.015625)"/>
        <path id="MicrosoftYaHei-93d" d="M 3375 4641 
L 6038 4641 
L 6038 -684 
L 5544 -684 
L 5544 -53 
L 3869 -53 
L 3869 -684 
L 3375 -684 
L 3375 4641 
z
M 138 2528 
L 1419 2528 
Q 1456 3103 1463 3978 
L 931 3978 
Q 744 3447 544 3028 
Q 263 3147 69 3216 
Q 556 4147 844 5341 
L 1331 5228 
Q 1213 4803 1088 4428 
L 2994 4428 
L 2994 3978 
L 1963 3978 
Q 1956 3116 1925 2528 
L 3119 2528 
L 3119 2078 
L 1888 2078 
Q 1869 1916 1850 1772 
Q 2644 872 3206 153 
L 2781 -166 
Q 2181 634 1713 1184 
Q 1356 -16 381 -834 
Q 219 -616 31 -403 
Q 1206 547 1381 2078 
L 138 2078 
L 138 2528 
z
M 5544 4178 
L 3869 4178 
L 3869 397 
L 5544 397 
L 5544 4178 
z
" transform="scale(0.015625)"/>
        <path id="MicrosoftYaHei-a38" d="M 2600 3341 
L 5575 3341 
Q 5525 2416 5481 1828 
Q 5400 941 4550 941 
Q 4188 941 3713 959 
Q 3675 1209 3613 1503 
Q 4163 1428 4538 1428 
Q 4931 1428 4988 1822 
Q 5031 2241 5056 2903 
L 3094 2903 
L 3094 197 
Q 3094 -191 3488 -191 
L 5125 -191 
Q 5625 -209 5694 191 
Q 5781 672 5806 1134 
Q 6069 1028 6313 947 
Q 6263 522 6169 22 
Q 6056 -678 5169 -641 
L 3344 -641 
Q 2600 -628 2600 109 
L 2600 3341 
z
M 150 4653 
L 1863 4653 
L 1863 5328 
L 2363 5328 
L 2363 4653 
L 4050 4653 
L 4050 5328 
L 4550 5328 
L 4550 4653 
L 6269 4653 
L 6269 4209 
L 4550 4209 
L 4550 3659 
L 4050 3659 
L 4050 4209 
L 2363 4209 
L 2363 3659 
L 1863 3659 
L 1863 4209 
L 150 4209 
L 150 4653 
z
M 1525 1559 
Q 1700 1422 1975 1253 
Q 1213 -97 813 -734 
L 344 -422 
Q 988 484 1525 1559 
z
M 1119 3784 
Q 1788 3316 2156 3016 
L 1819 2622 
Q 1275 3109 819 3428 
L 1119 3784 
z
M 431 2747 
Q 1025 2341 1438 1984 
L 1125 1591 
Q 494 2141 131 2378 
L 431 2747 
z
" transform="scale(0.015625)"/>
        <path id="MicrosoftYaHei-5a0" d="M 469 4997 
L 5938 4997 
L 5938 -834 
L 5469 -834 
L 5469 -528 
L 938 -528 
L 938 -841 
L 469 -841 
L 469 4997 
z
M 5469 4553 
L 938 4553 
L 938 -84 
L 5469 -84 
L 5469 4553 
z
M 1200 2016 
L 2794 2016 
L 2794 2541 
L 1481 2541 
L 1481 2953 
L 2794 2953 
L 2794 3472 
L 1325 3472 
L 1325 3884 
L 2794 3884 
L 2794 4409 
L 3250 4409 
L 3250 3884 
L 4963 3884 
L 4963 3472 
L 3250 3472 
L 3250 2953 
L 4756 2953 
L 4756 2541 
L 3250 2541 
L 3250 2016 
L 4925 2016 
Q 4906 1634 4869 1191 
Q 4819 478 4169 478 
Q 3888 478 3569 497 
Q 3538 728 3475 984 
Q 3806 934 4063 928 
Q 4394 909 4419 1234 
Q 4438 1409 4444 1603 
L 3250 1603 
L 3250 72 
L 2794 72 
L 2794 1603 
L 1200 1603 
L 1200 2016 
z
" transform="scale(0.015625)"/>
       </defs>
       <use xlink:href="#MicrosoftYaHei-6df"/>
       <use xlink:href="#MicrosoftYaHei-93d" transform="translate(100 0)"/>
       <use xlink:href="#MicrosoftYaHei-a38" transform="translate(200 0)"/>
       <use xlink:href="#MicrosoftYaHei-5a0" transform="translate(300 0)"/>
      </g>
     </g>
    </g>
    <g id="xtick_2">
     <g id="line2d_2">
      <path d="M 320.87667 379.679576 
L 599.238548 289.234319 
" clip-path="url(#pe8613d5397)" style="fill: none; stroke: #b0b0b0; stroke-opacity: 0.25; stroke-width: 0.8; stroke-linecap: square"/>
     </g>
     <g id="text_2">
      <!-- 输出强度 -->
      <g style="fill: #2c3e50" transform="translate(590.55334 288.147173) scale(0.11 -0.11)">
       <defs>
        <path id="MicrosoftYaHei-aff" d="M 625 2216 
L 1188 2216 
L 1188 3353 
L 1600 3353 
L 1600 2216 
L 2200 2216 
L 2200 1803 
L 1600 1803 
L 1600 947 
Q 1931 991 2275 1047 
Q 2244 809 2231 616 
Q 1913 572 1600 528 
L 1600 -866 
L 1188 -866 
L 1188 466 
Q 681 391 169 309 
L 100 766 
Q 638 822 1188 891 
L 1188 1803 
L 188 1803 
L 188 2234 
Q 425 2903 681 3934 
L 131 3934 
L 131 4334 
L 781 4334 
Q 888 4784 1000 5297 
L 1450 5197 
Q 1331 4741 1225 4334 
L 2356 4334 
L 2356 3934 
L 1119 3934 
Q 844 2922 625 2216 
z
M 2813 -853 
L 2413 -853 
L 2413 2828 
L 4075 2828 
L 4075 -247 
Q 4075 -797 3569 -797 
Q 3375 -797 3081 -791 
Q 3050 -653 2994 -403 
Q 3244 -422 3450 -422 
Q 3675 -422 3675 -172 
L 3675 553 
L 2813 553 
L 2813 -853 
z
M 4619 5253 
L 4513 5116 
Q 5244 4016 6344 3541 
Q 6131 3291 6019 3109 
Q 5594 3347 5231 3647 
L 5231 3334 
L 3063 3334 
L 3063 3609 
Q 2694 3303 2294 3047 
Q 2106 3291 1963 3428 
Q 3206 4153 3969 5253 
L 4619 5253 
z
M 5550 2941 
L 5975 2941 
L 5975 -103 
Q 5975 -797 5388 -803 
Q 5069 -809 4656 -791 
Q 4625 -559 4569 -322 
Q 4963 -372 5244 -372 
Q 5550 -372 5550 -47 
L 5550 2941 
z
M 4206 4791 
Q 3738 4203 3194 3728 
L 5131 3728 
Q 4600 4191 4206 4791 
z
M 4594 2641 
L 4994 2641 
L 4994 366 
L 4594 366 
L 4594 2641 
z
M 2813 903 
L 3675 903 
L 3675 1503 
L 2813 1503 
L 2813 903 
z
M 3675 2447 
L 2813 2447 
L 2813 1853 
L 3675 1853 
L 3675 2447 
z
" transform="scale(0.015625)"/>
        <path id="MicrosoftYaHei-4df" d="M 5100 2172 
L 5100 2403 
L 3456 2403 
L 3456 -47 
L 5288 -47 
L 5288 1734 
L 5813 1734 
L 5813 -747 
L 5288 -747 
L 5288 -522 
L 588 -522 
L 588 1734 
L 1119 1734 
L 1119 -47 
L 2913 -47 
L 2913 2403 
L 756 2403 
L 756 4647 
L 1288 4647 
L 1288 2878 
L 2913 2878 
L 2913 5222 
L 3456 5222 
L 3456 2878 
L 5100 2878 
L 5100 4647 
L 5631 4647 
L 5631 2172 
L 5100 2172 
z
" transform="scale(0.015625)"/>
        <path id="MicrosoftYaHei-6a0" d="M 5250 466 
L 5669 666 
Q 6031 28 6363 -641 
L 5894 -878 
Q 5794 -641 5688 -416 
Q 3750 -547 2219 -653 
L 2150 -134 
Q 3088 -97 3969 -59 
L 3969 866 
L 2894 866 
L 2894 622 
L 2431 622 
L 2431 2616 
L 3969 2616 
L 3969 3297 
L 3144 3297 
L 3144 3047 
L 2681 3047 
L 2681 4972 
L 5731 4972 
L 5731 3047 
L 5269 3047 
L 5269 3297 
L 4444 3297 
L 4444 2616 
L 5988 2616 
L 5988 866 
L 4444 866 
L 4444 -41 
Q 4975 -22 5488 3 
Q 5369 241 5250 466 
z
M 425 3466 
L 1650 3466 
L 1650 4516 
L 238 4516 
L 238 4941 
L 2113 4941 
L 2113 2772 
L 1650 2772 
L 1650 3041 
L 831 3041 
L 719 2072 
L 2056 2072 
Q 1994 741 1944 128 
Q 1888 -722 1100 -722 
Q 819 -722 425 -716 
Q 388 -484 325 -216 
Q 731 -247 1019 -247 
Q 1444 -247 1475 191 
Q 1525 828 1563 1647 
L 225 1647 
L 425 3466 
z
M 5269 4547 
L 3144 4547 
L 3144 3722 
L 5269 3722 
L 5269 4547 
z
M 5525 1291 
L 5525 2191 
L 4444 2191 
L 4444 1291 
L 5525 1291 
z
M 2894 1291 
L 3969 1291 
L 3969 2191 
L 2894 2191 
L 2894 1291 
z
" transform="scale(0.015625)"/>
        <path id="MicrosoftYaHei-686" d="M 1550 1216 
L 1550 1628 
L 5469 1628 
L 5469 1222 
Q 4903 613 4147 163 
Q 5050 -200 6263 -309 
L 6019 -797 
Q 4625 -603 3644 -109 
Q 2600 -619 1250 -866 
Q 1150 -666 994 -416 
Q 2231 -222 3166 166 
Q 2497 600 2066 1216 
L 1550 1216 
z
M 1363 3541 
L 2294 3541 
L 2294 4066 
L 2769 4066 
L 2769 3541 
L 4538 3541 
L 4538 4072 
L 5013 4072 
L 5013 3541 
L 6150 3541 
L 6150 3128 
L 5013 3128 
L 5013 1928 
L 4538 1928 
L 4538 2147 
L 2769 2147 
L 2769 1922 
L 2294 1922 
L 2294 3128 
L 1363 3128 
L 1363 3541 
z
M 3025 5172 
L 3481 5391 
Q 3694 5056 3909 4634 
L 6213 4634 
L 6213 4197 
L 1225 4197 
L 1225 2316 
Q 1225 178 394 -872 
Q 238 -666 38 -447 
Q 725 397 738 2347 
L 738 4634 
L 3331 4634 
Q 3188 4909 3025 5172 
z
M 2769 2547 
L 4538 2547 
L 4538 3128 
L 2769 3128 
L 2769 2547 
z
M 4819 1216 
L 2588 1216 
Q 3031 728 3656 391 
Q 4334 741 4819 1216 
z
" transform="scale(0.015625)"/>
       </defs>
       <use xlink:href="#MicrosoftYaHei-aff"/>
       <use xlink:href="#MicrosoftYaHei-4df" transform="translate(100 0)"/>
       <use xlink:href="#MicrosoftYaHei-6a0" transform="translate(200 0)"/>
       <use xlink:href="#MicrosoftYaHei-686" transform="translate(300 0)"/>
      </g>
     </g>
    </g>
    <g id="xtick_3">
     <g id="line2d_3">
      <path d="M 320.87667 379.679576 
L 492.913772 616.468333 
" clip-path="url(#pe8613d5397)" style="fill: none; stroke: #b0b0b0; stroke-opacity: 0.25; stroke-width: 0.8; stroke-linecap: square"/>
     </g>
     <g id="text_3">
      <!-- 编码复杂度 -->
      <g style="fill: #2c3e50" transform="translate(473.642765 631.033663) scale(0.11 -0.11)">
       <defs>
        <path id="MicrosoftYaHei-9da" d="M 3144 -797 
L 2744 -797 
L 2744 2534 
L 6050 2534 
L 6050 -228 
Q 6050 -772 5563 -772 
Q 5219 -784 5019 -784 
Q 4994 -609 4953 -459 
L 4663 -459 
L 4663 803 
L 4094 803 
L 4094 -484 
L 3713 -484 
L 3713 803 
L 3144 803 
L 3144 -797 
z
M 75 353 
Q 838 456 1875 616 
Q 2125 1444 2125 2659 
L 2125 4684 
L 3884 4684 
Q 3738 4947 3606 5147 
L 4081 5366 
Q 4259 5081 4481 4684 
L 5956 4684 
L 5956 2972 
L 5531 2972 
L 5531 3172 
L 2550 3172 
L 2550 2653 
Q 2550 241 1631 -834 
Q 1500 -641 1325 -447 
Q 1556 -175 1719 197 
Q 759 3 188 -122 
L 75 353 
z
M 813 1634 
Q 1106 1647 1894 1722 
Q 1863 1459 1844 1316 
Q 619 1209 288 1159 
L 200 1553 
Q 519 1872 1031 2831 
Q 553 2794 200 2759 
L 81 3153 
Q 681 4109 1138 5303 
L 1625 5128 
Q 1100 4009 613 3191 
Q 816 3191 1222 3200 
Q 1388 3522 1569 3903 
L 2019 3703 
Q 1219 2259 813 1634 
z
M 5531 4284 
L 2550 4284 
L 2550 3572 
L 5531 3572 
L 5531 4284 
z
M 5388 -378 
Q 5631 -378 5631 -109 
L 5631 803 
L 5044 803 
L 5044 -369 
Q 5203 -378 5388 -378 
z
M 5631 2134 
L 5044 2134 
L 5044 1184 
L 5631 1184 
L 5631 2134 
z
M 4094 1184 
L 4663 1184 
L 4663 2134 
L 4094 2134 
L 4094 1184 
z
M 3144 1184 
L 3713 1184 
L 3713 2134 
L 3144 2134 
L 3144 1184 
z
" transform="scale(0.015625)"/>
        <path id="MicrosoftYaHei-941" d="M 75 1853 
Q 838 2909 1178 4266 
L 256 4266 
L 256 4728 
L 2594 4728 
L 2594 4266 
L 1659 4266 
Q 1463 3481 1159 2803 
L 2369 2803 
L 2369 -584 
L 1925 -584 
L 1925 -153 
L 1144 -153 
L 1144 -666 
L 700 -666 
L 700 1938 
Q 534 1672 350 1428 
Q 256 1603 75 1853 
z
M 3625 4266 
L 3463 2434 
L 4934 2434 
L 5144 4491 
L 2838 4491 
L 2838 4941 
L 5669 4941 
L 5406 2434 
L 6069 2434 
Q 6019 1166 5969 234 
Q 5913 -697 5081 -697 
Q 4663 -697 4144 -678 
Q 4106 -447 4056 -159 
Q 4563 -216 4969 -216 
Q 5450 -216 5488 316 
Q 5538 1009 5563 1984 
L 2956 1984 
L 3150 4266 
L 3625 4266 
z
M 1925 2378 
L 1144 2378 
L 1144 259 
L 1925 259 
L 1925 2378 
z
M 2619 1141 
L 5256 1141 
L 5256 691 
L 2619 691 
L 2619 1141 
z
" transform="scale(0.015625)"/>
        <path id="MicrosoftYaHei-5d6" d="M 81 3559 
Q 975 4259 1563 5347 
L 2113 5347 
Q 1963 5084 1803 4841 
L 6200 4841 
L 6200 4441 
L 1525 4441 
Q 1356 4209 1175 3997 
L 5575 3997 
L 5575 1697 
L 5138 1697 
L 5138 1859 
L 1463 1859 
L 1463 1634 
L 1031 1634 
L 1031 3828 
Q 716 3475 369 3166 
Q 263 3347 81 3559 
z
M 81 291 
Q 1231 853 1931 1709 
L 2488 1709 
Q 2350 1534 2206 1372 
L 5588 1372 
L 5588 1034 
Q 4981 494 4038 69 
Q 5016 -188 6319 -284 
Q 6150 -566 6025 -797 
Q 4503 -584 3416 -175 
Q 2303 -563 725 -872 
Q 606 -666 438 -447 
Q 1988 -191 2856 59 
Q 2153 397 1678 838 
Q 1084 303 388 -53 
Q 250 128 81 291 
z
M 1463 2247 
L 5138 2247 
L 5138 2747 
L 1463 2747 
L 1463 2247 
z
M 5138 3609 
L 1463 3609 
L 1463 3116 
L 5138 3116 
L 5138 3609 
z
M 4869 1009 
L 2025 1009 
Q 2572 553 3428 253 
Q 4297 591 4869 1009 
z
" transform="scale(0.015625)"/>
        <path id="MicrosoftYaHei-7d2" d="M 4731 4653 
L 4731 3216 
Q 4731 2816 5069 2816 
L 5288 2816 
Q 5663 2816 5725 3122 
Q 5794 3428 5831 3903 
Q 6144 3766 6313 3709 
Q 6256 3284 6188 2966 
Q 6056 2366 5319 2366 
L 5000 2366 
Q 4231 2366 4231 3172 
L 4231 4203 
L 2497 4203 
Q 2297 2856 456 2197 
Q 306 2459 156 2647 
Q 1766 3153 1984 4203 
L 450 4203 
L 450 4653 
L 2031 4653 
Q 2050 4956 2050 5341 
L 2550 5341 
Q 2550 4956 2534 4653 
L 4731 4653 
z
M 156 1966 
L 2925 1966 
L 2925 2753 
L 3438 2753 
L 3438 1966 
L 6038 1966 
L 6038 1516 
L 3438 1516 
L 3438 -28 
Q 3438 -728 2731 -728 
L 1913 -728 
Q 1906 -697 1819 -222 
Q 2219 -259 2581 -259 
Q 2925 -259 2925 122 
L 2925 1516 
L 156 1516 
L 156 1966 
z
M 4106 747 
L 4419 1134 
Q 5450 484 6163 -41 
L 5819 -497 
Q 4969 191 4106 747 
z
M 1700 1209 
L 2088 866 
Q 1288 109 400 -559 
Q 250 -347 69 -153 
Q 938 447 1700 1209 
z
" transform="scale(0.015625)"/>
       </defs>
       <use xlink:href="#MicrosoftYaHei-9da"/>
       <use xlink:href="#MicrosoftYaHei-941" transform="translate(100 0)"/>
       <use xlink:href="#MicrosoftYaHei-5d6" transform="translate(200 0)"/>
       <use xlink:href="#MicrosoftYaHei-7d2" transform="translate(300 0)"/>
       <use xlink:href="#MicrosoftYaHei-686" transform="translate(400 0)"/>
      </g>
     </g>
    </g>
    <g id="xtick_4">
     <g id="line2d_4">
      <path d="M 320.87667 379.679576 
L 148.839568 616.468333 
" clip-path="url(#pe8613d5397)" style="fill: none; stroke: #b0b0b0; stroke-opacity: 0.25; stroke-width: 0.8; stroke-linecap: square"/>
     </g>
     <g id="text_4">
      <!-- 训练需求 -->
      <g style="fill: #2c3e50" transform="translate(118.610574 631.012179) scale(0.11 -0.11)">
       <defs>
        <path id="MicrosoftYaHei-a90" d="M 2581 5178 
L 3056 5178 
L 3056 2722 
Q 3056 1272 2831 466 
Q 2613 -297 1981 -872 
Q 1769 -678 1550 -534 
Q 2156 -66 2375 647 
Q 2581 1353 2581 2678 
L 2581 5178 
z
M 5506 5184 
L 5981 5184 
L 5981 -772 
L 5506 -772 
L 5506 5184 
z
M 4038 4953 
L 4513 4953 
L 4513 -403 
L 4038 -403 
L 4038 4953 
z
M 2025 1372 
Q 2025 1059 2069 784 
Q 1438 247 913 -284 
L 625 116 
Q 838 316 838 691 
L 838 2803 
L 81 2803 
L 81 3253 
L 1313 3253 
L 1313 709 
Q 1650 1009 2025 1372 
z
M 875 5191 
Q 1438 4628 1850 4166 
L 1413 3797 
Q 1031 4303 500 4872 
L 875 5191 
z
" transform="scale(0.015625)"/>
        <path id="MicrosoftYaHei-9c0" d="M 2363 3403 
L 3059 3403 
Q 3203 3781 3344 4197 
L 2213 4197 
L 2213 4622 
L 3488 4622 
Q 3603 4975 3719 5353 
L 4219 5253 
Q 4109 4931 4000 4622 
L 6000 4622 
L 6000 4197 
L 3847 4197 
Q 3700 3791 3553 3403 
L 4763 3403 
L 4763 2016 
L 6025 2016 
L 6025 1591 
L 4763 1591 
L 4763 3 
Q 4763 -734 4056 -734 
Q 3788 -734 3369 -728 
Q 3331 -516 3263 -241 
Q 3638 -284 3931 -284 
Q 4300 -284 4300 109 
L 4300 1591 
L 2475 1591 
L 2475 1997 
Q 2688 2450 2897 2978 
L 2363 2978 
L 2363 3403 
z
M 888 1566 
Q 1531 1659 2219 1778 
Q 2181 1547 2163 1297 
Q 1600 1216 319 1003 
L 219 1472 
Q 669 1969 1175 2794 
Q 666 2763 219 2722 
L 100 3147 
Q 700 3966 1294 5366 
L 1750 5178 
Q 1088 3878 644 3184 
Q 1078 3194 1419 3203 
Q 1669 3638 1931 4147 
L 2388 3916 
Q 1656 2659 888 1566 
z
M 3013 2016 
L 4300 2016 
L 4300 2978 
L 3394 2978 
Q 3203 2484 3013 2016 
z
M 94 122 
Q 1031 291 2219 559 
Q 2200 316 2206 78 
Q 1231 -103 219 -353 
L 94 122 
z
M 3194 1272 
L 3638 1066 
Q 3194 203 2700 -547 
Q 2500 -397 2275 -278 
Q 2813 459 3194 1272 
z
M 5094 1041 
L 5500 1278 
Q 5963 578 6381 -122 
L 5950 -391 
Q 5544 366 5094 1041 
z
" transform="scale(0.015625)"/>
        <path id="MicrosoftYaHei-bac" d="M 1188 -822 
L 713 -822 
L 713 1228 
L 2750 1228 
L 2853 1716 
L 125 1716 
L 125 2103 
L 6275 2103 
L 6275 1716 
L 3338 1716 
L 3213 1228 
L 5719 1228 
L 5719 -172 
Q 5719 -791 5100 -791 
Q 4800 -791 4444 -778 
Q 4425 -572 4356 -297 
Q 4725 -334 4963 -334 
Q 5244 -334 5244 -84 
L 5244 841 
L 4169 841 
L 4169 -647 
L 3725 -647 
L 3725 841 
L 2688 841 
L 2688 -647 
L 2244 -647 
L 2244 841 
L 1188 841 
L 1188 -822 
z
M 338 4266 
L 2975 4266 
L 2975 4628 
L 650 4628 
L 650 5016 
L 5700 5016 
L 5700 4628 
L 3419 4628 
L 3419 4266 
L 6063 4266 
L 6063 3103 
L 5581 3103 
L 5581 3878 
L 3419 3878 
L 3419 2391 
L 2975 2391 
L 2975 3878 
L 819 3878 
L 819 3103 
L 338 3103 
L 338 4266 
z
M 3750 2816 
L 5219 2816 
L 5219 2478 
L 3750 2478 
L 3750 2816 
z
M 1175 3516 
L 2644 3516 
L 2644 3178 
L 1175 3178 
L 1175 3516 
z
M 1175 2816 
L 2644 2816 
L 2644 2478 
L 1175 2478 
L 1175 2816 
z
M 3750 3516 
L 5219 3516 
L 5219 3178 
L 3750 3178 
L 3750 3516 
z
" transform="scale(0.015625)"/>
        <path id="MicrosoftYaHei-84c" d="M 225 4178 
L 2969 4178 
L 2969 5309 
L 3494 5309 
L 3494 4178 
L 6225 4178 
L 6225 3728 
L 3494 3728 
L 3494 3341 
Q 3800 2641 4219 2066 
Q 4869 2628 5444 3316 
L 5888 2947 
Q 5119 2184 4525 1684 
Q 5275 809 6319 284 
Q 6088 16 5944 -203 
Q 4331 741 3494 2322 
L 3494 28 
Q 3494 -778 2650 -778 
Q 2200 -778 1819 -766 
Q 1781 -509 1719 -209 
Q 2213 -266 2525 -266 
Q 2969 -266 2969 191 
L 2969 1372 
Q 1494 616 400 -3 
L 131 509 
Q 1438 1116 2969 1953 
L 2969 3728 
L 225 3728 
L 225 4178 
z
M 1144 3353 
Q 1644 2859 2163 2247 
Q 1969 2084 1731 1897 
Q 1294 2466 769 3047 
L 1144 3353 
z
M 4069 4978 
L 4369 5309 
Q 4963 4934 5313 4628 
L 4975 4253 
Q 4606 4578 4069 4978 
z
" transform="scale(0.015625)"/>
       </defs>
       <use xlink:href="#MicrosoftYaHei-a90"/>
       <use xlink:href="#MicrosoftYaHei-9c0" transform="translate(100 0)"/>
       <use xlink:href="#MicrosoftYaHei-bac" transform="translate(200 0)"/>
       <use xlink:href="#MicrosoftYaHei-84c" transform="translate(300 0)"/>
      </g>
     </g>
    </g>
    <g id="xtick_5">
     <g id="line2d_5">
      <path d="M 320.87667 379.679576 
L 42.514791 289.234319 
" clip-path="url(#pe8613d5397)" style="fill: none; stroke: #b0b0b0; stroke-opacity: 0.25; stroke-width: 0.8; stroke-linecap: square"/>
     </g>
     <g id="text_5">
      <!-- 损伤风险 -->
      <g style="fill: #2c3e50" transform="translate(7.2 288.076704) scale(0.11 -0.11)">
       <defs>
        <path id="MicrosoftYaHei-743" d="M 2688 5041 
L 5756 5041 
L 5756 3134 
L 5300 3134 
L 5300 3316 
L 3144 3316 
L 3144 3147 
L 2688 3147 
L 2688 5041 
z
M 88 1947 
Q 544 2053 969 2159 
L 969 3622 
L 144 3622 
L 144 4072 
L 969 4072 
L 969 5278 
L 1431 5278 
L 1431 4072 
L 2250 4072 
L 2250 3622 
L 1431 3622 
L 1431 2284 
Q 1825 2391 2188 2497 
Q 2200 2222 2231 2028 
Q 1881 1934 1431 1803 
L 1431 -72 
Q 1431 -766 881 -778 
Q 588 -784 219 -772 
Q 194 -516 138 -278 
Q 525 -322 706 -322 
Q 969 -322 969 9 
L 969 1666 
Q 588 1553 150 1422 
L 88 1947 
z
M 2431 2734 
L 5994 2734 
L 5994 472 
L 5538 472 
L 5538 2316 
L 2888 2316 
L 2888 459 
L 2431 459 
L 2431 2734 
z
M 4456 2034 
Q 4456 1253 4331 791 
Q 5356 203 6288 -422 
L 5938 -841 
Q 5169 -241 4150 359 
Q 3619 -547 2081 -872 
Q 1988 -691 1794 -397 
Q 3569 -134 3875 953 
Q 3975 1297 3975 2034 
L 4456 2034 
z
M 5300 4622 
L 3144 4622 
L 3144 3734 
L 5300 3734 
L 5300 4622 
z
" transform="scale(0.015625)"/>
        <path id="MicrosoftYaHei-46f" d="M 2125 2747 
L 3441 2747 
Q 3453 3234 3450 3734 
L 3956 3734 
Q 3956 3238 3941 2747 
L 6000 2747 
Q 5969 1534 5925 541 
Q 5894 -159 5650 -428 
Q 5419 -691 4813 -684 
Q 4388 -684 3869 -659 
Q 3838 -416 3775 -116 
Q 4344 -178 4756 -184 
Q 5119 -197 5263 -41 
Q 5394 116 5425 591 
Q 5469 1484 5481 2291 
L 3925 2291 
Q 3866 1291 3550 672 
Q 3100 -166 2106 -809 
Q 1956 -609 1744 -397 
Q 2675 222 3088 922 
Q 3381 1453 3428 2291 
L 2125 2291 
L 2125 2747 
z
M 69 2191 
Q 931 3472 1456 5278 
L 1969 5128 
Q 1728 4409 1469 3791 
L 1469 -816 
L 975 -816 
L 975 2744 
Q 650 2131 294 1647 
Q 200 1916 69 2191 
z
M 1800 3159 
Q 2656 4116 3113 5309 
L 3588 5128 
Q 3441 4781 3275 4459 
L 6275 4459 
L 6275 4003 
L 3022 4003 
Q 2638 3347 2169 2816 
Q 1988 3009 1800 3159 
z
" transform="scale(0.015625)"/>
        <path id="MicrosoftYaHei-bce" d="M 1206 4466 
L 1206 2709 
Q 1206 1297 1056 572 
Q 900 -178 450 -853 
Q 200 -559 75 -422 
Q 425 141 569 816 
Q 700 1447 700 2684 
L 700 4928 
L 5325 4928 
L 5325 1516 
Q 5325 391 5469 -53 
Q 5531 -197 5625 -197 
Q 5725 -197 5756 22 
Q 5806 353 5844 1078 
Q 6131 966 6319 909 
Q 6256 253 6188 -147 
Q 6075 -766 5606 -766 
Q 5256 -766 5025 -297 
Q 4819 134 4819 1503 
L 4819 4466 
L 1206 4466 
z
M 1594 3734 
L 1981 4022 
Q 2497 3313 3038 2534 
Q 3513 3309 3938 4147 
L 4363 3941 
Q 3897 2991 3344 2097 
Q 3956 1206 4600 234 
L 4163 -66 
Q 3584 834 3050 1634 
Q 2438 703 1731 -166 
Q 1575 -28 1325 141 
Q 2084 1053 2750 2078 
Q 2141 2975 1594 3734 
z
" transform="scale(0.015625)"/>
        <path id="MicrosoftYaHei-b95" d="M 2094 1572 
Q 2288 372 1544 228 
Q 1338 184 969 222 
Q 919 447 850 672 
L 850 -822 
L 400 -822 
L 400 4972 
L 2156 4972 
L 2156 4534 
Q 1806 3403 1600 2797 
Q 2000 2216 2094 1572 
z
M 2013 -128 
L 4556 -128 
Q 5069 1228 5369 2216 
L 5888 2034 
Q 5656 1372 5088 -128 
L 6144 -128 
L 6144 -591 
L 2013 -591 
L 2013 -128 
z
M 4463 5278 
L 4381 5091 
Q 5113 3859 6319 3203 
Q 6113 2953 5975 2766 
Q 4831 3547 4138 4647 
Q 3438 3572 2250 2709 
Q 2131 2872 1925 3103 
Q 3288 4009 3956 5278 
L 4463 5278 
z
M 1363 678 
Q 1794 722 1638 1591 
Q 1550 2078 1113 2728 
Q 1388 3566 1663 4541 
L 850 4541 
L 850 722 
Q 1125 653 1363 678 
z
M 2663 3003 
L 5538 3003 
L 5538 2553 
L 2663 2553 
L 2663 3003 
z
M 2381 1934 
L 2806 2097 
Q 3131 1253 3400 347 
L 2913 191 
Q 2681 1122 2381 1934 
z
M 3619 2166 
L 4063 2303 
Q 4356 1409 4531 666 
L 4031 534 
Q 3875 1391 3619 2166 
z
" transform="scale(0.015625)"/>
       </defs>
       <use xlink:href="#MicrosoftYaHei-743"/>
       <use xlink:href="#MicrosoftYaHei-46f" transform="translate(100 0)"/>
       <use xlink:href="#MicrosoftYaHei-bce" transform="translate(200 0)"/>
       <use xlink:href="#MicrosoftYaHei-b95" transform="translate(300 0)"/>
      </g>
     </g>
    </g>
   </g>
   <g id="matplotlib.axis_2">
    <g id="ytick_1">
     <g id="line2d_6">
      <path d="M 320.87667 306.507826 
C 330.485496 306.507826 340.000888 308.400555 348.878286 312.077694 
C 357.755684 315.754833 365.822444 321.144869 372.61691 327.939336 
C 379.411377 334.733802 384.801413 342.800562 388.478552 351.67796 
C 392.155691 360.555358 394.04842 370.07075 394.04842 379.679576 
C 394.04842 389.288402 392.155691 398.803795 388.478552 407.681193 
C 384.801413 416.558591 379.411377 424.625351 372.61691 431.419817 
C 365.822444 438.214283 357.755684 443.60432 348.878286 447.281458 
C 340.000888 450.958597 330.485496 452.851326 320.87667 452.851326 
C 311.267844 452.851326 301.752451 450.958597 292.875053 447.281458 
C 283.997656 443.60432 275.930895 438.214283 269.136429 431.419817 
C 262.341963 424.625351 256.951926 416.558591 253.274788 407.681193 
C 249.597649 398.803795 247.70492 389.288402 247.70492 379.679576 
C 247.70492 370.07075 249.597649 360.555358 253.274788 351.67796 
C 256.951926 342.800562 262.341963 334.733802 269.136429 327.939336 
C 275.930895 321.144869 283.997656 315.754833 292.875053 312.077694 
C 301.752451 308.400555 311.267844 306.507826 320.87667 306.507826 
" clip-path="url(#pe8613d5397)" style="fill: none; stroke: #b0b0b0; stroke-opacity: 0.25; stroke-width: 0.8; stroke-linecap: square"/>
     </g>
     <g id="text_6">
      <!-- 0.25 -->
      <g style="fill: #888888" transform="translate(348.878286 310.05035) scale(0.08 -0.08)">
       <defs>
        <path id="MicrosoftYaHei-16" d="M 284 2325 
Q 284 3606 709 4264 
Q 1134 4922 1941 4922 
Q 3478 4922 3478 2441 
Q 3478 1216 3045 567 
Q 2613 -81 1831 -81 
Q 1094 -81 689 534 
Q 284 1150 284 2325 
z
M 909 2353 
Q 909 425 1888 425 
Q 2850 425 2850 2384 
Q 2850 4413 1906 4413 
Q 909 4413 909 2353 
z
" transform="scale(0.015625)"/>
        <path id="MicrosoftYaHei-14" d="M 372 322 
Q 372 491 487 606 
Q 603 722 775 722 
Q 950 722 1065 605 
Q 1181 488 1181 322 
Q 1181 159 1065 42 
Q 950 -75 772 -75 
Q 600 -75 486 42 
Q 372 159 372 322 
z
" transform="scale(0.015625)"/>
        <path id="MicrosoftYaHei-18" d="M 2666 3572 
Q 2666 3963 2419 4186 
Q 2172 4409 1747 4409 
Q 1447 4409 1140 4256 
Q 834 4103 569 3819 
L 569 4413 
Q 806 4659 1107 4790 
Q 1409 4922 1816 4922 
Q 2472 4922 2872 4570 
Q 3272 4219 3272 3619 
Q 3272 3084 3026 2693 
Q 2781 2303 2188 1894 
Q 1581 1475 1376 1294 
Q 1172 1113 1090 947 
Q 1009 781 1009 544 
L 3416 544 
L 3416 0 
L 372 0 
L 372 241 
Q 372 659 486 951 
Q 600 1244 862 1520 
Q 1125 1797 1681 2184 
Q 2250 2584 2458 2886 
Q 2666 3188 2666 3572 
z
" transform="scale(0.015625)"/>
        <path id="MicrosoftYaHei-1b" d="M 3294 1494 
Q 3294 784 2823 350 
Q 2353 -84 1559 -84 
Q 878 -84 544 119 
L 544 744 
Q 1034 425 1544 425 
Q 2050 425 2361 704 
Q 2672 984 2672 1447 
Q 2672 1909 2348 2167 
Q 2025 2425 1434 2425 
Q 978 2425 613 2384 
L 791 4841 
L 3053 4841 
L 3053 4303 
L 1306 4303 
L 1206 2931 
L 1647 2950 
Q 2416 2950 2855 2567 
Q 3294 2184 3294 1494 
z
" transform="scale(0.015625)"/>
       </defs>
       <use xlink:href="#MicrosoftYaHei-16"/>
       <use xlink:href="#MicrosoftYaHei-14" transform="translate(58.640625 0)"/>
       <use xlink:href="#MicrosoftYaHei-18" transform="translate(82.71875 0)"/>
       <use xlink:href="#MicrosoftYaHei-1b" transform="translate(141.359375 0)"/>
      </g>
     </g>
    </g>
    <g id="ytick_2">
     <g id="line2d_7">
      <path d="M 320.87667 233.336076 
C 340.094322 233.336076 359.125107 237.121535 376.879903 244.475812 
C 394.634698 251.830089 410.768219 262.610163 424.357151 276.199095 
C 437.946083 289.788027 448.726157 305.921548 456.080434 323.676343 
C 463.434711 341.431139 467.22017 360.461924 467.22017 379.679576 
C 467.22017 398.897229 463.434711 417.928013 456.080434 435.682809 
C 448.726157 453.437605 437.946083 469.571125 424.357151 483.160057 
C 410.768219 496.74899 394.634698 507.529063 376.879903 514.883341 
C 359.125107 522.237618 340.094322 526.023076 320.87667 526.023076 
C 301.659017 526.023076 282.628233 522.237618 264.873437 514.883341 
C 247.118641 507.529063 230.985121 496.74899 217.396189 483.160057 
C 203.807256 469.571125 193.027183 453.437605 185.672905 435.682809 
C 178.318628 417.928013 174.53317 398.897229 174.53317 379.679576 
C 174.53317 360.461924 178.318628 341.431139 185.672905 323.676343 
C 193.027183 305.921548 203.807256 289.788027 217.396189 276.199095 
C 230.985121 262.610163 247.118641 251.830089 264.873437 244.475812 
C 282.628233 237.121535 301.659017 233.336076 320.87667 233.336076 
" clip-path="url(#pe8613d5397)" style="fill: none; stroke: #b0b0b0; stroke-opacity: 0.25; stroke-width: 0.8; stroke-linecap: square"/>
     </g>
     <g id="text_7">
      <!-- 0.50 -->
      <g style="fill: #888888" transform="translate(376.879903 242.448468) scale(0.08 -0.08)">
       <use xlink:href="#MicrosoftYaHei-16"/>
       <use xlink:href="#MicrosoftYaHei-14" transform="translate(58.640625 0)"/>
       <use xlink:href="#MicrosoftYaHei-1b" transform="translate(82.71875 0)"/>
       <use xlink:href="#MicrosoftYaHei-16" transform="translate(141.359375 0)"/>
      </g>
     </g>
    </g>
    <g id="ytick_3">
     <g id="line2d_8">
      <path d="M 320.87667 160.164326 
C 349.703148 160.164326 378.249326 165.842514 404.881519 176.87393 
C 431.513713 187.905345 455.713993 204.075456 476.097392 224.458854 
C 496.48079 244.842253 512.650901 269.042533 523.682316 295.674727 
C 534.713732 322.30692 540.39192 350.853098 540.39192 379.679576 
C 540.39192 408.506055 534.713732 437.052232 523.682316 463.684426 
C 512.650901 490.316619 496.48079 514.5169 476.097392 534.900298 
C 455.713993 555.283697 431.513713 571.453807 404.881519 582.485223 
C 378.249326 593.516639 349.703148 599.194826 320.87667 599.194826 
C 292.050191 599.194826 263.504014 593.516639 236.87182 582.485223 
C 210.239627 571.453807 186.039346 555.283697 165.655948 534.900298 
C 145.27255 514.5169 129.102439 490.316619 118.071023 463.684426 
C 107.039608 437.052232 101.36142 408.506055 101.36142 379.679576 
C 101.36142 350.853098 107.039608 322.30692 118.071023 295.674727 
C 129.102439 269.042533 145.27255 244.842253 165.655948 224.458854 
C 186.039346 204.075456 210.239627 187.905345 236.87182 176.87393 
C 263.504014 165.842514 292.050191 160.164326 320.87667 160.164326 
" clip-path="url(#pe8613d5397)" style="fill: none; stroke: #b0b0b0; stroke-opacity: 0.25; stroke-width: 0.8; stroke-linecap: square"/>
     </g>
     <g id="text_8">
      <!-- 0.75 -->
      <g style="fill: #888888" transform="translate(404.881519 174.846586) scale(0.08 -0.08)">
       <defs>
        <path id="MicrosoftYaHei-1d" d="M 3422 4463 
Q 2659 3131 2223 1998 
Q 1788 866 1684 0 
L 1047 0 
Q 1163 853 1594 1947 
Q 2025 3041 2747 4300 
L 347 4300 
L 347 4841 
L 3422 4841 
L 3422 4463 
z
" transform="scale(0.015625)"/>
       </defs>
       <use xlink:href="#MicrosoftYaHei-16"/>
       <use xlink:href="#MicrosoftYaHei-14" transform="translate(58.640625 0)"/>
       <use xlink:href="#MicrosoftYaHei-1d" transform="translate(82.71875 0)"/>
       <use xlink:href="#MicrosoftYaHei-1b" transform="translate(141.359375 0)"/>
      </g>
     </g>
    </g>
    <g id="ytick_4">
     <g id="line2d_9">
      <path d="M 320.87667 86.992576 
C 359.311974 86.992576 397.373544 94.563493 432.883136 109.272048 
C 468.392727 123.980602 500.659768 145.540749 527.837632 172.718614 
C 555.015497 199.896478 576.575644 232.163519 591.284199 267.67311 
C 605.992753 303.182702 613.56367 341.244272 613.56367 379.679576 
C 613.56367 418.114881 605.992753 456.176451 591.284199 491.686042 
C 576.575644 527.195633 555.015497 559.462674 527.837632 586.640539 
C 500.659768 613.818403 468.392727 635.378551 432.883136 650.087105 
C 397.373544 664.795659 359.311974 672.366576 320.87667 672.366576 
C 282.441365 672.366576 244.379795 664.795659 208.870204 650.087105 
C 173.360613 635.378551 141.093572 613.818403 113.915707 586.640539 
C 86.737843 559.462674 65.177695 527.195633 50.469141 491.686042 
C 35.760587 456.176451 28.18967 418.114881 28.18967 379.679576 
C 28.18967 341.244272 35.760587 303.182702 50.469141 267.67311 
C 65.177695 232.163519 86.737843 199.896478 113.915707 172.718614 
C 141.093572 145.540749 173.360613 123.980602 208.870204 109.272048 
C 244.379795 94.563493 282.441365 86.992576 320.87667 86.992576 
" clip-path="url(#pe8613d5397)" style="fill: none; stroke: #b0b0b0; stroke-opacity: 0.25; stroke-width: 0.8; stroke-linecap: square"/>
     </g>
     <g id="text_9">
      <!-- 1.00 -->
      <g style="fill: #888888" transform="translate(432.883136 107.244704) scale(0.08 -0.08)">
       <defs>
        <path id="MicrosoftYaHei-17" d="M 1781 0 
L 1781 4141 
Q 1638 3997 1295 3819 
Q 953 3641 663 3569 
L 663 4169 
Q 1047 4275 1484 4508 
Q 1922 4741 2156 4947 
L 2388 4947 
L 2388 0 
L 1781 0 
z
" transform="scale(0.015625)"/>
       </defs>
       <use xlink:href="#MicrosoftYaHei-17"/>
       <use xlink:href="#MicrosoftYaHei-14" transform="translate(58.640625 0)"/>
       <use xlink:href="#MicrosoftYaHei-16" transform="translate(82.71875 0)"/>
       <use xlink:href="#MicrosoftYaHei-16" transform="translate(141.359375 0)"/>
      </g>
     </g>
    </g>
   </g>
   <g id="patch_6">
    <path d="M 320.87667 86.992576 
C 282.441365 86.992576 244.379795 94.563493 208.870204 109.272048 
C 173.360613 123.980602 141.093572 145.540749 113.915707 172.718614 
C 86.737843 199.896478 65.177695 232.163519 50.469141 267.67311 
C 35.760587 303.182702 28.18967 341.244272 28.18967 379.679576 
C 28.18967 418.114881 35.760587 456.176451 50.469141 491.686042 
C 65.177695 527.195633 86.737843 559.462674 113.915707 586.640539 
C 141.093572 613.818403 173.360613 635.378551 208.870204 650.087105 
C 244.379795 664.795659 282.441365 672.366576 320.87667 672.366576 
C 359.311974 672.366576 397.373544 664.795659 432.883136 650.087105 
C 468.392727 635.378551 500.659768 613.818403 527.837632 586.640539 
C 555.015497 559.462674 576.575644 527.195633 591.284199 491.686042 
C 605.992753 456.176451 613.56367 418.114881 613.56367 379.679576 
C 613.56367 341.244272 605.992753 303.182702 591.284199 267.67311 
C 576.575644 232.163519 555.015497 199.896478 527.837632 172.718614 
C 500.659768 145.540749 468.392727 123.980602 432.883136 109.272048 
C 397.373544 94.563493 359.311974 86.992576 320.87667 86.992576 
" style="fill: none; stroke: #000000; stroke-width: 0.8; stroke-linejoin: miter; stroke-linecap: square"/>
   </g>
   <g id="text_10">
    <!-- 各维度为相对值 (0–1) -->
    <g style="fill: #555555" transform="translate(472.085399 21.808011) scale(0.085 -0.085)">
     <defs>
      <path id="MicrosoftYaHei-55f" d="M 1838 5366 
L 2325 5191 
Q 2191 4934 2038 4691 
L 5463 4691 
L 5463 4234 
Q 4819 3428 3806 2831 
Q 4881 2366 6375 2266 
Q 6169 1953 6025 1703 
Q 4388 1947 3272 2544 
Q 2022 1925 300 1578 
Q 169 1828 31 2059 
Q 1591 2303 2775 2844 
Q 2041 3347 1588 4038 
Q 1138 3444 569 2916 
Q 400 3122 225 3278 
Q 1288 4191 1838 5366 
z
M 1100 1666 
L 5363 1666 
L 5363 -803 
L 4875 -803 
L 4875 -441 
L 1588 -441 
L 1588 -803 
L 1100 -803 
L 1100 1666 
z
M 4875 1216 
L 1588 1216 
L 1588 -3 
L 4875 -3 
L 4875 1216 
z
M 4794 4241 
L 1988 4241 
Q 2494 3547 3275 3094 
Q 4153 3575 4794 4241 
z
" transform="scale(0.015625)"/>
      <path id="MicrosoftYaHei-9d3" d="M 1900 2791 
Q 2713 3909 3256 5334 
L 3738 5178 
Q 3488 4634 3247 4166 
L 6175 4166 
L 6175 3741 
L 4806 3741 
L 4806 2797 
L 6125 2797 
L 6125 2372 
L 4806 2372 
L 4806 1428 
L 6125 1428 
L 6125 1003 
L 4806 1003 
L 4806 34 
L 6250 34 
L 6250 -391 
L 3075 -391 
L 3075 -816 
L 2600 -816 
L 2600 2981 
Q 2400 2650 2213 2378 
Q 2094 2572 1900 2791 
z
M 794 1616 
Q 1388 1684 2100 1766 
Q 2069 1459 2050 1316 
Q 906 1184 275 1072 
L 181 1534 
Q 534 1863 1097 2872 
Q 550 2834 200 2803 
L 81 3197 
Q 681 4153 1138 5347 
L 1625 5172 
Q 1100 4053 613 3234 
Q 834 3234 1297 3244 
Q 1516 3656 1763 4159 
L 2213 3959 
Q 1338 2403 794 1616 
z
M 3075 34 
L 4331 34 
L 4331 1003 
L 3075 1003 
L 3075 34 
z
M 3075 1428 
L 4331 1428 
L 4331 2372 
L 3075 2372 
L 3075 1428 
z
M 3075 2797 
L 4331 2797 
L 4331 3741 
L 3075 3741 
L 3075 2797 
z
M 119 72 
Q 1113 247 2288 503 
Q 2269 247 2269 22 
Q 1025 -241 238 -397 
L 119 72 
z
M 4119 5078 
L 4506 5322 
Q 4869 4866 5100 4472 
L 4688 4209 
Q 4463 4609 4119 5078 
z
" transform="scale(0.015625)"/>
      <path id="MicrosoftYaHei-41e" d="M 356 3684 
L 2703 3684 
Q 2794 4450 2794 5341 
L 3331 5341 
Q 3331 4413 3244 3684 
L 5900 3684 
Q 5863 1753 5788 497 
Q 5725 -672 4550 -672 
Q 4063 -672 3394 -641 
Q 3369 -397 3300 -59 
Q 3888 -141 4456 -141 
Q 5206 -141 5244 597 
Q 5331 1822 5356 3197 
L 3175 3197 
Q 2716 441 606 -903 
Q 431 -684 225 -441 
Q 2169 706 2628 3197 
L 356 3197 
L 356 3684 
z
M 3325 2072 
L 3669 2378 
Q 4269 1822 4756 1284 
L 4369 934 
Q 3888 1503 3325 2072 
z
M 800 4922 
L 1138 5234 
Q 1656 4784 2138 4309 
L 1756 3953 
Q 1294 4459 800 4922 
z
" transform="scale(0.015625)"/>
      <path id="MicrosoftYaHei-92c" d="M 2738 4891 
L 6025 4891 
L 6025 -822 
L 5550 -822 
L 5550 -397 
L 3213 -397 
L 3213 -822 
L 2738 -822 
L 2738 4891 
z
M 94 1409 
Q 784 2372 1128 3622 
L 169 3622 
L 169 4041 
L 1138 4041 
L 1138 5284 
L 1594 5284 
L 1594 4041 
L 2506 4041 
L 2506 3622 
L 1594 3622 
L 1594 2534 
L 1844 2791 
Q 2275 2372 2638 1984 
L 2300 1653 
Q 1956 2059 1594 2444 
L 1594 -809 
L 1138 -809 
L 1138 2444 
Q 800 1516 319 866 
Q 225 1134 94 1409 
z
M 3213 28 
L 5550 28 
L 5550 1241 
L 3213 1241 
L 3213 28 
z
M 5550 4466 
L 3213 4466 
L 3213 3266 
L 5550 3266 
L 5550 4466 
z
M 3213 1653 
L 5550 1653 
L 5550 2853 
L 3213 2853 
L 3213 1653 
z
" transform="scale(0.015625)"/>
      <path id="MicrosoftYaHei-62b" d="M 694 3691 
Q 1234 2909 1741 2166 
Q 2113 3081 2213 4147 
L 250 4147 
L 250 4622 
L 2725 4622 
L 2725 4166 
Q 2553 2809 2059 1700 
Q 2569 953 3044 247 
L 2594 -53 
Q 2203 563 1803 1181 
Q 1247 163 388 -622 
Q 263 -428 81 -166 
Q 975 638 1500 1647 
Q 919 2538 319 3434 
L 694 3691 
z
M 2975 3941 
L 5056 3941 
L 5056 5278 
L 5563 5278 
L 5563 3941 
L 6325 3941 
L 6325 3466 
L 5563 3466 
L 5563 191 
Q 5563 -716 4669 -716 
Q 4388 -716 3744 -709 
Q 3713 -478 3644 -147 
Q 4263 -197 4588 -197 
Q 5056 -197 5056 278 
L 5056 3466 
L 2975 3466 
L 2975 3941 
z
M 3088 2684 
L 3494 2928 
Q 4000 2184 4388 1484 
L 3919 1216 
Q 3550 1922 3088 2684 
z
" transform="scale(0.015625)"/>
      <path id="MicrosoftYaHei-49b" d="M 1619 -216 
L 2250 -216 
L 2250 3653 
L 3725 3653 
L 3725 4222 
L 1913 4222 
L 1913 4647 
L 3725 4647 
L 3725 5309 
L 4200 5309 
L 4200 4647 
L 6169 4647 
L 6169 4222 
L 4200 4222 
L 4200 3653 
L 5713 3653 
L 5713 -216 
L 6306 -216 
L 6306 -641 
L 1619 -641 
L 1619 -216 
z
M 69 2247 
Q 906 3497 1369 5278 
L 1831 5141 
Q 1581 4334 1288 3628 
L 1288 -816 
L 831 -816 
L 831 2666 
Q 563 2166 263 1734 
Q 175 1997 69 2247 
z
M 2713 -216 
L 5250 -216 
L 5250 353 
L 2713 353 
L 2713 -216 
z
M 5250 3241 
L 2713 3241 
L 2713 2678 
L 5250 2678 
L 5250 3241 
z
M 2713 1716 
L 5250 1716 
L 5250 2278 
L 2713 2278 
L 2713 1716 
z
M 2713 753 
L 5250 753 
L 5250 1316 
L 2713 1316 
L 2713 753 
z
" transform="scale(0.015625)"/>
      <path id="MicrosoftYaHei-3" transform="scale(0.015625)"/>
      <path id="MicrosoftYaHei-e" d="M 1531 -1100 
Q 478 100 478 1847 
Q 478 3594 1531 4841 
L 2072 4841 
Q 1016 3544 1016 1853 
Q 1016 166 2066 -1100 
L 1531 -1100 
z
" transform="scale(0.015625)"/>
      <path id="MicrosoftYaHei-20c" d="M 3456 1681 
L 0 1681 
L 0 2153 
L 3456 2153 
L 3456 1681 
z
" transform="scale(0.015625)"/>
      <path id="MicrosoftYaHei-f" d="M 78 -1100 
Q 1131 163 1131 1853 
Q 1131 3547 72 4841 
L 616 4841 
Q 1672 3603 1672 1847 
Q 1672 91 616 -1100 
L 78 -1100 
z
" transform="scale(0.015625)"/>
     </defs>
     <use xlink:href="#MicrosoftYaHei-55f"/>
     <use xlink:href="#MicrosoftYaHei-9d3" transform="translate(100 0)"/>
     <use xlink:href="#MicrosoftYaHei-686" transform="translate(200 0)"/>
     <use xlink:href="#MicrosoftYaHei-41e" transform="translate(300 0)"/>
     <use xlink:href="#MicrosoftYaHei-92c" transform="translate(400 0)"/>
     <use xlink:href="#MicrosoftYaHei-62b" transform="translate(500 0)"/>
     <use xlink:href="#MicrosoftYaHei-49b" transform="translate(600 0)"/>
     <use xlink:href="#MicrosoftYaHei-3" transform="translate(700 0)"/>
     <use xlink:href="#MicrosoftYaHei-e" transform="translate(729.59375 0)"/>
     <use xlink:href="#MicrosoftYaHei-16" transform="translate(763 0)"/>
     <use xlink:href="#MicrosoftYaHei-20c" transform="translate(821.640625 0)"/>
     <use xlink:href="#MicrosoftYaHei-17" transform="translate(875.640625 0)"/>
     <use xlink:href="#MicrosoftYaHei-f" transform="translate(934.28125 0)"/>
    </g>
    <!-- 用于展示形态对比 -->
    <g style="fill: #555555" transform="translate(472.085399 31.075667) scale(0.085 -0.085)">
     <defs>
      <path id="MicrosoftYaHei-900" d="M 3088 -734 
L 3088 1253 
L 1269 1253 
Q 1163 -47 513 -903 
Q 350 -697 144 -472 
Q 550 103 694 803 
Q 831 1478 831 2716 
L 831 4947 
L 5925 4947 
L 5925 -22 
Q 5925 -766 5219 -766 
Q 4788 -766 4250 -747 
Q 4219 -541 4156 -228 
Q 4700 -266 5038 -266 
Q 5425 -266 5425 103 
L 5425 1253 
L 3588 1253 
L 3588 -734 
L 3088 -734 
z
M 3588 1703 
L 5425 1703 
L 5425 2872 
L 3588 2872 
L 3588 1703 
z
M 5425 4484 
L 3588 4484 
L 3588 3322 
L 5425 3322 
L 5425 4484 
z
M 1303 1703 
L 3088 1703 
L 3088 2872 
L 1331 2872 
Q 1350 2266 1303 1703 
z
M 1331 4484 
L 1331 3322 
L 3088 3322 
L 3088 4484 
L 1331 4484 
z
" transform="scale(0.015625)"/>
      <path id="MicrosoftYaHei-439" d="M 125 2759 
L 3031 2759 
L 3031 4372 
L 625 4372 
L 625 4866 
L 5800 4866 
L 5800 4372 
L 3556 4372 
L 3556 2759 
L 6275 2759 
L 6275 2266 
L 3556 2266 
L 3556 122 
Q 3556 -303 3400 -491 
Q 3225 -709 2744 -722 
Q 2463 -722 1688 -716 
Q 1656 -428 1588 -147 
Q 2294 -197 2569 -197 
Q 2850 -197 2944 -91 
Q 3031 -3 3031 303 
L 3031 2266 
L 125 2266 
L 125 2759 
z
" transform="scale(0.015625)"/>
      <path id="MicrosoftYaHei-64a" d="M 1463 2897 
L 2488 2897 
L 2488 3441 
L 2950 3441 
L 2950 2897 
L 4244 2897 
L 4244 3441 
L 4706 3441 
L 4706 2897 
L 5875 2897 
L 5875 2484 
L 4706 2484 
L 4706 1797 
L 6169 1797 
L 6169 1384 
L 3534 1384 
Q 3819 922 4228 588 
Q 4716 822 5494 1247 
L 5756 791 
Q 5097 516 4622 316 
Q 5322 -94 6300 -216 
Q 6106 -466 5950 -691 
Q 3900 -266 3047 1384 
L 2381 1384 
L 2381 -184 
Q 2463 -159 3625 209 
Q 3613 -28 3625 -291 
Q 3056 -453 2494 -653 
Q 2350 -709 2044 -859 
L 1769 -478 
Q 1919 -378 1919 -47 
L 1919 1384 
L 1178 1384 
Q 1125 103 456 -847 
Q 300 -634 100 -403 
Q 750 441 750 2341 
L 750 5028 
L 5850 5028 
L 5850 3384 
L 5375 3384 
L 5375 3597 
L 1225 3597 
L 1225 2766 
Q 1225 2234 1203 1797 
L 2488 1797 
L 2488 2484 
L 1463 2484 
L 1463 2897 
z
M 5375 4616 
L 1225 4616 
L 1225 4009 
L 5375 4009 
L 5375 4616 
z
M 2950 1797 
L 4244 1797 
L 4244 2484 
L 2950 2484 
L 2950 1797 
z
" transform="scale(0.015625)"/>
      <path id="MicrosoftYaHei-950" d="M 100 3072 
L 6300 3072 
L 6300 2603 
L 3619 2603 
L 3619 78 
Q 3619 -703 2800 -709 
Q 2366 -709 1825 -703 
Q 1788 -447 1731 -128 
Q 2225 -178 2663 -178 
Q 3088 -178 3088 241 
L 3088 2603 
L 100 2603 
L 100 3072 
z
M 675 4916 
L 5744 4916 
L 5744 4447 
L 675 4447 
L 675 4916 
z
M 4413 1847 
L 4831 2128 
Q 5600 1184 6319 159 
L 5863 -141 
Q 5088 991 4413 1847 
z
M 1481 2141 
L 1938 1884 
Q 1281 747 538 -278 
Q 344 -134 125 16 
Q 825 922 1481 2141 
z
" transform="scale(0.015625)"/>
      <path id="MicrosoftYaHei-6a5" d="M 175 2647 
L 1019 2647 
L 1019 4422 
L 350 4422 
L 350 4872 
L 3775 4872 
L 3775 4422 
L 3006 4422 
L 3006 2647 
L 3975 2647 
L 3975 2197 
L 3006 2197 
L 3006 -791 
L 2525 -791 
L 2525 2197 
L 1497 2197 
Q 1500 128 406 -841 
Q 256 -622 75 -428 
Q 1025 366 1016 2197 
L 175 2197 
L 175 2647 
z
M 1500 2647 
L 2525 2647 
L 2525 4422 
L 1500 4422 
L 1500 2647 
z
M 6319 1353 
Q 5331 166 3738 -834 
Q 3631 -666 3388 -422 
Q 4925 397 5956 1672 
L 6319 1353 
z
M 6138 3172 
Q 5250 2159 4019 1347 
Q 3888 1528 3694 1722 
Q 4856 2441 5775 3484 
L 6138 3172 
z
M 6038 4934 
Q 5194 4009 3988 3266 
Q 3875 3428 3675 3666 
Q 4838 4322 5675 5253 
L 6038 4934 
z
" transform="scale(0.015625)"/>
      <path id="MicrosoftYaHei-6c1" d="M 325 4434 
L 2888 4434 
Q 2972 4822 2969 5328 
L 3438 5328 
Q 3444 4841 3372 4434 
L 6075 4434 
L 6075 3991 
L 3528 3991 
Q 4419 2706 6231 2241 
Q 6050 2034 5881 1759 
Q 4041 2394 3172 3772 
Q 2975 3331 2588 2953 
Q 3078 2616 3538 2259 
L 3225 1891 
Q 2828 2244 2259 2675 
Q 1556 2138 388 1703 
Q 294 1922 113 2178 
Q 2250 2866 2750 3991 
L 325 3991 
L 325 4434 
z
M 1713 1547 
L 2200 1547 
L 2200 203 
Q 2200 -172 2575 -172 
L 3763 -172 
Q 4175 -172 4256 134 
Q 4331 428 4381 1028 
Q 4556 953 4863 847 
Q 4763 128 4706 -47 
Q 4563 -616 3869 -616 
L 2488 -616 
Q 1713 -616 1713 172 
L 1713 1547 
z
M 813 1447 
L 1281 1297 
Q 1038 522 663 -297 
Q 463 -203 194 -116 
Q 569 591 813 1447 
z
M 4894 1272 
L 5263 1553 
Q 5781 972 6306 309 
L 5888 -9 
Q 5425 641 4894 1272 
z
M 2594 1503 
L 2913 1809 
Q 3419 1403 3850 991 
L 3488 641 
Q 3094 1059 2594 1503 
z
" transform="scale(0.015625)"/>
      <path id="MicrosoftYaHei-841" d="M 3225 5316 
L 3744 5316 
L 3744 2672 
Q 4959 3550 5744 4509 
L 6188 4178 
Q 5175 3063 3744 2056 
L 3744 247 
Q 3744 -166 4106 -166 
L 5175 -166 
Q 5588 -166 5650 203 
Q 5725 678 5763 1247 
Q 6025 1147 6300 1066 
Q 6244 484 6150 22 
Q 6019 -622 5319 -622 
L 3944 -622 
Q 3225 -622 3225 159 
L 3225 5316 
z
M 1063 5153 
L 1063 3278 
L 2825 3278 
L 2825 2809 
L 1063 2809 
L 1063 153 
Q 1713 428 2763 928 
Q 2763 634 2788 366 
Q 1869 -3 1231 -328 
Q 956 -472 725 -672 
L 344 -184 
Q 544 -34 544 272 
L 544 5153 
L 1063 5153 
z
" transform="scale(0.015625)"/>
     </defs>
     <use xlink:href="#MicrosoftYaHei-900"/>
     <use xlink:href="#MicrosoftYaHei-439" transform="translate(100 0)"/>
     <use xlink:href="#MicrosoftYaHei-64a" transform="translate(200 0)"/>
     <use xlink:href="#MicrosoftYaHei-950" transform="translate(300 0)"/>
     <use xlink:href="#MicrosoftYaHei-6a5" transform="translate(400 0)"/>
     <use xlink:href="#MicrosoftYaHei-6c1" transform="translate(500 0)"/>
     <use xlink:href="#MicrosoftYaHei-62b" transform="translate(600 0)"/>
     <use xlink:href="#MicrosoftYaHei-841" transform="translate(700 0)"/>
    </g>
    <!-- 非精确测量数据 -->
    <g style="fill: #555555" transform="translate(472.085399 40.384495) scale(0.085 -0.085)">
     <defs>
      <path id="MicrosoftYaHei-bb3" d="M 3688 5284 
L 4188 5284 
L 4188 4391 
L 6131 4391 
L 6131 3941 
L 4188 3941 
L 4188 2716 
L 6038 2716 
L 6038 2266 
L 4188 2266 
L 4188 1016 
L 6269 1016 
L 6269 566 
L 4188 566 
L 4188 -797 
L 3688 -797 
L 3688 5284 
z
M 150 1016 
L 2206 1016 
L 2206 2266 
L 375 2266 
L 375 2716 
L 2206 2716 
L 2206 3941 
L 275 3941 
L 275 4391 
L 2206 4391 
L 2206 5284 
L 2706 5284 
L 2706 -797 
L 2206 -797 
L 2206 566 
L 150 566 
L 150 1016 
z
" transform="scale(0.015625)"/>
      <path id="MicrosoftYaHei-9a4" d="M 3225 -822 
L 2775 -822 
L 2775 2347 
L 5919 2347 
L 5919 -91 
Q 5919 -772 5219 -772 
L 4200 -772 
Q 4169 -572 4106 -291 
Q 4688 -328 5063 -328 
Q 5469 -328 5469 9 
L 5469 297 
L 3225 297 
L 3225 -822 
z
M 2488 3122 
L 4106 3122 
L 4106 3553 
L 2750 3553 
L 2750 3947 
L 4106 3947 
L 4106 4366 
L 2588 4366 
L 2588 4759 
L 4106 4759 
L 4106 5322 
L 4556 5322 
L 4556 4759 
L 6200 4759 
L 6200 4366 
L 4556 4366 
L 4556 3947 
L 6013 3947 
L 6013 3553 
L 4556 3553 
L 4556 3122 
L 6288 3122 
L 6288 2728 
L 2488 2728 
L 2488 3122 
z
M 56 578 
Q 663 1497 1044 2628 
L 138 2628 
L 138 3028 
L 1094 3028 
L 1094 5303 
L 1506 5303 
L 1506 3028 
L 2313 3028 
L 2313 2628 
L 1506 2628 
L 1506 1853 
L 1738 2041 
Q 2263 1534 2581 1166 
L 2256 866 
Q 1863 1347 1506 1722 
L 1506 -847 
L 1094 -847 
L 1094 1784 
Q 731 841 250 72 
Q 150 353 56 578 
z
M 5469 1947 
L 3225 1947 
L 3225 1509 
L 5469 1509 
L 5469 1947 
z
M 3225 684 
L 5469 684 
L 5469 1122 
L 3225 1122 
L 3225 684 
z
M 1625 3559 
Q 1900 4166 2081 4834 
L 2481 4691 
Q 2250 3997 1994 3397 
L 1625 3559 
z
M 150 4709 
L 519 4841 
Q 744 4209 944 3572 
L 550 3409 
Q 338 4172 150 4709 
z
" transform="scale(0.015625)"/>
      <path id="MicrosoftYaHei-947" d="M 2075 3453 
Q 2956 4334 3456 5359 
L 3931 5272 
Q 3781 4991 3619 4722 
L 5438 4722 
L 5438 4328 
L 4909 3666 
L 6063 3666 
L 6063 -53 
Q 6063 -728 5475 -728 
Q 5144 -728 4906 -716 
Q 4869 -497 4813 -259 
Q 5156 -291 5331 -291 
Q 5619 -291 5619 16 
L 5619 734 
L 4588 734 
L 4588 -659 
L 4144 -659 
L 4144 734 
L 3113 734 
Q 2944 -263 2444 -884 
Q 2288 -703 2081 -509 
Q 2756 291 2756 1841 
L 2756 3506 
Q 2597 3316 2431 3134 
Q 2281 3278 2075 3453 
z
M 31 1691 
Q 741 2834 1066 4291 
L 231 4291 
L 231 4716 
L 2469 4716 
L 2469 4291 
L 1509 4291 
Q 1356 3613 1128 2991 
L 2200 2991 
L 2200 128 
L 1150 128 
L 1150 -347 
L 738 -347 
L 738 2059 
Q 559 1691 350 1347 
Q 225 1497 31 1691 
z
M 1788 541 
L 1788 2578 
L 1150 2578 
L 1150 541 
L 1788 541 
z
M 4875 4322 
L 3366 4322 
Q 3138 3981 2884 3666 
L 4384 3666 
L 4875 4322 
z
M 4588 1134 
L 5619 1134 
L 5619 1991 
L 4588 1991 
L 4588 1134 
z
M 5619 3241 
L 4588 3241 
L 4588 2391 
L 5619 2391 
L 5619 3241 
z
M 3166 1134 
L 4144 1134 
L 4144 1991 
L 3200 1991 
Q 3200 1841 3166 1134 
z
M 3200 2391 
L 4144 2391 
L 4144 3241 
L 3200 3241 
L 3200 2391 
z
" transform="scale(0.015625)"/>
      <path id="MicrosoftYaHei-879" d="M 875 1753 
Q 1175 1597 1369 1522 
Q 950 -41 763 -784 
L 250 -547 
Q 619 497 875 1753 
z
M 638 5166 
Q 1019 4847 1588 4303 
Q 1381 4103 1213 3928 
Q 756 4434 313 4853 
L 638 5166 
z
M 356 3559 
Q 881 3134 1350 2716 
Q 1188 2547 988 2322 
Q 425 2878 50 3216 
L 356 3559 
z
M 5575 5284 
L 6031 5284 
L 6031 -34 
Q 6031 -753 5338 -753 
Q 5038 -753 4625 -741 
Q 4600 -509 4538 -228 
Q 4938 -272 5219 -272 
Q 5575 -272 5575 84 
L 5575 5284 
z
M 5038 634 
L 4600 634 
L 4600 4778 
L 5038 4778 
L 5038 634 
z
M 1706 4941 
L 4063 4941 
L 4063 991 
L 3613 991 
L 3613 4503 
L 2156 4503 
L 2156 991 
L 1706 991 
L 1706 4941 
z
M 2681 3966 
L 3138 3966 
L 3138 2416 
Q 3138 1466 2963 891 
Q 3775 266 4375 -234 
L 4038 -616 
Q 3538 -141 2800 472 
Q 2413 -297 1406 -884 
Q 1269 -684 1100 -484 
Q 2031 53 2375 709 
Q 2681 1278 2681 2403 
L 2681 3966 
z
" transform="scale(0.015625)"/>
      <path id="MicrosoftYaHei-b4f" d="M 113 -278 
L 2981 -278 
L 2981 78 
L 475 78 
L 475 403 
L 2981 403 
L 2981 759 
L 1494 759 
L 1494 597 
L 1069 597 
L 1069 2516 
L 5350 2516 
L 5350 597 
L 4925 597 
L 4925 759 
L 3419 759 
L 3419 403 
L 5931 403 
L 5931 78 
L 3419 78 
L 3419 -278 
L 6288 -278 
L 6288 -616 
L 113 -616 
L 113 -278 
z
M 1119 5072 
L 5306 5072 
L 5306 3284 
L 4881 3284 
L 4881 3453 
L 1544 3453 
L 1544 3284 
L 1119 3284 
L 1119 5072 
z
M 163 3153 
L 6263 3153 
L 6263 2816 
L 163 2816 
L 163 3153 
z
M 1544 3778 
L 4881 3778 
L 4881 4116 
L 1544 4116 
L 1544 3778 
z
M 4881 4747 
L 1544 4747 
L 1544 4416 
L 4881 4416 
L 4881 4747 
z
M 3419 1084 
L 4925 1084 
L 4925 1491 
L 3419 1491 
L 3419 1084 
z
M 1494 1084 
L 2981 1084 
L 2981 1491 
L 1494 1491 
L 1494 1084 
z
M 4925 2191 
L 3419 2191 
L 3419 1791 
L 4925 1791 
L 4925 2191 
z
M 1494 1791 
L 2981 1791 
L 2981 2191 
L 1494 2191 
L 1494 1791 
z
" transform="scale(0.015625)"/>
      <path id="MicrosoftYaHei-783" d="M 4175 5303 
L 4675 5228 
Q 4544 4622 4369 4097 
L 6281 4097 
L 6281 3672 
L 5888 3672 
Q 5731 1834 5088 753 
Q 5594 66 6375 -372 
Q 6175 -647 6038 -866 
Q 5275 -372 4769 309 
Q 4194 -403 3400 -928 
Q 3263 -747 3044 -534 
Q 3919 41 4463 772 
Q 3956 1647 3794 2791 
Q 3663 2559 3519 2359 
Q 3394 2541 3206 2759 
Q 3931 3803 4175 5303 
z
M 150 1697 
L 1100 1697 
Q 1238 1934 1369 2184 
L 1819 2041 
Q 1719 1866 1619 1697 
L 3150 1697 
L 3150 1291 
Q 2913 678 2431 216 
Q 2775 53 3131 -109 
L 2856 -541 
Q 2469 -322 2050 -103 
Q 1344 -609 269 -903 
Q 169 -703 56 -466 
Q 969 -259 1600 128 
Q 1063 403 475 691 
Q 675 978 863 1284 
L 150 1284 
L 150 1697 
z
M 219 3847 
L 1656 3847 
L 1656 5247 
L 2119 5247 
L 2119 3847 
L 3319 3847 
L 3319 3434 
L 2119 3434 
L 2119 3053 
L 2306 3266 
Q 2888 2841 3281 2516 
L 2981 2166 
Q 2638 2491 2119 2897 
L 2119 2184 
L 1656 2184 
L 1656 3059 
Q 1088 2466 331 2016 
Q 213 2197 63 2397 
Q 850 2822 1506 3434 
L 219 3434 
L 219 3847 
z
M 5388 3672 
L 4219 3672 
Q 4188 3591 4150 3516 
Q 4263 2191 4775 1247 
Q 5275 2159 5388 3672 
z
M 1088 834 
Q 1531 634 2000 416 
Q 2431 784 2675 1284 
L 1375 1284 
Q 1231 1053 1088 834 
z
M 3038 5091 
L 3425 4834 
Q 3081 4384 2738 4003 
Q 2594 4128 2400 4266 
Q 2725 4647 3038 5091 
z
M 381 4816 
L 738 5059 
Q 1019 4716 1319 4322 
L 931 4047 
Q 656 4453 381 4816 
z
" transform="scale(0.015625)"/>
      <path id="MicrosoftYaHei-747" d="M 2900 1334 
L 4188 1334 
L 4188 2128 
L 2731 2128 
Q 2663 206 1844 -841 
Q 1694 -647 1506 -447 
Q 2288 516 2288 2509 
L 2288 4947 
L 5975 4947 
L 5975 3134 
L 5525 3134 
L 5525 3328 
L 2738 3328 
L 2738 2553 
L 4188 2553 
L 4188 3209 
L 4638 3209 
L 4638 2553 
L 6288 2553 
L 6288 2128 
L 4638 2128 
L 4638 1334 
L 5938 1334 
L 5938 -778 
L 5488 -778 
L 5488 -416 
L 3350 -416 
L 3350 -778 
L 2900 -778 
L 2900 1334 
z
M 100 1966 
Q 544 2088 963 2213 
L 963 3641 
L 175 3641 
L 175 4091 
L 963 4091 
L 963 5284 
L 1425 5284 
L 1425 4091 
L 2106 4091 
L 2106 3641 
L 1425 3641 
L 1425 2356 
Q 1722 2450 2006 2547 
Q 2013 2266 2044 2059 
Q 1722 1956 1425 1856 
L 1425 -34 
Q 1425 -741 806 -753 
Q 613 -759 231 -747 
Q 206 -497 156 -228 
Q 500 -266 681 -266 
Q 963 -266 963 53 
L 963 1703 
Q 534 1559 163 1428 
L 100 1966 
z
M 5525 4534 
L 2738 4534 
L 2738 3741 
L 5525 3741 
L 5525 4534 
z
M 5488 922 
L 3350 922 
L 3350 -9 
L 5488 -9 
L 5488 922 
z
" transform="scale(0.015625)"/>
     </defs>
     <use xlink:href="#MicrosoftYaHei-bb3"/>
     <use xlink:href="#MicrosoftYaHei-9a4" transform="translate(100 0)"/>
     <use xlink:href="#MicrosoftYaHei-947" transform="translate(200 0)"/>
     <use xlink:href="#MicrosoftYaHei-879" transform="translate(300 0)"/>
     <use xlink:href="#MicrosoftYaHei-b4f" transform="translate(400 0)"/>
     <use xlink:href="#MicrosoftYaHei-783" transform="translate(500 0)"/>
     <use xlink:href="#MicrosoftYaHei-747" transform="translate(600 0)"/>
    </g>
   </g>
   <g id="text_11">
    <!-- 三类 Ξ 交互器官的能力形态对比 -->
    <g style="fill: #2c3e50" transform="translate(228.914873 18.162656) scale(0.13 -0.13)">
     <defs>
      <path id="MicrosoftYaHei-406" d="M 575 4691 
L 5813 4691 
L 5813 4153 
L 575 4153 
L 575 4691 
z
M 188 166 
L 6225 166 
L 6225 -359 
L 188 -359 
L 188 166 
z
M 856 2547 
L 5531 2547 
L 5531 2016 
L 856 2016 
L 856 2547 
z
" transform="scale(0.015625)"/>
      <path id="MicrosoftYaHei-99d" d="M 6338 -359 
Q 6213 -503 6006 -853 
Q 3975 -459 3200 884 
Q 2644 -497 400 -897 
Q 288 -684 131 -434 
Q 2244 -147 2744 1047 
L 275 1047 
L 275 1484 
L 2875 1484 
Q 2925 1691 2956 1978 
L 3456 1978 
Q 3413 1697 3369 1484 
L 6125 1484 
L 6125 1047 
L 3619 1047 
Q 4450 -159 6338 -359 
z
M 325 3741 
L 2975 3741 
L 2975 5303 
L 3450 5303 
L 3450 3741 
L 6075 3741 
L 6075 3322 
L 3450 3322 
L 3450 2953 
L 3625 3191 
Q 5325 2528 6231 2128 
L 6013 1722 
Q 4956 2266 3450 2847 
L 3450 2197 
L 2975 2197 
L 2975 3241 
Q 1863 2191 450 1741 
Q 319 1934 144 2153 
Q 1569 2553 2538 3322 
L 325 3322 
L 325 3741 
z
M 5550 4784 
Q 5163 4459 4394 3891 
L 4069 4222 
Q 4569 4578 5194 5122 
L 5550 4784 
z
M 900 4791 
L 1206 5122 
Q 1875 4647 2306 4266 
L 1969 3897 
Q 1581 4284 900 4791 
z
" transform="scale(0.015625)"/>
      <path id="MicrosoftYaHei-149" d="M 3275 4259 
L 284 4259 
L 284 4841 
L 3275 4841 
L 3275 4259 
z
M 2806 2166 
L 756 2166 
L 756 2722 
L 2806 2722 
L 2806 2166 
z
M 3366 0 
L 197 0 
L 197 588 
L 3366 588 
L 3366 0 
z
" transform="scale(0.015625)"/>
      <path id="MicrosoftYaHei-441" d="M 4194 2641 
L 4675 2434 
Q 4209 1375 3566 713 
Q 4503 19 6225 -278 
Q 5994 -591 5850 -803 
Q 4184 -378 3194 375 
Q 2334 -297 463 -847 
Q 325 -628 150 -366 
Q 1909 78 2803 713 
Q 2184 1344 1738 2359 
L 2156 2597 
Q 2566 1669 3194 1041 
Q 3766 1609 4194 2641 
z
M 194 4384 
L 3122 4384 
Q 2975 4691 2700 5128 
L 3163 5353 
Q 3431 4978 3638 4566 
L 3288 4384 
L 6194 4384 
L 6194 3922 
L 194 3922 
L 194 4384 
z
M 2044 3634 
L 2444 3309 
Q 1569 2391 625 1666 
Q 469 1859 275 2066 
Q 1219 2734 2044 3634 
z
M 4288 3666 
Q 5431 2766 6075 2159 
Q 5900 1984 5700 1753 
Q 4994 2478 3944 3341 
L 4288 3666 
z
" transform="scale(0.015625)"/>
      <path id="MicrosoftYaHei-43b" d="M 238 72 
L 4472 72 
L 4550 1147 
L 1025 1147 
L 1025 1591 
L 1419 4341 
L 463 4341 
L 463 4791 
L 5950 4791 
L 5950 4341 
L 1944 4341 
L 1809 3422 
L 5238 3422 
L 4997 72 
L 6188 72 
L 6188 -366 
L 238 -366 
L 238 72 
z
M 4681 2972 
L 1747 2972 
L 1550 1597 
L 4581 1597 
L 4681 2972 
z
" transform="scale(0.015625)"/>
      <path id="MicrosoftYaHei-598" d="M 300 2691 
L 2825 2691 
Q 2922 2925 2950 3234 
L 3400 3172 
Q 3363 2909 3291 2691 
L 4653 2691 
Q 4403 2872 4125 3047 
L 4381 3328 
Q 4794 3084 5125 2841 
L 4984 2691 
L 6150 2691 
L 6150 2278 
L 3738 2278 
Q 4459 1572 6300 1609 
Q 6150 1353 6044 1128 
Q 5878 1141 5725 1156 
L 5725 -753 
L 5288 -753 
L 5288 -409 
L 3950 -409 
L 3950 -747 
L 3513 -747 
L 3513 1184 
L 5503 1184 
Q 3716 1425 3219 2278 
L 3106 2278 
Q 2756 1534 838 1184 
L 2838 1184 
L 2838 -747 
L 2400 -747 
L 2400 -409 
L 1081 -409 
L 1081 -753 
L 644 -753 
L 644 1147 
Q 478 1116 300 1084 
Q 206 1272 56 1528 
Q 2144 1797 2563 2278 
L 300 2278 
L 300 2691 
z
M 3506 4966 
L 5719 4966 
L 5719 3122 
L 5281 3122 
L 5281 3341 
L 3944 3341 
L 3944 3147 
L 3506 3147 
L 3506 4966 
z
M 638 4966 
L 2831 4966 
L 2831 3147 
L 2394 3147 
L 2394 3341 
L 1075 3341 
L 1075 3084 
L 638 3084 
L 638 4966 
z
M 5281 4578 
L 3944 4578 
L 3944 3728 
L 5281 3728 
L 5281 4578 
z
M 2394 4578 
L 1075 4578 
L 1075 3728 
L 2394 3728 
L 2394 4578 
z
M 5288 797 
L 3950 797 
L 3950 -22 
L 5288 -22 
L 5288 797 
z
M 2400 797 
L 1081 797 
L 1081 -22 
L 2400 -22 
L 2400 797 
z
" transform="scale(0.015625)"/>
      <path id="MicrosoftYaHei-612" d="M 5431 1272 
L 5431 -847 
L 4950 -847 
L 4950 -478 
L 1688 -478 
L 1688 -841 
L 1200 -841 
L 1200 3491 
L 5194 3491 
L 5194 1666 
L 4713 1666 
L 4713 1872 
L 1688 1872 
L 1688 1272 
L 5431 1272 
z
M 363 4509 
L 3197 4509 
Q 3006 4838 2806 5122 
L 3238 5366 
Q 3450 5091 3706 4678 
L 3413 4509 
L 6044 4509 
L 6044 3372 
L 5556 3372 
L 5556 4078 
L 850 4078 
L 850 3372 
L 363 3372 
L 363 4509 
z
M 4950 853 
L 1688 853 
L 1688 -66 
L 4950 -66 
L 4950 853 
z
M 4713 3072 
L 1688 3072 
L 1688 2291 
L 4713 2291 
L 4713 3072 
z
" transform="scale(0.015625)"/>
      <path id="MicrosoftYaHei-919" d="M 356 4284 
L 988 4284 
Q 1219 4853 1369 5322 
L 1894 5172 
Q 1697 4694 1513 4284 
L 2763 4284 
L 2763 -691 
L 2263 -691 
L 2263 -203 
L 856 -203 
L 856 -734 
L 356 -734 
L 356 4284 
z
M 2856 3003 
Q 3444 3934 3850 5322 
L 4375 5191 
Q 4216 4719 4050 4303 
L 6063 4303 
Q 5988 1091 5938 259 
Q 5894 -722 4906 -722 
Q 4338 -722 3750 -684 
Q 3713 -372 3650 -128 
L 3669 -128 
Q 4294 -216 4813 -216 
Q 5381 -216 5425 384 
Q 5494 1316 5525 3834 
L 3850 3834 
Q 3578 3231 3288 2772 
Q 3119 2891 2856 3003 
z
M 856 266 
L 2263 266 
L 2263 1847 
L 856 1847 
L 856 266 
z
M 2263 3816 
L 856 3816 
L 856 2297 
L 2263 2297 
L 2263 3816 
z
M 3406 2578 
L 3788 2859 
Q 4481 2041 4894 1441 
L 4431 1116 
Q 3988 1841 3406 2578 
z
" transform="scale(0.015625)"/>
      <path id="MicrosoftYaHei-a08" d="M 950 -759 
L 463 -759 
L 463 2928 
L 3000 2928 
L 3000 -28 
Q 3000 -703 2375 -703 
Q 2100 -709 1669 -709 
Q 1638 -516 1575 -234 
Q 1969 -266 2206 -266 
Q 2513 -266 2513 53 
L 2513 572 
L 950 572 
L 950 -759 
z
M 3606 2253 
L 4094 2253 
L 4094 1222 
Q 4981 1553 5950 2091 
L 6231 1659 
Q 5209 1122 4094 706 
L 4094 166 
Q 4094 -228 4400 -228 
L 5319 -228 
Q 5638 -228 5688 78 
Q 5731 353 5763 897 
Q 6000 803 6250 722 
Q 6200 172 6144 -109 
Q 6063 -659 5363 -659 
L 4319 -659 
Q 3606 -659 3606 72 
L 3606 2253 
z
M 3619 5303 
L 4106 5303 
L 4106 4231 
Q 4966 4572 5813 5053 
L 6094 4622 
Q 5119 4128 4106 3719 
L 4106 3359 
Q 4106 2941 4438 2941 
L 5231 2941 
Q 5625 2941 5675 3266 
Q 5719 3534 5750 4047 
Q 5988 3953 6238 3866 
Q 6188 3366 6131 3053 
Q 6038 2509 5288 2509 
L 4375 2509 
Q 3619 2509 3619 3259 
L 3619 5303 
z
M 2463 4772 
Q 3031 4034 3450 3353 
Q 3213 3191 3019 3066 
Q 2897 3281 2759 3506 
Q 1231 3394 313 3303 
L 113 3828 
Q 388 3978 719 4391 
Q 1063 4841 1394 5397 
L 1888 5216 
Q 1369 4466 794 3797 
Q 1731 3856 2497 3919 
Q 2300 4216 2075 4528 
L 2463 4772 
z
M 950 947 
L 2513 947 
L 2513 1553 
L 950 1553 
L 950 947 
z
M 2513 2528 
L 950 2528 
L 950 1928 
L 2513 1928 
L 2513 2528 
z
" transform="scale(0.015625)"/>
      <path id="MicrosoftYaHei-503" d="M 400 3916 
L 2425 3916 
Q 2444 4603 2450 5316 
L 2994 5316 
Q 2981 4653 2963 3916 
L 5831 3916 
Q 5756 1472 5688 459 
Q 5606 -616 4538 -628 
Q 4025 -628 3300 -603 
Q 3275 -359 3206 -9 
L 3225 -9 
Q 4038 -84 4488 -78 
Q 5094 -66 5156 591 
Q 5231 1709 5269 3403 
L 2950 3403 
Q 2894 1775 2431 953 
Q 1938 41 506 -803 
Q 331 -578 131 -328 
Q 1488 434 1913 1209 
Q 2353 1913 2406 3403 
L 400 3403 
L 400 3916 
z
" transform="scale(0.015625)"/>
     </defs>
     <use xlink:href="#MicrosoftYaHei-406"/>
     <use xlink:href="#MicrosoftYaHei-99d" transform="translate(100 0)"/>
     <use xlink:href="#MicrosoftYaHei-3" transform="translate(200 0)"/>
     <use xlink:href="#MicrosoftYaHei-149" transform="translate(229.59375 0)"/>
     <use xlink:href="#MicrosoftYaHei-3" transform="translate(285.203125 0)"/>
     <use xlink:href="#MicrosoftYaHei-441" transform="translate(314.796875 0)"/>
     <use xlink:href="#MicrosoftYaHei-43b" transform="translate(414.796875 0)"/>
     <use xlink:href="#MicrosoftYaHei-598" transform="translate(514.796875 0)"/>
     <use xlink:href="#MicrosoftYaHei-612" transform="translate(614.796875 0)"/>
     <use xlink:href="#MicrosoftYaHei-919" transform="translate(714.796875 0)"/>
     <use xlink:href="#MicrosoftYaHei-a08" transform="translate(814.796875 0)"/>
     <use xlink:href="#MicrosoftYaHei-503" transform="translate(914.796875 0)"/>
     <use xlink:href="#MicrosoftYaHei-6a5" transform="translate(1014.796875 0)"/>
     <use xlink:href="#MicrosoftYaHei-6c1" transform="translate(1114.796875 0)"/>
     <use xlink:href="#MicrosoftYaHei-62b" transform="translate(1214.796875 0)"/>
     <use xlink:href="#MicrosoftYaHei-841" transform="translate(1314.796875 0)"/>
    </g>
   </g>
   <g id="line2d_10">
    <path d="M 320.87667 116.261276 
L 376.549046 361.590525 
L 363.885945 438.876766 
L 295.071104 415.19789 
L 293.040482 370.635051 
L 320.87667 116.261276 
" clip-path="url(#pe8613d5397)" style="fill: none; stroke: #2874a6; stroke-width: 2.2; stroke-linecap: square"/>
   </g>
   <g id="line2d_11">
    <path d="M 320.87667 204.067376 
L 473.975703 329.934685 
L 406.895221 498.073955 
L 252.061829 474.395079 
L 237.368106 352.545999 
L 320.87667 204.067376 
" clip-path="url(#pe8613d5397)" style="fill: none; stroke: #1e8449; stroke-width: 2.2; stroke-linecap: square"/>
   </g>
   <g id="line2d_12">
    <path d="M 320.87667 130.895626 
L 571.402361 298.278845 
L 484.311917 604.628895 
L 162.602536 597.525233 
L 75.918217 300.08775 
L 320.87667 130.895626 
" clip-path="url(#pe8613d5397)" style="fill: none; stroke: #6c3483; stroke-width: 2.6; stroke-linecap: square"/>
   </g>
   <g id="legend_1">
    <g id="patch_7">
     <path d="M 535.421098 69.687374 
L 694.71977 69.687374 
Q 696.61977 69.687374 696.61977 67.787374 
L 696.61977 23.397696 
Q 696.61977 21.497696 694.71977 21.497696 
L 535.421098 21.497696 
Q 533.521098 21.497696 533.521098 23.397696 
L 533.521098 67.787374 
Q 533.521098 69.687374 535.421098 69.687374 
z
" style="fill: #ffffff; opacity: 0.85; stroke: #cccccc; stroke-linejoin: miter"/>
    </g>
    <g id="line2d_13">
     <path d="M 537.321098 29.937852 
L 546.821098 29.937852 
L 556.321098 29.937852 
" style="fill: none; stroke: #2874a6; stroke-width: 2.2; stroke-linecap: square"/>
    </g>
    <g id="text_12">
     <!-- 感受器官 (Ξ 信号接收) -->
     <g transform="translate(563.921098 33.262852) scale(0.095 -0.095)">
      <defs>
       <path id="MicrosoftYaHei-549" d="M 1075 1684 
L 1075 2116 
L 5025 2116 
L 5025 1672 
Q 4478 881 3616 275 
Q 4544 -150 6313 -309 
Q 6125 -566 5975 -847 
Q 4141 -591 3144 -13 
Q 2150 -534 400 -884 
Q 275 -666 106 -416 
Q 1741 -125 2688 297 
Q 1984 850 1506 1684 
L 1075 1684 
z
M 319 3241 
L 4138 3241 
Q 4453 3697 4894 4522 
L 5388 4241 
Q 4978 3644 4675 3241 
L 6075 3241 
L 6075 1959 
L 5569 1959 
L 5569 2803 
L 825 2803 
L 825 1959 
L 319 1959 
L 319 3241 
z
M 625 4484 
Q 588 4703 538 4947 
Q 3550 4978 5669 5134 
L 5744 4672 
Q 3256 4541 625 4484 
z
M 4456 1684 
L 2013 1684 
Q 2459 1009 3153 538 
Q 3941 1016 4456 1684 
z
M 2644 4272 
L 3050 4472 
Q 3356 4028 3588 3566 
L 3131 3347 
Q 2919 3822 2644 4272 
z
M 931 4159 
L 1319 4397 
Q 1656 3953 1906 3547 
L 1463 3291 
Q 1213 3741 931 4159 
z
" transform="scale(0.015625)"/>
       <path id="MicrosoftYaHei-492" d="M 2300 1434 
L 5856 1434 
L 5856 -853 
L 5375 -853 
L 5375 -478 
L 2781 -478 
L 2781 -853 
L 2300 -853 
L 2300 1434 
z
M 81 2303 
Q 1000 3666 1463 5316 
L 1950 5178 
Q 1678 4338 1356 3628 
L 1356 -853 
L 894 -853 
L 894 2713 
Q 606 2209 288 1791 
Q 188 2053 81 2303 
z
M 5375 1009 
L 2781 1009 
L 2781 -53 
L 5375 -53 
L 5375 1009 
z
M 1888 4472 
L 3928 4472 
Q 3741 4794 3538 5109 
L 3956 5328 
Q 4181 4991 4400 4616 
L 4128 4472 
L 6288 4472 
L 6288 4034 
L 1888 4034 
L 1888 4472 
z
M 2231 3453 
L 5919 3453 
L 5919 3028 
L 2231 3028 
L 2231 3453 
z
M 2231 2447 
L 5919 2447 
L 5919 2022 
L 2231 2022 
L 2231 2447 
z
" transform="scale(0.015625)"/>
       <path id="MicrosoftYaHei-55a" d="M 1075 5028 
L 5319 5028 
L 5319 2966 
L 4825 2966 
L 4825 3222 
L 1569 3222 
L 1569 2934 
L 1075 2934 
L 1075 5028 
z
M 1194 1053 
L 1194 1509 
L 1466 2153 
L 106 2153 
L 106 2609 
L 6300 2609 
L 6300 2153 
L 1981 2153 
L 1713 1503 
L 5444 1503 
Q 5369 778 5300 316 
Q 5150 -703 4125 -703 
Q 3406 -703 2588 -678 
Q 2550 -466 2481 -134 
Q 3375 -209 4038 -209 
Q 4713 -209 4800 397 
Q 4844 647 4888 1053 
L 1194 1053 
z
M 4825 4578 
L 1569 4578 
L 1569 3672 
L 4825 3672 
L 4825 4578 
z
" transform="scale(0.015625)"/>
       <path id="MicrosoftYaHei-74e" d="M 1800 -366 
Q 3019 -188 3784 222 
Q 3200 484 2531 772 
Q 2800 1119 3028 1466 
L 2000 1466 
L 2000 1884 
L 3291 1884 
Q 3491 2222 3656 2559 
L 4119 2366 
Q 3969 2116 3822 1884 
L 6225 1884 
L 6225 1466 
L 5403 1466 
Q 5156 778 4672 306 
Q 5469 -25 6219 -353 
L 5944 -816 
Q 5241 -444 4288 -3 
Q 3450 -572 2038 -841 
Q 1950 -634 1800 -366 
z
M 100 1966 
Q 544 2088 963 2213 
L 963 3641 
L 175 3641 
L 175 4091 
L 963 4091 
L 963 5259 
L 1425 5259 
L 1425 4091 
L 2144 4091 
L 2144 3641 
L 1425 3641 
L 1425 2356 
Q 1722 2450 2006 2547 
Q 2013 2266 2044 2059 
Q 1722 1956 1425 1856 
L 1425 -72 
Q 1425 -747 819 -753 
Q 588 -759 231 -747 
Q 206 -491 156 -228 
Q 531 -266 688 -266 
Q 963 -266 963 66 
L 963 1703 
Q 534 1559 163 1428 
L 100 1966 
z
M 2019 3072 
L 4453 3072 
Q 4850 3622 5156 4103 
L 5625 3847 
Q 5300 3456 4966 3072 
L 6269 3072 
L 6269 2653 
L 2019 2653 
L 2019 3072 
z
M 2263 4591 
L 4028 4591 
Q 3881 4875 3719 5153 
L 4138 5347 
Q 4338 5009 4519 4666 
L 4359 4591 
L 6119 4591 
L 6119 4172 
L 2263 4172 
L 2263 4591 
z
M 3181 909 
Q 3703 703 4203 497 
Q 4694 894 4900 1466 
L 3553 1466 
Q 3363 1175 3181 909 
z
M 2825 3853 
L 3188 4097 
Q 3481 3753 3756 3372 
L 3356 3103 
Q 3119 3491 2825 3853 
z
" transform="scale(0.015625)"/>
       <path id="MicrosoftYaHei-776" d="M 2244 2659 
Q 3044 4047 3400 5341 
L 3906 5197 
Q 3706 4619 3488 4091 
L 6213 4091 
L 6213 3628 
L 5478 3628 
Q 5384 1819 4550 681 
Q 5184 119 6350 -297 
Q 6156 -541 5994 -797 
Q 4881 -322 4219 300 
Q 3616 -294 2550 -853 
Q 2419 -647 2231 -434 
Q 3297 100 3878 672 
Q 3156 1575 2944 2916 
Q 2769 2575 2581 2259 
Q 2463 2441 2244 2659 
z
M 1681 5291 
L 2156 5291 
L 2156 -816 
L 1681 -816 
L 1681 1113 
Q 1300 900 906 641 
Q 744 522 588 359 
L 231 778 
Q 425 984 425 1316 
L 425 4416 
L 900 4416 
L 900 1216 
Q 1272 1413 1681 1634 
L 1681 5291 
z
M 4984 3628 
L 3322 3628 
Q 3413 2103 4203 1059 
Q 4916 2063 4984 3628 
z
" transform="scale(0.015625)"/>
      </defs>
      <use xlink:href="#MicrosoftYaHei-6df"/>
      <use xlink:href="#MicrosoftYaHei-549" transform="translate(100 0)"/>
      <use xlink:href="#MicrosoftYaHei-598" transform="translate(200 0)"/>
      <use xlink:href="#MicrosoftYaHei-612" transform="translate(300 0)"/>
      <use xlink:href="#MicrosoftYaHei-3" transform="translate(400 0)"/>
      <use xlink:href="#MicrosoftYaHei-e" transform="translate(429.59375 0)"/>
      <use xlink:href="#MicrosoftYaHei-149" transform="translate(463 0)"/>
      <use xlink:href="#MicrosoftYaHei-3" transform="translate(518.609375 0)"/>
      <use xlink:href="#MicrosoftYaHei-492" transform="translate(548.203125 0)"/>
      <use xlink:href="#MicrosoftYaHei-55a" transform="translate(648.203125 0)"/>
      <use xlink:href="#MicrosoftYaHei-74e" transform="translate(748.203125 0)"/>
      <use xlink:href="#MicrosoftYaHei-776" transform="translate(848.203125 0)"/>
      <use xlink:href="#MicrosoftYaHei-f" transform="translate(948.203125 0)"/>
     </g>
    </g>
    <g id="line2d_14">
     <path d="M 537.321098 45.060479 
L 546.821098 45.060479 
L 556.321098 45.060479 
" style="fill: none; stroke: #1e8449; stroke-width: 2.2; stroke-linecap: square"/>
    </g>
    <g id="text_13">
     <!-- 副发声器官 (Ξ 信号发射) -->
     <g transform="translate(563.921098 48.385479) scale(0.095 -0.095)">
      <defs>
       <path id="MicrosoftYaHei-500" d="M 400 2109 
L 3725 2109 
L 3725 -828 
L 3275 -828 
L 3275 -491 
L 850 -491 
L 850 -828 
L 400 -828 
L 400 2109 
z
M 681 4059 
L 3425 4059 
L 3425 2466 
L 2975 2466 
L 2975 2622 
L 1131 2622 
L 1131 2466 
L 681 2466 
L 681 4059 
z
M 5419 5228 
L 5919 5228 
L 5919 28 
Q 5919 -728 5206 -734 
Q 4881 -741 4281 -728 
Q 4250 -441 4181 -172 
Q 4738 -228 5050 -228 
Q 5419 -228 5419 166 
L 5419 5228 
z
M 4731 822 
L 4250 822 
L 4250 4591 
L 4731 4591 
L 4731 822 
z
M 150 4984 
L 3913 4984 
L 3913 4559 
L 150 4559 
L 150 4984 
z
M 2975 3672 
L 1131 3672 
L 1131 3009 
L 2975 3009 
L 2975 3672 
z
M 3275 1722 
L 2288 1722 
L 2288 991 
L 3275 991 
L 3275 1722 
z
M 850 991 
L 1838 991 
L 1838 1722 
L 850 1722 
L 850 991 
z
M 2288 -103 
L 3275 -103 
L 3275 616 
L 2288 616 
L 2288 -103 
z
M 850 -103 
L 1838 -103 
L 1838 616 
L 850 616 
L 850 -103 
z
" transform="scale(0.015625)"/>
       <path id="MicrosoftYaHei-547" d="M 944 3909 
L 2266 3909 
Q 2419 4563 2525 5334 
L 3056 5266 
Q 2950 4556 2797 3909 
L 6250 3909 
L 6250 3447 
L 2678 3447 
Q 2566 3034 2431 2653 
L 5531 2653 
L 5531 2222 
Q 5119 1200 4247 456 
Q 5125 -75 6294 -291 
Q 6013 -603 5856 -816 
Q 4856 -484 3844 153 
Q 3031 -381 1519 -859 
Q 1344 -609 1144 -397 
Q 2681 3 3441 450 
Q 2619 1153 2269 2222 
Q 1584 509 406 -591 
Q 238 -353 75 -166 
Q 1484 1106 2147 3447 
L 413 3447 
L 413 3916 
Q 669 4509 881 5109 
L 1388 4972 
Q 1169 4422 944 3909 
z
M 4981 2222 
L 2722 2222 
Q 3003 1356 3838 731 
Q 4647 1400 4981 2222 
z
M 4019 4903 
L 4294 5253 
Q 4906 4866 5469 4447 
L 5131 4041 
Q 4588 4503 4019 4903 
z
" transform="scale(0.015625)"/>
       <path id="MicrosoftYaHei-5d2" d="M 956 2666 
L 5581 2666 
L 5581 628 
L 5094 628 
L 5094 916 
L 1400 916 
Q 1275 -84 438 -853 
Q 275 -653 100 -428 
Q 956 234 956 1603 
L 956 2666 
z
M 756 3609 
L 3025 3609 
L 3025 4228 
L 231 4228 
L 231 4659 
L 3025 4659 
L 3025 5316 
L 3531 5316 
L 3531 4659 
L 6294 4659 
L 6294 4228 
L 3531 4228 
L 3531 3609 
L 5788 3609 
L 5788 3178 
L 756 3178 
L 756 3609 
z
M 5094 2247 
L 3513 2247 
L 3513 1334 
L 5094 1334 
L 5094 2247 
z
M 1450 2247 
L 1450 1334 
L 3025 1334 
L 3025 2247 
L 1450 2247 
z
" transform="scale(0.015625)"/>
       <path id="MicrosoftYaHei-630" d="M 50 -147 
Q 1116 394 1881 1278 
L 125 1278 
L 125 1684 
L 494 1684 
L 494 4584 
L 1231 4584 
Q 1400 5009 1500 5359 
L 2006 5228 
Q 1869 4894 1728 4584 
L 2856 4584 
L 2856 -59 
Q 2856 -772 2238 -772 
Q 1969 -772 1581 -759 
Q 1544 -503 1488 -278 
Q 1850 -309 2106 -309 
Q 2394 -309 2394 -3 
L 2394 1278 
Q 1572 178 356 -547 
Q 194 -303 50 -147 
z
M 3069 3934 
L 5088 3934 
L 5088 5278 
L 5563 5278 
L 5563 3934 
L 6325 3934 
L 6325 3466 
L 5563 3466 
L 5563 216 
Q 5563 -722 4663 -722 
Q 4381 -722 3744 -709 
Q 3713 -478 3644 -178 
Q 4269 -234 4594 -234 
Q 5088 -234 5088 291 
L 5088 3466 
L 3069 3466 
L 3069 3934 
z
M 2394 4178 
L 956 4178 
L 956 3609 
L 2394 3609 
L 2394 4178 
z
M 956 1684 
L 2394 1684 
L 2394 2253 
L 956 2253 
L 956 1684 
z
M 956 2647 
L 2394 2647 
L 2394 3216 
L 956 3216 
L 956 2647 
z
M 3250 2684 
L 3638 2891 
Q 4156 2072 4456 1472 
L 4013 1228 
Q 3694 1916 3250 2684 
z
" transform="scale(0.015625)"/>
      </defs>
      <use xlink:href="#MicrosoftYaHei-500"/>
      <use xlink:href="#MicrosoftYaHei-547" transform="translate(100 0)"/>
      <use xlink:href="#MicrosoftYaHei-5d2" transform="translate(200 0)"/>
      <use xlink:href="#MicrosoftYaHei-598" transform="translate(300 0)"/>
      <use xlink:href="#MicrosoftYaHei-612" transform="translate(400 0)"/>
      <use xlink:href="#MicrosoftYaHei-3" transform="translate(500 0)"/>
      <use xlink:href="#MicrosoftYaHei-e" transform="translate(529.59375 0)"/>
      <use xlink:href="#MicrosoftYaHei-149" transform="translate(563 0)"/>
      <use xlink:href="#MicrosoftYaHei-3" transform="translate(618.609375 0)"/>
      <use xlink:href="#MicrosoftYaHei-492" transform="translate(648.203125 0)"/>
      <use xlink:href="#MicrosoftYaHei-55a" transform="translate(748.203125 0)"/>
      <use xlink:href="#MicrosoftYaHei-547" transform="translate(848.203125 0)"/>
      <use xlink:href="#MicrosoftYaHei-630" transform="translate(948.203125 0)"/>
      <use xlink:href="#MicrosoftYaHei-f" transform="translate(1048.203125 0)"/>
     </g>
    </g>
    <g id="line2d_15">
     <path d="M 537.321098 60.154903 
L 546.821098 60.154903 
L 556.321098 60.154903 
" style="fill: none; stroke: #6c3483; stroke-width: 2.6; stroke-linecap: square"/>
    </g>
    <g id="text_14">
     <!-- 大脑 —— 第三层施法 (Ξ 振子) -->
     <g transform="translate(563.921098 63.479903) scale(0.095 -0.095)">
      <defs>
       <path id="MicrosoftYaHei-5dd" d="M 88 -341 
Q 2666 806 2869 3103 
L 200 3103 
L 200 3591 
L 2891 3591 
Q 2906 4431 2906 5284 
L 3450 5284 
Q 3450 4444 3434 3591 
L 6206 3591 
L 6206 3103 
L 3425 3103 
Q 3869 606 6338 -191 
Q 6019 -497 5863 -697 
Q 3828 122 3203 2219 
Q 2716 322 475 -822 
Q 350 -653 88 -341 
z
" transform="scale(0.015625)"/>
       <path id="MicrosoftYaHei-a0b" d="M 506 4941 
L 2188 4941 
L 2188 -128 
Q 2181 -741 1588 -734 
Q 1194 -734 1013 -716 
Q 994 -534 938 -247 
Q 1256 -291 1488 -291 
Q 1744 -291 1744 -3 
L 1744 1366 
L 950 1366 
Q 950 -134 431 -822 
Q 244 -609 75 -472 
Q 506 166 506 1197 
L 506 4941 
z
M 2725 3278 
L 3175 3278 
L 3175 -66 
L 5563 -66 
L 5563 3272 
L 6013 3272 
L 6013 -803 
L 5563 -803 
L 5563 -516 
L 2725 -516 
L 2725 3278 
z
M 3275 3553 
L 3631 3766 
Q 4006 3109 4375 2453 
Q 4691 3097 4963 3797 
L 5369 3634 
Q 5022 2772 4625 2000 
Q 5028 1275 5425 547 
L 5031 334 
Q 4753 875 4388 1550 
Q 4025 897 3625 316 
Q 3400 459 3244 541 
Q 3728 1225 4141 2000 
Q 3750 2713 3275 3553 
z
M 2500 4391 
L 4309 4391 
Q 4113 4784 3913 5103 
L 4344 5316 
Q 4575 4953 4769 4603 
L 4353 4391 
L 6319 4391 
L 6319 3941 
L 2500 3941 
L 2500 4391 
z
M 950 1791 
L 1744 1791 
L 1744 2941 
L 950 2941 
L 950 1791 
z
M 1744 4503 
L 950 4503 
L 950 3366 
L 1744 3366 
L 1744 4503 
z
" transform="scale(0.015625)"/>
       <path id="MicrosoftYaHei-20d" d="M 6913 1681 
L 0 1681 
L 0 2153 
L 6913 2153 
L 6913 1681 
z
" transform="scale(0.015625)"/>
       <path id="MicrosoftYaHei-986" d="M 4006 5347 
L 4544 5347 
Q 4406 5038 4256 4759 
L 6225 4759 
L 6225 4372 
L 4650 4372 
Q 4922 4106 5163 3822 
L 4806 3553 
L 5613 3553 
L 5613 1884 
L 5131 1884 
L 5131 2109 
L 3431 2109 
L 3431 1484 
L 5944 1484 
Q 5919 922 5881 416 
Q 5838 -372 5081 -372 
Q 4700 -372 4138 -366 
Q 4094 -134 4031 128 
Q 4644 97 4988 97 
Q 5356 97 5388 466 
Q 5419 759 5431 1059 
L 3431 1059 
L 3431 -853 
L 2931 -853 
L 2931 909 
Q 2059 -147 306 -703 
Q 194 -522 44 -303 
Q 1566 144 2463 1059 
L 563 1059 
L 563 1484 
L 863 2534 
L 2931 2534 
L 2931 3128 
L 744 3128 
L 744 3553 
L 1972 3553 
Q 1713 3891 1456 4184 
L 1706 4372 
L 1247 4372 
Q 875 3875 388 3459 
Q 263 3609 75 3797 
Q 869 4441 1294 5347 
L 1831 5347 
Q 1688 5041 1513 4759 
L 3325 4759 
L 3325 4372 
L 1825 4372 
Q 2075 4119 2331 3828 
L 1981 3553 
L 4794 3553 
Q 4541 3894 4294 4178 
L 4559 4372 
L 4028 4372 
Q 3784 3984 3506 3672 
Q 3369 3809 3125 3978 
Q 3650 4516 4006 5347 
z
M 1075 1484 
L 2931 1484 
L 2931 2109 
L 1250 2109 
L 1075 1484 
z
M 5131 3128 
L 3431 3128 
L 3431 2534 
L 5131 2534 
L 5131 3128 
z
" transform="scale(0.015625)"/>
       <path id="MicrosoftYaHei-643" d="M 394 -847 
Q 213 -603 50 -409 
Q 825 678 825 2709 
L 825 5022 
L 5963 5022 
L 5963 3053 
L 5488 3053 
L 5488 3284 
L 1300 3284 
L 1300 2609 
Q 1300 497 394 -847 
z
M 4294 559 
L 4631 853 
Q 5556 53 6100 -528 
L 5713 -872 
Q 5522 -656 5328 -453 
Q 3425 -463 2219 -553 
Q 2044 -566 1775 -634 
L 1563 -172 
Q 1938 -28 2144 147 
Q 2500 497 2906 1034 
L 1375 1034 
L 1375 1472 
L 6288 1472 
L 6288 1034 
L 3550 1034 
Q 3022 388 2569 -66 
Q 3741 -59 4922 -34 
Q 4613 272 4294 559 
z
M 1300 4584 
L 1300 3722 
L 5488 3722 
L 5488 4584 
L 1300 4584 
z
M 1819 2603 
L 5731 2603 
L 5731 2166 
L 1819 2166 
L 1819 2603 
z
" transform="scale(0.015625)"/>
       <path id="MicrosoftYaHei-791" d="M 4113 3897 
L 4556 3897 
L 4556 2850 
L 5919 3122 
Q 5888 2334 5850 1659 
Q 5813 797 5175 797 
Q 4956 797 4713 803 
Q 4675 1034 4619 1278 
Q 4900 1247 5081 1247 
Q 5381 1247 5400 1647 
Q 5431 2097 5444 2584 
L 4556 2406 
L 4556 328 
L 4113 328 
L 4113 2319 
L 3375 2175 
L 3375 297 
Q 3375 -166 3856 -166 
L 5225 -166 
Q 5719 -166 5781 247 
Q 5819 466 5856 909 
Q 6081 816 6313 734 
Q 6250 284 6194 34 
Q 6063 -628 5281 -628 
L 3756 -628 
Q 2931 -628 2931 228 
L 2931 2088 
L 2500 2003 
L 2425 2422 
L 2931 2522 
L 2931 3334 
L 3375 3334 
L 3375 2613 
L 4113 2759 
L 4113 3897 
z
M 194 4259 
L 2513 4259 
L 2513 3828 
L 1203 3828 
Q 1197 3378 1181 2897 
L 2306 2897 
Q 2269 1434 2213 216 
Q 2175 -616 1481 -616 
Q 1263 -616 938 -609 
Q 900 -403 844 -134 
Q 1200 -172 1388 -172 
Q 1738 -172 1763 291 
Q 1813 1328 1838 2466 
L 1169 2466 
Q 1175 228 375 -772 
Q 250 -603 56 -397 
Q 650 372 706 2091 
Q 741 3009 753 3828 
L 194 3828 
L 194 4259 
z
M 2331 3397 
Q 2913 4222 3294 5341 
L 3750 5184 
Q 3613 4834 3472 4516 
L 6219 4516 
L 6219 4084 
L 3272 4084 
Q 3025 3581 2763 3166 
Q 2513 3309 2331 3397 
z
M 938 5109 
L 1313 5347 
Q 1613 4991 1875 4553 
L 1475 4297 
Q 1163 4803 938 5109 
z
" transform="scale(0.015625)"/>
       <path id="MicrosoftYaHei-863" d="M 4888 1328 
Q 5488 509 6181 -553 
Q 5931 -697 5694 -841 
Q 5519 -550 5350 -278 
Q 3300 -447 2138 -559 
L 1906 -16 
Q 2300 159 2675 716 
Q 3088 1303 3441 1953 
L 1800 1953 
L 1800 2403 
L 3763 2403 
L 3763 3728 
L 2106 3728 
L 2106 4178 
L 3763 4178 
L 3763 5322 
L 4263 5322 
L 4263 4178 
L 5994 4178 
L 5994 3728 
L 4263 3728 
L 4263 2403 
L 6288 2403 
L 6288 1953 
L 4069 1953 
Q 3372 806 2706 -28 
Q 3897 28 5088 141 
Q 4766 644 4475 1066 
L 4888 1328 
z
M 1013 1828 
Q 1244 1728 1506 1622 
Q 1063 291 731 -784 
L 194 -603 
Q 606 497 1013 1828 
z
M 400 3622 
Q 869 3291 1500 2772 
Q 1269 2509 1138 2366 
Q 431 2997 88 3259 
L 400 3622 
z
M 644 5241 
Q 1144 4841 1719 4328 
Q 1506 4109 1350 3941 
Q 775 4509 325 4897 
L 644 5241 
z
" transform="scale(0.015625)"/>
       <path id="MicrosoftYaHei-37a6" d="M 5813 1934 
L 6138 1572 
Q 5619 1197 5038 816 
Q 5531 59 6331 -284 
Q 6213 -428 5981 -728 
Q 4481 103 4044 2128 
L 3606 2128 
L 3606 -97 
Q 4000 84 4519 353 
Q 4538 141 4594 -103 
Q 4094 -347 3744 -528 
Q 3463 -678 3263 -834 
L 2950 -422 
Q 3169 -197 3156 128 
L 3156 2128 
L 2725 2128 
Q 2669 259 1913 -822 
Q 1738 -616 1544 -459 
Q 2256 547 2256 2497 
L 2256 4909 
L 6113 4909 
L 6113 4484 
L 2731 4484 
L 2731 2553 
L 6175 2553 
L 6175 2128 
L 4488 2128 
Q 4619 1603 4831 1178 
Q 5350 1559 5813 1934 
z
M 88 1972 
Q 469 2084 875 2216 
L 875 3672 
L 144 3672 
L 144 4097 
L 875 4097 
L 875 5259 
L 1350 5259 
L 1350 4097 
L 2013 4097 
L 2013 3672 
L 1350 3672 
L 1350 2378 
Q 1663 2497 2000 2622 
Q 2000 2322 2013 2134 
Q 1688 2016 1350 1897 
L 1350 -109 
Q 1350 -766 794 -784 
Q 513 -797 156 -791 
Q 119 -528 75 -272 
Q 419 -309 638 -309 
Q 875 -309 875 -72 
L 875 1722 
Q 519 1591 156 1453 
L 88 1972 
z
M 3088 3716 
L 5881 3716 
L 5881 3291 
L 3088 3291 
L 3088 3716 
z
" transform="scale(0.015625)"/>
       <path id="MicrosoftYaHei-5ff" d="M 125 2497 
L 3031 2497 
L 3031 3184 
L 4825 4491 
L 781 4491 
L 781 4959 
L 5656 4959 
L 5656 4472 
L 3563 2941 
L 3563 2497 
L 6300 2497 
L 6300 2028 
L 3563 2028 
L 3563 59 
Q 3563 -778 2688 -778 
Q 2400 -778 1700 -766 
Q 1675 -516 1625 -197 
Q 2081 -253 2588 -259 
Q 3031 -259 3031 191 
L 3031 2028 
L 125 2028 
L 125 2497 
z
" transform="scale(0.015625)"/>
      </defs>
      <use xlink:href="#MicrosoftYaHei-5dd"/>
      <use xlink:href="#MicrosoftYaHei-a0b" transform="translate(100 0)"/>
      <use xlink:href="#MicrosoftYaHei-3" transform="translate(200 0)"/>
      <use xlink:href="#MicrosoftYaHei-20d" transform="translate(229.59375 0)"/>
      <use xlink:href="#MicrosoftYaHei-20d" transform="translate(337.609375 0)"/>
      <use xlink:href="#MicrosoftYaHei-3" transform="translate(445.625 0)"/>
      <use xlink:href="#MicrosoftYaHei-986" transform="translate(475.21875 0)"/>
      <use xlink:href="#MicrosoftYaHei-406" transform="translate(575.21875 0)"/>
      <use xlink:href="#MicrosoftYaHei-643" transform="translate(675.21875 0)"/>
      <use xlink:href="#MicrosoftYaHei-791" transform="translate(775.21875 0)"/>
      <use xlink:href="#MicrosoftYaHei-863" transform="translate(875.21875 0)"/>
      <use xlink:href="#MicrosoftYaHei-3" transform="translate(975.21875 0)"/>
      <use xlink:href="#MicrosoftYaHei-e" transform="translate(1004.8125 0)"/>
      <use xlink:href="#MicrosoftYaHei-149" transform="translate(1038.21875 0)"/>
      <use xlink:href="#MicrosoftYaHei-3" transform="translate(1093.828125 0)"/>
      <use xlink:href="#MicrosoftYaHei-37a6" transform="translate(1123.421875 0)"/>
      <use xlink:href="#MicrosoftYaHei-5ff" transform="translate(1223.421875 0)"/>
      <use xlink:href="#MicrosoftYaHei-f" transform="translate(1323.421875 0)"/>
     </g>
    </g>
   </g>
  </g>
 </g>
 <defs>
  <clipPath id="pe8613d5397">
   <path d="M 613.56367 379.679576 
C 613.56367 341.244272 605.992753 303.182702 591.284199 267.67311 
C 576.575644 232.163519 555.015497 199.896478 527.837632 172.718614 
C 500.659768 145.540749 468.392727 123.980602 432.883136 109.272048 
C 397.373544 94.563493 359.311974 86.992576 320.87667 86.992576 
C 282.441365 86.992576 244.379795 94.563493 208.870204 109.272048 
C 173.360613 123.980602 141.093572 145.540749 113.915707 172.718614 
C 86.737843 199.896478 65.177695 232.163519 50.469141 267.67311 
C 35.760587 303.182702 28.18967 341.244272 28.18967 379.679576 
C 28.18967 418.114881 35.760587 456.176451 50.469141 491.686042 
C 65.177695 527.195633 86.737843 559.462674 113.915707 586.640539 
C 141.093572 613.818403 173.360613 635.378551 208.870204 650.087105 
C 244.379795 664.795659 282.441365 672.366576 320.87667 672.366576 
C 359.311974 672.366576 397.373544 664.795659 432.883136 650.087105 
C 468.392727 635.378551 500.659768 613.818403 527.837632 586.640539 
C 555.015497 559.462674 576.575644 527.195633 591.284199 491.686042 
C 605.992753 456.176451 613.56367 418.114881 613.56367 379.679576 
M 320.87667 379.679576 
C 320.87667 379.679576 320.87667 379.679576 320.87667 379.679576 
C 320.87667 379.679576 320.87667 379.679576 320.87667 379.679576 
C 320.87667 379.679576 320.87667 379.679576 320.87667 379.679576 
C 320.87667 379.679576 320.87667 379.679576 320.87667 379.679576 
C 320.87667 379.679576 320.87667 379.679576 320.87667 379.679576 
C 320.87667 379.679576 320.87667 379.679576 320.87667 379.679576 
C 320.87667 379.679576 320.87667 379.679576 320.87667 379.679576 
C 320.87667 379.679576 320.87667 379.679576 320.87667 379.679576 
C 320.87667 379.679576 320.87667 379.679576 320.87667 379.679576 
C 320.87667 379.679576 320.87667 379.679576 320.87667 379.679576 
C 320.87667 379.679576 320.87667 379.679576 320.87667 379.679576 
C 320.87667 379.679576 320.87667 379.679576 320.87667 379.679576 
C 320.87667 379.679576 320.87667 379.679576 320.87667 379.679576 
C 320.87667 379.679576 320.87667 379.679576 320.87667 379.679576 
C 320.87667 379.679576 320.87667 379.679576 320.87667 379.679576 
C 320.87667 379.679576 320.87667 379.679576 320.87667 379.679576 
z
"/>
  </clipPath>
 </defs>
</svg>
