<?xml version="1.0" encoding="utf-8" standalone="no"?>
<!DOCTYPE svg PUBLIC "-//W3C//DTD SVG 1.1//EN"
  "http://www.w3.org/Graphics/SVG/1.1/DTD/svg11.dtd">
<svg xmlns:xlink="http://www.w3.org/1999/xlink" width="928.919219pt" height="461.354062pt" viewBox="0 0 928.919219 461.354062" xmlns="http://www.w3.org/2000/svg" version="1.1">
 <metadata>
  <rdf:RDF xmlns:dc="http://purl.org/dc/elements/1.1/" xmlns:cc="http://creativecommons.org/ns#" xmlns:rdf="http://www.w3.org/1999/02/22-rdf-syntax-ns#">
   <cc:Work>
    <dc:type rdf:resource="http://purl.org/dc/dcmitype/StillImage"/>
    <dc:date>2026-06-18T04:22:10.383211</dc:date>
    <dc:format>image/svg+xml</dc:format>
    <dc:creator>
     <cc:Agent>
      <dc:title>Matplotlib v3.11.0, https://matplotlib.org/</dc:title>
     </cc:Agent>
    </dc:creator>
   </cc:Work>
  </rdf:RDF>
 </metadata>
 <defs>
  <style type="text/css">*{stroke-linejoin: round; stroke-linecap: butt}</style>
 </defs>
 <g id="figure_1">
  <g id="patch_1">
   <path d="M -0 461.354062 
L 928.919219 461.354062 
L 928.919219 0 
L -0 0 
z
" style="fill: #ffffff"/>
  </g>
  <g id="axes_1">
   <g id="patch_2">
    <path d="M 41.948848 423.005625 
L 881.073652 423.005625 
L 881.073652 24.9775 
L 41.948848 24.9775 
z
" style="fill: #ffffff"/>
   </g>
   <g id="patch_3">
    <path d="M 80.090884 423.005625 
L 152.251494 423.005625 
L 152.251494 323.498594 
L 80.090884 323.498594 
z
" clip-path="url(#peacc199554)" style="fill: #58d68d; stroke: #1e8449; stroke-width: 1.5; stroke-linejoin: miter"/>
   </g>
   <g id="patch_4">
    <path d="M 286.264055 423.005625 
L 358.424665 423.005625 
L 358.424665 190.822552 
L 286.264055 190.822552 
z
" clip-path="url(#peacc199554)" style="fill: #58d68d; stroke: #1e8449; stroke-width: 1.5; stroke-linejoin: miter"/>
   </g>
   <g id="patch_5">
    <path d="M 492.437226 423.005625 
L 564.597835 423.005625 
L 564.597835 257.160573 
L 492.437226 257.160573 
z
" clip-path="url(#peacc199554)" style="fill: #58d68d; stroke: #1e8449; stroke-width: 1.5; stroke-linejoin: miter"/>
   </g>
   <g id="patch_6">
    <path d="M 698.610396 423.005625 
L 770.771006 423.005625 
L 770.771006 124.484531 
L 698.610396 124.484531 
z
" clip-path="url(#peacc199554)" style="fill: #58d68d; stroke: #1e8449; stroke-width: 1.5; stroke-linejoin: miter"/>
   </g>
   <g id="matplotlib.axis_1">
    <g id="xtick_1">
     <g id="line2d_1">
      <defs>
       <path id="m68d6895b0f" d="M 0 0 
L 0 3.5 
" style="stroke: #000000; stroke-width: 0.8"/>
      </defs>
      <g>
       <use xlink:href="#m68d6895b0f" x="152.251494" y="423.005625" style="stroke: #000000; stroke-width: 0.8"/>
      </g>
     </g>
     <g id="text_1">
      <!-- 原材料 -->
      <g transform="translate(135.751494 439.134014) scale(0.11 -0.11)">
       <defs>
        <path id="MicrosoftYaHei-53d" d="M 1950 3853 
L 3081 3853 
Q 3200 4153 3306 4472 
L 1256 4472 
L 1256 2772 
Q 1256 1322 1088 634 
Q 919 -103 394 -866 
Q 238 -653 44 -434 
Q 475 209 613 834 
Q 756 1428 756 2659 
L 756 4928 
L 6219 4928 
L 6219 4472 
L 3856 4472 
Q 3716 4134 3584 3853 
L 5719 3853 
L 5719 1291 
L 5250 1291 
L 5250 1416 
L 4094 1416 
L 4094 16 
Q 4094 -772 3381 -766 
Q 3163 -766 2594 -753 
Q 2569 -516 2513 -209 
Q 3000 -272 3281 -272 
Q 3594 -272 3594 91 
L 3594 1416 
L 2419 1416 
L 2419 1291 
L 1950 1291 
L 1950 3853 
z
M 2419 1834 
L 5250 1834 
L 5250 2434 
L 2419 2434 
L 2419 1834 
z
M 5250 3434 
L 2419 3434 
L 2419 2841 
L 5250 2841 
L 5250 3434 
z
M 2488 1172 
L 2919 891 
Q 2313 -9 1613 -703 
Q 1450 -566 1206 -397 
Q 1838 184 2488 1172 
z
M 4925 1159 
Q 5738 391 6313 -266 
L 5894 -641 
Q 5294 122 4556 859 
L 4925 1159 
z
" transform="scale(0.015625)"/>
        <path id="MicrosoftYaHei-7d5" d="M 2863 3997 
L 4925 3997 
L 4925 5278 
L 5419 5278 
L 5419 3997 
L 6306 3997 
L 6306 3541 
L 5419 3541 
L 5419 166 
Q 5419 -716 4600 -716 
Q 4244 -716 3625 -709 
Q 3594 -478 3525 -159 
Q 4144 -203 4450 -203 
Q 4925 -203 4925 191 
L 4925 3003 
Q 4138 1297 2588 59 
Q 2438 241 2219 478 
Q 3856 1716 4681 3541 
L 2863 3541 
L 2863 3997 
z
M 88 1309 
Q 819 2341 1138 3572 
L 188 3572 
L 188 4016 
L 1219 4016 
L 1219 5278 
L 1700 5278 
L 1700 4016 
L 2606 4016 
L 2606 3572 
L 1700 3572 
L 1700 2728 
L 1956 2959 
Q 2481 2472 2938 2003 
L 2563 1659 
Q 2144 2153 1700 2597 
L 1700 -834 
L 1219 -834 
L 1219 2578 
Q 838 1484 331 759 
Q 219 1028 88 1309 
z
" transform="scale(0.015625)"/>
        <path id="MicrosoftYaHei-789" d="M 88 541 
Q 756 1397 1113 2472 
L 150 2472 
L 150 2897 
L 1194 2897 
L 1194 5297 
L 1656 5297 
L 1656 2897 
L 2675 2897 
L 2675 2472 
L 1656 2472 
L 1656 1853 
L 1938 2078 
Q 2363 1628 2706 1216 
L 2350 928 
Q 2025 1372 1656 1778 
L 1656 -828 
L 1194 -828 
L 1194 1691 
Q 800 641 281 41 
Q 200 297 88 541 
z
M 2850 1353 
L 4850 1597 
L 4850 5297 
L 5331 5297 
L 5331 1653 
L 6281 1772 
L 6319 1322 
L 5331 1197 
L 5331 -828 
L 4850 -828 
L 4850 1141 
L 2913 903 
L 2850 1353 
z
M 2981 2778 
L 3250 3109 
Q 3844 2716 4356 2309 
L 4050 1934 
Q 3569 2347 2981 2778 
z
M 1806 3347 
Q 2094 4053 2288 4653 
L 2731 4516 
Q 2500 3897 2194 3184 
L 1806 3347 
z
M 3119 4366 
L 3406 4697 
Q 3944 4309 4463 3859 
L 4150 3491 
Q 3744 3884 3119 4366 
z
M 144 4516 
L 519 4666 
Q 750 4128 1025 3416 
L 594 3222 
Q 313 4066 144 4516 
z
" transform="scale(0.015625)"/>
       </defs>
       <use xlink:href="#MicrosoftYaHei-53d"/>
       <use xlink:href="#MicrosoftYaHei-7d5" transform="translate(100 0)"/>
       <use xlink:href="#MicrosoftYaHei-789" transform="translate(200 0)"/>
      </g>
      <!-- 供应 -->
      <g transform="translate(141.251494 451.213389) scale(0.11 -0.11)">
       <defs>
        <path id="MicrosoftYaHei-488" d="M 4669 5259 
L 5181 5259 
L 5181 3884 
L 6075 3884 
L 6075 3434 
L 5181 3434 
L 5181 1709 
L 6294 1709 
L 6294 1259 
L 1750 1259 
L 1750 1709 
L 2806 1709 
L 2806 3434 
L 2000 3434 
L 2000 3884 
L 2806 3884 
L 2806 5253 
L 3319 5253 
L 3319 3884 
L 4669 3884 
L 4669 5259 
z
M 25 2309 
Q 1006 3628 1569 5316 
L 2069 5134 
Q 1747 4300 1400 3603 
L 1400 -841 
L 900 -841 
L 900 2694 
Q 578 2169 238 1747 
Q 150 2003 25 2309 
z
M 3319 1709 
L 4669 1709 
L 4669 3434 
L 3319 3434 
L 3319 1709 
z
M 4369 766 
L 4738 1078 
Q 5725 166 6281 -447 
L 5869 -828 
Q 5231 -72 4369 766 
z
M 3625 753 
Q 2888 -147 2088 -853 
Q 1919 -659 1706 -491 
Q 2500 109 3194 1053 
L 3625 753 
z
" transform="scale(0.015625)"/>
        <path id="MicrosoftYaHei-681" d="M 2969 5134 
L 3425 5378 
Q 3694 5034 3938 4634 
L 3634 4459 
L 6169 4459 
L 6169 3984 
L 1300 3984 
L 1300 2453 
Q 1300 241 388 -853 
Q 238 -647 25 -422 
Q 775 416 775 2441 
L 775 4459 
L 3419 4459 
Q 3216 4803 2969 5134 
z
M 1263 -9 
L 4153 -9 
Q 4641 1238 5188 3403 
L 5731 3253 
Q 5147 1191 4694 -9 
L 6238 -9 
L 6238 -484 
L 1263 -484 
L 1263 -9 
z
M 1600 3059 
L 2075 3222 
Q 2463 2084 2825 672 
L 2294 509 
Q 2006 1747 1600 3059 
z
M 3106 3372 
L 3588 3509 
Q 3913 2384 4163 991 
L 3613 847 
Q 3431 2084 3106 3372 
z
" transform="scale(0.015625)"/>
       </defs>
       <use xlink:href="#MicrosoftYaHei-488"/>
       <use xlink:href="#MicrosoftYaHei-681" transform="translate(100 0)"/>
      </g>
     </g>
    </g>
    <g id="xtick_2">
     <g id="line2d_2">
      <g>
       <use xlink:href="#m68d6895b0f" x="358.424665" y="423.005625" style="stroke: #000000; stroke-width: 0.8"/>
      </g>
     </g>
     <g id="text_2">
      <!-- 振子 -->
      <g transform="translate(347.424665 439.068701) scale(0.11 -0.11)">
       <defs>
        <path id="MicrosoftYaHei-37a6" d="M 5813 1934 
L 6138 1572 
Q 5619 1197 5038 816 
Q 5531 59 6331 -284 
Q 6213 -428 5981 -728 
Q 4481 103 4044 2128 
L 3606 2128 
L 3606 -97 
Q 4000 84 4519 353 
Q 4538 141 4594 -103 
Q 4094 -347 3744 -528 
Q 3463 -678 3263 -834 
L 2950 -422 
Q 3169 -197 3156 128 
L 3156 2128 
L 2725 2128 
Q 2669 259 1913 -822 
Q 1738 -616 1544 -459 
Q 2256 547 2256 2497 
L 2256 4909 
L 6113 4909 
L 6113 4484 
L 2731 4484 
L 2731 2553 
L 6175 2553 
L 6175 2128 
L 4488 2128 
Q 4619 1603 4831 1178 
Q 5350 1559 5813 1934 
z
M 88 1972 
Q 469 2084 875 2216 
L 875 3672 
L 144 3672 
L 144 4097 
L 875 4097 
L 875 5259 
L 1350 5259 
L 1350 4097 
L 2013 4097 
L 2013 3672 
L 1350 3672 
L 1350 2378 
Q 1663 2497 2000 2622 
Q 2000 2322 2013 2134 
Q 1688 2016 1350 1897 
L 1350 -109 
Q 1350 -766 794 -784 
Q 513 -797 156 -791 
Q 119 -528 75 -272 
Q 419 -309 638 -309 
Q 875 -309 875 -72 
L 875 1722 
Q 519 1591 156 1453 
L 88 1972 
z
M 3088 3716 
L 5881 3716 
L 5881 3291 
L 3088 3291 
L 3088 3716 
z
" transform="scale(0.015625)"/>
        <path id="MicrosoftYaHei-5ff" d="M 125 2497 
L 3031 2497 
L 3031 3184 
L 4825 4491 
L 781 4491 
L 781 4959 
L 5656 4959 
L 5656 4472 
L 3563 2941 
L 3563 2497 
L 6300 2497 
L 6300 2028 
L 3563 2028 
L 3563 59 
Q 3563 -778 2688 -778 
Q 2400 -778 1700 -766 
Q 1675 -516 1625 -197 
Q 2081 -253 2588 -259 
Q 3031 -259 3031 191 
L 3031 2028 
L 125 2028 
L 125 2497 
z
" transform="scale(0.015625)"/>
       </defs>
       <use xlink:href="#MicrosoftYaHei-37a6"/>
       <use xlink:href="#MicrosoftYaHei-5ff" transform="translate(100 0)"/>
      </g>
      <!-- 制造 -->
      <g transform="translate(347.424665 451.041514) scale(0.11 -0.11)">
       <defs>
        <path id="MicrosoftYaHei-4f2" d="M 1906 5266 
L 2394 5266 
L 2394 4309 
L 3750 4309 
L 3750 3872 
L 2394 3872 
L 2394 3034 
L 4025 3034 
L 4025 2597 
L 2394 2597 
L 2394 1897 
L 3763 1897 
L 3763 409 
Q 3763 -266 3150 -272 
Q 2956 -278 2631 -272 
Q 2600 -72 2538 178 
Q 2844 159 3038 159 
Q 3300 159 3300 472 
L 3300 1472 
L 2394 1472 
L 2394 -847 
L 1906 -847 
L 1906 1472 
L 1044 1472 
L 1044 -378 
L 581 -378 
L 581 1897 
L 1906 1897 
L 1906 2597 
L 113 2597 
L 113 3034 
L 1906 3034 
L 1906 3872 
L 981 3872 
Q 822 3513 619 3191 
Q 413 3309 194 3428 
Q 688 4172 881 5041 
L 1344 4922 
Q 1263 4603 1159 4309 
L 1906 4309 
L 1906 5266 
z
M 5469 5272 
L 5969 5272 
L 5969 122 
Q 5969 -722 5225 -722 
Q 4981 -722 4388 -716 
Q 4350 -472 4288 -172 
Q 4813 -222 5075 -222 
Q 5469 -222 5469 222 
L 5469 5272 
z
M 4750 822 
L 4269 822 
L 4269 4672 
L 4750 4672 
L 4750 822 
z
" transform="scale(0.015625)"/>
        <path id="MicrosoftYaHei-b2d" d="M 2425 2191 
L 5606 2191 
L 5606 184 
L 5125 184 
L 5125 441 
L 2906 441 
L 2906 184 
L 2425 184 
L 2425 2191 
z
M 1875 3153 
L 3856 3153 
L 3856 4003 
L 2794 4003 
Q 2625 3603 2431 3272 
Q 2269 3378 2000 3497 
Q 2456 4234 2681 5141 
L 3156 5034 
Q 3063 4716 2959 4428 
L 3856 4428 
L 3856 5316 
L 4344 5316 
L 4344 4428 
L 5944 4428 
L 5944 4003 
L 4344 4003 
L 4344 3153 
L 6250 3153 
L 6250 2728 
L 1875 2728 
L 1875 3153 
z
M 2663 -197 
L 4219 -222 
L 6300 -172 
Q 6231 -378 6125 -666 
L 4056 -678 
L 2569 -641 
Q 1506 -628 1081 91 
Q 825 -147 331 -747 
L 75 -228 
Q 628 306 875 538 
L 875 2641 
L 131 2641 
L 131 3103 
L 1356 3103 
L 1356 431 
Q 1741 -191 2663 -197 
z
M 5125 1766 
L 2906 1766 
L 2906 866 
L 5125 866 
L 5125 1766 
z
M 856 5203 
Q 1175 4816 1731 4022 
L 1288 3709 
Q 781 4503 456 4934 
L 856 5203 
z
" transform="scale(0.015625)"/>
       </defs>
       <use xlink:href="#MicrosoftYaHei-4f2"/>
       <use xlink:href="#MicrosoftYaHei-b2d" transform="translate(100 0)"/>
      </g>
     </g>
    </g>
    <g id="xtick_3">
     <g id="line2d_3">
      <g>
       <use xlink:href="#m68d6895b0f" x="564.597835" y="423.005625" style="stroke: #000000; stroke-width: 0.8"/>
      </g>
     </g>
     <g id="text_3">
      <!-- 设备 -->
      <g transform="translate(553.597835 439.316201) scale(0.11 -0.11)">
       <defs>
        <path id="MicrosoftYaHei-a97" d="M 2231 2116 
L 2231 2547 
L 5638 2547 
L 5638 2116 
Q 5144 1031 4419 416 
Q 5216 -109 6338 -316 
Q 6119 -597 5956 -822 
Q 4841 -500 4013 113 
Q 3163 -463 1863 -872 
Q 1700 -641 1538 -422 
Q 2778 -88 3613 431 
Q 2888 1131 2559 2116 
L 2231 2116 
z
M 4856 4553 
L 3294 4553 
L 3294 4372 
Q 3294 3222 2244 2659 
Q 2075 2866 1881 3047 
Q 2806 3522 2806 4359 
L 2806 5016 
L 5344 5016 
L 5344 3741 
Q 5344 3459 5631 3459 
L 6319 3459 
Q 6288 3203 6269 2997 
L 5444 2997 
Q 4856 2997 4856 3647 
L 4856 4553 
z
M 2250 1028 
Q 2263 734 2294 472 
Q 1438 -84 1019 -422 
L 719 -9 
Q 931 197 931 553 
L 931 2778 
L 138 2778 
L 138 3228 
L 1406 3228 
L 1406 453 
Q 1813 722 2250 1028 
z
M 988 5128 
Q 1469 4653 1906 4166 
L 1469 3803 
Q 1013 4391 613 4803 
L 988 5128 
z
M 3031 2116 
Q 3347 1319 4022 713 
Q 4684 1225 5081 2116 
L 3031 2116 
z
" transform="scale(0.015625)"/>
        <path id="MicrosoftYaHei-5d5" d="M 975 2097 
L 5425 2097 
L 5425 -816 
L 4975 -816 
L 4975 -541 
L 1425 -541 
L 1425 -816 
L 975 -816 
L 975 2097 
z
M 1869 5403 
L 2338 5203 
Q 2200 4975 2041 4753 
L 5425 4753 
L 5425 4334 
Q 4847 3638 3869 3119 
Q 4903 2772 6338 2697 
Q 6131 2403 5988 2172 
Q 4372 2366 3278 2838 
Q 2038 2306 281 2003 
Q 169 2222 19 2453 
Q 1569 2678 2719 3119 
Q 1981 3547 1559 4138 
Q 1094 3603 506 3109 
Q 338 3297 163 3453 
Q 1281 4353 1869 5403 
z
M 4756 4341 
L 1953 4341 
Q 2456 3741 3275 3353 
Q 4156 3772 4756 4341 
z
M 1425 953 
L 2975 953 
L 2975 1722 
L 1425 1722 
L 1425 953 
z
M 4975 1722 
L 3425 1722 
L 3425 953 
L 4975 953 
L 4975 1722 
z
M 3425 -166 
L 4975 -166 
L 4975 597 
L 3425 597 
L 3425 -166 
z
M 1425 -166 
L 2975 -166 
L 2975 597 
L 1425 597 
L 1425 -166 
z
" transform="scale(0.015625)"/>
       </defs>
       <use xlink:href="#MicrosoftYaHei-a97"/>
       <use xlink:href="#MicrosoftYaHei-5d5" transform="translate(100 0)"/>
      </g>
      <!-- 组装 -->
      <g transform="translate(553.597835 451.342295) scale(0.11 -0.11)">
       <defs>
        <path id="MicrosoftYaHei-9c1" d="M 1994 -516 
L 1994 -66 
L 2738 -66 
L 2738 4941 
L 5763 4941 
L 5763 -66 
L 6313 -66 
L 6313 -516 
L 1994 -516 
z
M 969 1703 
Q 1606 1784 2300 1872 
Q 2275 1603 2256 1447 
Q 1331 1328 400 1191 
L 300 1647 
Q 697 1956 1284 2941 
Q 597 2897 256 2866 
L 131 3278 
Q 619 3866 1200 5291 
L 1706 5116 
Q 1163 4091 681 3316 
Q 1197 3319 1506 3328 
Q 1756 3775 2038 4334 
L 2519 4122 
Q 1806 2859 969 1703 
z
M 5288 4491 
L 3213 4491 
L 3213 3259 
L 5288 3259 
L 5288 4491 
z
M 3213 -66 
L 5288 -66 
L 5288 1166 
L 3213 1166 
L 3213 -66 
z
M 3213 1597 
L 5288 1597 
L 5288 2828 
L 3213 2828 
L 3213 1597 
z
M 181 291 
Q 1088 459 2356 741 
Q 2331 453 2331 266 
Q 1031 -3 319 -184 
L 181 291 
z
" transform="scale(0.015625)"/>
        <path id="MicrosoftYaHei-a78" d="M 3700 241 
Q 3694 -34 3700 -253 
Q 2869 -491 2375 -666 
Q 2188 -734 1925 -872 
L 1650 -491 
Q 1800 -366 1800 -59 
L 1800 425 
Q 1163 53 363 -247 
Q 244 -22 81 197 
Q 1750 734 2716 1634 
L 163 1634 
L 163 2072 
L 3091 2072 
Q 2941 2313 2794 2522 
L 3194 2766 
Q 3406 2453 3588 2191 
L 3388 2072 
L 6275 2072 
L 6275 1634 
L 3428 1634 
Q 3688 1125 4113 756 
Q 4809 1091 5488 1466 
L 5750 1009 
Q 5128 763 4484 481 
Q 5213 19 6306 -141 
Q 6119 -391 5963 -609 
Q 3938 -213 3069 1381 
Q 2713 1028 2263 716 
L 2263 -197 
Q 3006 9 3700 241 
z
M 2825 3228 
L 4181 3228 
L 4181 4059 
L 2606 4059 
L 2606 4491 
L 4181 4491 
L 4181 5334 
L 4650 5334 
L 4650 4491 
L 6263 4491 
L 6263 4059 
L 4650 4059 
L 4650 3228 
L 6050 3228 
L 6050 2797 
L 2825 2797 
L 2825 3228 
z
M 1863 5347 
L 2325 5347 
L 2325 2466 
L 1863 2466 
L 1863 3425 
Q 1188 3038 450 2603 
Q 381 2747 194 3066 
Q 1084 3519 1863 3963 
L 1863 5347 
z
M 363 4728 
L 694 5053 
Q 1263 4584 1550 4297 
L 1175 3934 
Q 725 4416 363 4728 
z
" transform="scale(0.015625)"/>
       </defs>
       <use xlink:href="#MicrosoftYaHei-9c1"/>
       <use xlink:href="#MicrosoftYaHei-a78" transform="translate(100 0)"/>
      </g>
     </g>
    </g>
    <g id="xtick_4">
     <g id="line2d_4">
      <g>
       <use xlink:href="#m68d6895b0f" x="770.771006" y="423.005625" style="stroke: #000000; stroke-width: 0.8"/>
      </g>
     </g>
     <g id="text_4">
      <!-- 终端 -->
      <g transform="translate(759.771006 439.252607) scale(0.11 -0.11)">
       <defs>
        <path id="MicrosoftYaHei-9c4" d="M 2156 3234 
Q 2944 4253 3356 5366 
L 3825 5209 
Q 3700 4925 3563 4653 
L 5906 4653 
L 5906 4209 
Q 5425 3378 4663 2750 
Q 5381 2259 6350 2097 
Q 6219 1797 6131 1566 
Q 5038 1875 4278 2456 
Q 3447 1878 2331 1503 
Q 2231 1734 2113 1941 
Q 3156 2238 3931 2756 
Q 3434 3228 3119 3847 
Q 2816 3350 2469 2903 
Q 2350 3041 2156 3234 
z
M 888 1528 
Q 1413 1603 2113 1709 
Q 2075 1466 2056 1241 
Q 1344 1141 319 978 
L 219 1434 
Q 594 1828 1163 2794 
Q 506 2753 219 2728 
L 100 3153 
Q 663 3897 1288 5366 
L 1763 5178 
Q 1156 3991 656 3191 
Q 1047 3200 1403 3209 
Q 1638 3625 1900 4122 
L 2369 3916 
Q 1463 2347 888 1528 
z
M 2625 109 
L 2819 547 
Q 3969 234 5675 -297 
L 5444 -791 
Q 3850 -222 2625 109 
z
M 5356 4234 
L 3372 4234 
Q 3750 3513 4303 3028 
Q 4938 3541 5356 4234 
z
M 88 66 
Q 1069 259 2250 547 
Q 2231 203 2231 78 
Q 1375 -109 225 -416 
L 88 66 
z
M 3338 1247 
L 3525 1666 
Q 4469 1384 5413 1047 
L 5206 553 
Q 4275 953 3338 1247 
z
" transform="scale(0.015625)"/>
        <path id="MicrosoftYaHei-980" d="M 2263 2953 
L 6306 2953 
L 6306 2547 
L 4431 2547 
L 4259 1866 
L 6013 1866 
L 6013 -209 
Q 6013 -747 5538 -747 
Q 5375 -747 5081 -741 
Q 5038 -484 4956 -278 
Q 5169 -297 5388 -297 
Q 5575 -297 5575 -103 
L 5575 1478 
L 4931 1478 
L 4931 -484 
L 4513 -484 
L 4513 1478 
L 3894 1478 
L 3894 -447 
L 3475 -447 
L 3475 1478 
L 2850 1478 
L 2850 -803 
L 2413 -803 
L 2413 1866 
L 3806 1866 
L 3950 2547 
L 2263 2547 
L 2263 2953 
z
M 5406 3359 
L 5406 3553 
L 2581 3553 
L 2581 4959 
L 3019 4959 
L 3019 3941 
L 3988 3941 
L 3988 5353 
L 4438 5353 
L 4438 3941 
L 5406 3941 
L 5406 4959 
L 5844 4959 
L 5844 3359 
L 5406 3359 
z
M 2088 3178 
Q 1969 2256 1644 584 
Q 1966 653 2238 722 
Q 2231 478 2244 278 
Q 1538 103 181 -172 
L 88 297 
Q 716 400 1231 500 
Q 1538 2378 1644 3259 
L 2088 3178 
z
M 238 3091 
L 663 3184 
Q 869 2291 1075 991 
L 644 878 
Q 475 2128 238 3091 
z
M 156 4072 
L 2300 4072 
L 2300 3666 
L 156 3666 
L 156 4072 
z
M 669 5091 
L 1050 5316 
Q 1419 4859 1681 4378 
L 1269 4128 
Q 1044 4566 669 5091 
z
" transform="scale(0.015625)"/>
       </defs>
       <use xlink:href="#MicrosoftYaHei-9c4"/>
       <use xlink:href="#MicrosoftYaHei-980" transform="translate(100 0)"/>
      </g>
      <!-- 应用 -->
      <g transform="translate(759.771006 451.331982) scale(0.11 -0.11)">
       <defs>
        <path id="MicrosoftYaHei-900" d="M 3088 -734 
L 3088 1253 
L 1269 1253 
Q 1163 -47 513 -903 
Q 350 -697 144 -472 
Q 550 103 694 803 
Q 831 1478 831 2716 
L 831 4947 
L 5925 4947 
L 5925 -22 
Q 5925 -766 5219 -766 
Q 4788 -766 4250 -747 
Q 4219 -541 4156 -228 
Q 4700 -266 5038 -266 
Q 5425 -266 5425 103 
L 5425 1253 
L 3588 1253 
L 3588 -734 
L 3088 -734 
z
M 3588 1703 
L 5425 1703 
L 5425 2872 
L 3588 2872 
L 3588 1703 
z
M 5425 4484 
L 3588 4484 
L 3588 3322 
L 5425 3322 
L 5425 4484 
z
M 1303 1703 
L 3088 1703 
L 3088 2872 
L 1331 2872 
Q 1350 2266 1303 1703 
z
M 1331 4484 
L 1331 3322 
L 3088 3322 
L 3088 4484 
L 1331 4484 
z
" transform="scale(0.015625)"/>
       </defs>
       <use xlink:href="#MicrosoftYaHei-681"/>
       <use xlink:href="#MicrosoftYaHei-900" transform="translate(100 0)"/>
      </g>
     </g>
    </g>
   </g>
   <g id="matplotlib.axis_2">
    <g id="ytick_1">
     <g id="line2d_5">
      <path d="M 41.948848 423.005625 
L 881.073652 423.005625 
" clip-path="url(#peacc199554)" style="fill: none; stroke: #e5e7e9; stroke-opacity: 0.25; stroke-width: 0.8; stroke-linecap: square"/>
     </g>
     <g id="line2d_6">
      <defs>
       <path id="m79ab6b9971" d="M 0 0 
L -3.5 0 
" style="stroke: #000000; stroke-width: 0.8"/>
      </defs>
      <g>
       <use xlink:href="#m79ab6b9971" x="41.948848" y="423.005625" style="stroke: #000000; stroke-width: 0.8"/>
      </g>
     </g>
     <g id="text_5">
      <!-- 0 -->
      <g transform="translate(29.084785 427.065684) scale(0.1 -0.1)">
       <defs>
        <path id="MicrosoftYaHei-16" d="M 284 2325 
Q 284 3606 709 4264 
Q 1134 4922 1941 4922 
Q 3478 4922 3478 2441 
Q 3478 1216 3045 567 
Q 2613 -81 1831 -81 
Q 1094 -81 689 534 
Q 284 1150 284 2325 
z
M 909 2353 
Q 909 425 1888 425 
Q 2850 425 2850 2384 
Q 2850 4413 1906 4413 
Q 909 4413 909 2353 
z
" transform="scale(0.015625)"/>
       </defs>
       <use xlink:href="#MicrosoftYaHei-16"/>
      </g>
     </g>
    </g>
    <g id="ytick_2">
     <g id="line2d_7">
      <path d="M 41.948848 356.667604 
L 881.073652 356.667604 
" clip-path="url(#peacc199554)" style="fill: none; stroke: #e5e7e9; stroke-opacity: 0.25; stroke-width: 0.8; stroke-linecap: square"/>
     </g>
     <g id="line2d_8">
      <g>
       <use xlink:href="#m79ab6b9971" x="41.948848" y="356.667604" style="stroke: #000000; stroke-width: 0.8"/>
      </g>
     </g>
     <g id="text_6">
      <!-- 10 -->
      <g transform="translate(23.220723 360.727663) scale(0.1 -0.1)">
       <defs>
        <path id="MicrosoftYaHei-17" d="M 1781 0 
L 1781 4141 
Q 1638 3997 1295 3819 
Q 953 3641 663 3569 
L 663 4169 
Q 1047 4275 1484 4508 
Q 1922 4741 2156 4947 
L 2388 4947 
L 2388 0 
L 1781 0 
z
" transform="scale(0.015625)"/>
       </defs>
       <use xlink:href="#MicrosoftYaHei-17"/>
       <use xlink:href="#MicrosoftYaHei-16" transform="translate(58.640625 0)"/>
      </g>
     </g>
    </g>
    <g id="ytick_3">
     <g id="line2d_9">
      <path d="M 41.948848 290.329583 
L 881.073652 290.329583 
" clip-path="url(#peacc199554)" style="fill: none; stroke: #e5e7e9; stroke-opacity: 0.25; stroke-width: 0.8; stroke-linecap: square"/>
     </g>
     <g id="line2d_10">
      <g>
       <use xlink:href="#m79ab6b9971" x="41.948848" y="290.329583" style="stroke: #000000; stroke-width: 0.8"/>
      </g>
     </g>
     <g id="text_7">
      <!-- 20 -->
      <g transform="translate(23.220723 294.389642) scale(0.1 -0.1)">
       <defs>
        <path id="MicrosoftYaHei-18" d="M 2666 3572 
Q 2666 3963 2419 4186 
Q 2172 4409 1747 4409 
Q 1447 4409 1140 4256 
Q 834 4103 569 3819 
L 569 4413 
Q 806 4659 1107 4790 
Q 1409 4922 1816 4922 
Q 2472 4922 2872 4570 
Q 3272 4219 3272 3619 
Q 3272 3084 3026 2693 
Q 2781 2303 2188 1894 
Q 1581 1475 1376 1294 
Q 1172 1113 1090 947 
Q 1009 781 1009 544 
L 3416 544 
L 3416 0 
L 372 0 
L 372 241 
Q 372 659 486 951 
Q 600 1244 862 1520 
Q 1125 1797 1681 2184 
Q 2250 2584 2458 2886 
Q 2666 3188 2666 3572 
z
" transform="scale(0.015625)"/>
       </defs>
       <use xlink:href="#MicrosoftYaHei-18"/>
       <use xlink:href="#MicrosoftYaHei-16" transform="translate(58.640625 0)"/>
      </g>
     </g>
    </g>
    <g id="ytick_4">
     <g id="line2d_11">
      <path d="M 41.948848 223.991562 
L 881.073652 223.991562 
" clip-path="url(#peacc199554)" style="fill: none; stroke: #e5e7e9; stroke-opacity: 0.25; stroke-width: 0.8; stroke-linecap: square"/>
     </g>
     <g id="line2d_12">
      <g>
       <use xlink:href="#m79ab6b9971" x="41.948848" y="223.991562" style="stroke: #000000; stroke-width: 0.8"/>
      </g>
     </g>
     <g id="text_8">
      <!-- 30 -->
      <g transform="translate(23.220723 228.051621) scale(0.1 -0.1)">
       <defs>
        <path id="MicrosoftYaHei-19" d="M 447 809 
Q 944 425 1569 425 
Q 2069 425 2361 670 
Q 2653 916 2653 1328 
Q 2653 2247 1338 2247 
L 934 2247 
L 934 2753 
L 1319 2753 
Q 2484 2753 2484 3616 
Q 2484 4413 1594 4413 
Q 1084 4413 634 4069 
L 634 4647 
Q 1109 4922 1744 4922 
Q 2363 4922 2738 4598 
Q 3113 4275 3113 3759 
Q 3113 2809 2144 2538 
L 2144 2525 
Q 2669 2469 2973 2155 
Q 3278 1841 3278 1372 
Q 3278 719 2808 319 
Q 2338 -81 1556 -81 
Q 869 -81 447 175 
L 447 809 
z
" transform="scale(0.015625)"/>
       </defs>
       <use xlink:href="#MicrosoftYaHei-19"/>
       <use xlink:href="#MicrosoftYaHei-16" transform="translate(58.640625 0)"/>
      </g>
     </g>
    </g>
    <g id="ytick_5">
     <g id="line2d_13">
      <path d="M 41.948848 157.653542 
L 881.073652 157.653542 
" clip-path="url(#peacc199554)" style="fill: none; stroke: #e5e7e9; stroke-opacity: 0.25; stroke-width: 0.8; stroke-linecap: square"/>
     </g>
     <g id="line2d_14">
      <g>
       <use xlink:href="#m79ab6b9971" x="41.948848" y="157.653542" style="stroke: #000000; stroke-width: 0.8"/>
      </g>
     </g>
     <g id="text_9">
      <!-- 40 -->
      <g transform="translate(23.220723 161.7136) scale(0.1 -0.1)">
       <defs>
        <path id="MicrosoftYaHei-1a" d="M 2906 4841 
L 2906 1644 
L 3631 1644 
L 3631 1138 
L 2906 1138 
L 2906 0 
L 2313 0 
L 2313 1138 
L 53 1138 
L 53 1616 
Q 656 2294 1265 3178 
Q 1875 4063 2272 4841 
L 2906 4841 
z
M 741 1644 
L 2313 1644 
L 2313 3950 
Q 1988 3366 1616 2817 
Q 1244 2269 741 1644 
z
" transform="scale(0.015625)"/>
       </defs>
       <use xlink:href="#MicrosoftYaHei-1a"/>
       <use xlink:href="#MicrosoftYaHei-16" transform="translate(58.640625 0)"/>
      </g>
     </g>
    </g>
    <g id="ytick_6">
     <g id="line2d_15">
      <path d="M 41.948848 91.315521 
L 881.073652 91.315521 
" clip-path="url(#peacc199554)" style="fill: none; stroke: #e5e7e9; stroke-opacity: 0.25; stroke-width: 0.8; stroke-linecap: square"/>
     </g>
     <g id="line2d_16">
      <g>
       <use xlink:href="#m79ab6b9971" x="41.948848" y="91.315521" style="stroke: #000000; stroke-width: 0.8"/>
      </g>
     </g>
     <g id="text_10">
      <!-- 50 -->
      <g transform="translate(23.220723 95.375579) scale(0.1 -0.1)">
       <defs>
        <path id="MicrosoftYaHei-1b" d="M 3294 1494 
Q 3294 784 2823 350 
Q 2353 -84 1559 -84 
Q 878 -84 544 119 
L 544 744 
Q 1034 425 1544 425 
Q 2050 425 2361 704 
Q 2672 984 2672 1447 
Q 2672 1909 2348 2167 
Q 2025 2425 1434 2425 
Q 978 2425 613 2384 
L 791 4841 
L 3053 4841 
L 3053 4303 
L 1306 4303 
L 1206 2931 
L 1647 2950 
Q 2416 2950 2855 2567 
Q 3294 2184 3294 1494 
z
" transform="scale(0.015625)"/>
       </defs>
       <use xlink:href="#MicrosoftYaHei-1b"/>
       <use xlink:href="#MicrosoftYaHei-16" transform="translate(58.640625 0)"/>
      </g>
     </g>
    </g>
    <g id="ytick_7">
     <g id="line2d_17">
      <path d="M 41.948848 24.9775 
L 881.073652 24.9775 
" clip-path="url(#peacc199554)" style="fill: none; stroke: #e5e7e9; stroke-opacity: 0.25; stroke-width: 0.8; stroke-linecap: square"/>
     </g>
     <g id="line2d_18">
      <g>
       <use xlink:href="#m79ab6b9971" x="41.948848" y="24.9775" style="stroke: #000000; stroke-width: 0.8"/>
      </g>
     </g>
     <g id="text_11">
      <!-- 60 -->
      <g transform="translate(23.220723 29.037559) scale(0.1 -0.1)">
       <defs>
        <path id="MicrosoftYaHei-1c" d="M 3181 4219 
Q 2803 4413 2391 4413 
Q 1763 4413 1381 3866 
Q 1000 3319 994 2372 
L 1009 2372 
Q 1353 3038 2106 3038 
Q 2734 3038 3109 2628 
Q 3484 2219 3484 1541 
Q 3484 831 3051 375 
Q 2619 -81 1947 -81 
Q 1209 -81 789 495 
Q 369 1072 369 2131 
Q 369 3413 920 4167 
Q 1472 4922 2372 4922 
Q 2888 4922 3181 4781 
L 3181 4219 
z
M 1031 1584 
Q 1031 1106 1286 765 
Q 1541 425 1963 425 
Q 2363 425 2613 719 
Q 2863 1013 2863 1475 
Q 2863 1975 2627 2253 
Q 2391 2531 1956 2531 
Q 1544 2531 1287 2250 
Q 1031 1969 1031 1584 
z
" transform="scale(0.015625)"/>
       </defs>
       <use xlink:href="#MicrosoftYaHei-1c"/>
       <use xlink:href="#MicrosoftYaHei-16" transform="translate(58.640625 0)"/>
      </g>
     </g>
    </g>
    <g id="text_12">
     <!-- 利润率（%） -->
     <g style="fill: #1e8449" transform="translate(16.433125 256.384844) rotate(-90) scale(0.11 -0.11)">
      <defs>
       <path id="MicrosoftYaHei-4ef" d="M 75 741 
Q 913 1653 1488 2997 
L 106 2997 
L 106 3453 
L 1606 3453 
L 1606 4391 
Q 963 4328 331 4272 
Q 288 4503 206 4747 
Q 1706 4866 3269 5066 
L 3394 4591 
Q 2731 4509 2081 4441 
L 2081 3453 
L 3500 3453 
L 3500 2997 
L 2081 2997 
L 2081 2159 
L 2356 2422 
Q 2944 1922 3525 1347 
L 3144 959 
Q 2763 1403 2081 2053 
L 2081 -828 
L 1606 -828 
L 1606 2297 
Q 1069 1084 325 178 
Q 156 584 75 741 
z
M 5444 5197 
L 5938 5197 
L 5938 -9 
Q 5938 -803 5138 -797 
Q 4881 -797 4306 -791 
Q 4269 -534 4213 -228 
Q 4719 -284 4981 -284 
Q 5444 -291 5444 184 
L 5444 5197 
z
M 3963 4572 
L 4438 4572 
L 4438 622 
L 3963 622 
L 3963 4572 
z
" transform="scale(0.015625)"/>
       <path id="MicrosoftYaHei-40d4" d="M 3500 4916 
L 6088 4916 
L 6088 -34 
Q 6088 -766 5338 -766 
Q 4988 -766 4494 -759 
Q 4463 -553 4400 -278 
Q 4925 -316 5213 -316 
Q 5613 -316 5613 47 
L 5613 4491 
L 3500 4491 
L 3500 4916 
z
M 2613 941 
L 3750 941 
L 3750 1997 
L 2775 1997 
L 2775 2384 
L 3750 2384 
L 3750 3347 
L 2681 3347 
L 2681 3747 
L 5269 3747 
L 5269 3347 
L 4200 3347 
L 4200 2384 
L 5188 2384 
L 5188 1997 
L 4200 1997 
L 4200 941 
L 5350 941 
L 5350 541 
L 2613 541 
L 2613 941 
z
M 2350 -847 
L 1875 -847 
L 1875 4191 
L 2350 4191 
L 2350 -847 
z
M 256 -634 
Q 619 441 900 1784 
Q 1175 1666 1406 1591 
Q 1019 72 806 -803 
L 256 -634 
z
M 325 4853 
L 650 5184 
Q 1063 4872 1725 4303 
Q 1513 4097 1350 3934 
Q 706 4541 325 4853 
z
M 81 3222 
L 400 3578 
Q 938 3209 1475 2778 
Q 1269 2559 1113 2372 
Q 500 2916 81 3222 
z
M 2188 5022 
L 2538 5291 
Q 2913 4878 3225 4491 
L 2819 4191 
Q 2556 4572 2188 5022 
z
" transform="scale(0.015625)"/>
       <path id="MicrosoftYaHei-8e4" d="M 2525 2009 
Q 2622 2016 3928 2081 
Q 3772 2300 3625 2491 
L 3963 2703 
Q 4413 2203 4794 1653 
L 4394 1403 
Q 4284 1569 4178 1725 
Q 2991 1659 2213 1597 
Q 2075 1584 1881 1541 
L 1725 1966 
Q 1913 2028 2006 2084 
Q 2534 2441 3050 2913 
Q 2597 2894 2275 2866 
Q 2144 2847 1988 2809 
L 1800 3191 
Q 1956 3247 2088 3366 
Q 2509 3722 2875 4228 
L 231 4228 
L 231 4666 
L 3031 4666 
Q 2878 4944 2744 5153 
L 3194 5372 
Q 3438 5000 3616 4666 
L 6175 4666 
L 6175 4228 
L 3053 4228 
L 3350 4072 
Q 2844 3553 2494 3247 
Q 2850 3256 3425 3269 
Q 3675 3519 3925 3797 
L 4356 3547 
Q 3363 2603 2525 2009 
z
M 144 991 
L 2994 991 
L 2994 1541 
L 3488 1541 
L 3488 991 
L 6275 991 
L 6275 553 
L 3488 553 
L 3488 -853 
L 2994 -853 
L 2994 553 
L 144 553 
L 144 991 
z
M 1719 2672 
L 1944 2303 
Q 1200 1866 425 1409 
L 163 1828 
Q 813 2134 1719 2672 
z
M 4856 2678 
Q 5750 2172 6250 1816 
L 5975 1409 
Q 5331 1909 4600 2341 
L 4856 2678 
z
M 5994 3591 
Q 5519 3178 4963 2809 
L 4644 3141 
Q 5244 3534 5638 3928 
L 5994 3591 
z
M 363 3634 
L 681 3941 
Q 1200 3528 1588 3159 
L 1238 2816 
Q 875 3197 363 3634 
z
" transform="scale(0.015625)"/>
       <path id="MicrosoftYaHei-367" d="M 5288 -1100 
Q 4172 119 4172 1850 
Q 4172 3603 5288 4838 
L 5825 4838 
Q 4716 3572 4716 1856 
Q 4716 166 5819 -1100 
L 5288 -1100 
z
" transform="scale(0.015625)"/>
       <path id="MicrosoftYaHei-b" d="M 272 3619 
Q 272 4213 589 4563 
Q 906 4913 1444 4913 
Q 1959 4913 2248 4591 
Q 2538 4269 2538 3694 
Q 2538 3122 2219 2765 
Q 1900 2409 1372 2409 
Q 872 2409 572 2740 
Q 272 3072 272 3619 
z
M 753 3650 
Q 753 3247 928 3028 
Q 1103 2809 1406 2809 
Q 1719 2809 1889 3036 
Q 2059 3263 2059 3675 
Q 2059 4078 1892 4298 
Q 1725 4519 1422 4519 
Q 1113 4519 933 4289 
Q 753 4059 753 3650 
z
M 4647 4841 
L 1538 -31 
L 1016 -31 
L 4125 4841 
L 4647 4841 
z
M 3172 1134 
Q 3172 1728 3489 2083 
Q 3806 2438 4341 2438 
Q 4853 2438 5143 2114 
Q 5434 1791 5434 1203 
Q 5434 634 5112 279 
Q 4791 -75 4272 -75 
Q 3769 -75 3470 261 
Q 3172 597 3172 1134 
z
M 3650 1163 
Q 3650 769 3825 548 
Q 4000 328 4303 328 
Q 4616 328 4786 556 
Q 4956 784 4956 1194 
Q 4956 1600 4786 1815 
Q 4616 2031 4319 2031 
Q 4000 2031 3825 1801 
Q 3650 1572 3650 1163 
z
" transform="scale(0.015625)"/>
       <path id="MicrosoftYaHei-368" d="M 1113 -1100 
L 575 -1100 
Q 1684 163 1684 1888 
Q 1684 3581 581 4838 
L 1113 4838 
Q 2222 3628 2222 1888 
Q 2222 128 1113 -1100 
z
" transform="scale(0.015625)"/>
      </defs>
      <use xlink:href="#MicrosoftYaHei-4ef"/>
      <use xlink:href="#MicrosoftYaHei-40d4" transform="translate(100 0)"/>
      <use xlink:href="#MicrosoftYaHei-8e4" transform="translate(200 0)"/>
      <use xlink:href="#MicrosoftYaHei-367" transform="translate(300 0)"/>
      <use xlink:href="#MicrosoftYaHei-b" transform="translate(400 0)"/>
      <use xlink:href="#MicrosoftYaHei-368" transform="translate(488.96875 0)"/>
     </g>
    </g>
   </g>
   <g id="patch_7">
    <path d="M 41.948848 423.005625 
L 41.948848 24.9775 
" style="fill: none; stroke: #000000; stroke-width: 0.8; stroke-linejoin: miter; stroke-linecap: square"/>
   </g>
   <g id="patch_8">
    <path d="M 881.073652 423.005625 
L 881.073652 24.9775 
" style="fill: none; stroke: #000000; stroke-width: 0.8; stroke-linejoin: miter; stroke-linecap: square"/>
   </g>
   <g id="patch_9">
    <path d="M 41.948848 423.005625 
L 881.073652 423.005625 
" style="fill: none; stroke: #000000; stroke-width: 0.8; stroke-linejoin: miter; stroke-linecap: square"/>
   </g>
   <g id="patch_10">
    <path d="M 41.948848 24.9775 
L 881.073652 24.9775 
" style="fill: none; stroke: #000000; stroke-width: 0.8; stroke-linejoin: miter; stroke-linecap: square"/>
   </g>
   <g id="text_13">
    <!-- 15% -->
    <g style="fill: #1e8449" transform="translate(106.430798 314.58403) scale(0.09 -0.09)">
     <defs>
      <path id="MicrosoftYaHei-Bold-17" d="M 2716 4947 
L 2716 0 
L 1700 0 
L 1700 3809 
Q 1513 3647 1188 3517 
Q 863 3388 591 3356 
L 591 4222 
Q 1447 4472 2072 4947 
L 2716 4947 
z
" transform="scale(0.015625)"/>
      <path id="MicrosoftYaHei-Bold-1b" d="M 541 125 
L 541 997 
Q 1044 691 1613 691 
Q 2041 691 2283 902 
Q 2525 1113 2525 1472 
Q 2525 2225 1494 2225 
Q 1113 2225 616 2169 
L 797 4841 
L 3359 4841 
L 3359 4009 
L 1613 4009 
L 1544 2991 
Q 1803 3013 2022 3013 
Q 2731 3013 3142 2625 
Q 3553 2238 3553 1575 
Q 3553 844 3056 380 
Q 2559 -84 1706 -84 
Q 1016 -84 541 125 
z
" transform="scale(0.015625)"/>
      <path id="MicrosoftYaHei-Bold-b" d="M 297 3597 
Q 297 4191 626 4548 
Q 956 4906 1519 4906 
Q 2056 4906 2354 4581 
Q 2653 4256 2653 3684 
Q 2653 3097 2322 2744 
Q 1991 2391 1438 2391 
Q 919 2391 608 2722 
Q 297 3053 297 3597 
z
M 984 3631 
Q 984 2959 1478 2959 
Q 1981 2959 1981 3659 
Q 1981 4338 1500 4338 
Q 984 4338 984 3631 
z
M 4938 4841 
L 1791 -3 
L 1006 -3 
L 4147 4841 
L 4938 4841 
z
M 3297 1141 
Q 3297 1741 3631 2095 
Q 3966 2450 4522 2450 
Q 5059 2450 5357 2131 
Q 5656 1813 5656 1234 
Q 5656 641 5322 286 
Q 4988 -69 4438 -69 
Q 3922 -69 3609 264 
Q 3297 597 3297 1141 
z
M 3981 1175 
Q 3981 500 4478 500 
Q 4978 500 4978 1200 
Q 4978 1528 4845 1704 
Q 4713 1881 4491 1881 
Q 3981 1881 3981 1175 
z
" transform="scale(0.015625)"/>
     </defs>
     <use xlink:href="#MicrosoftYaHei-Bold-17"/>
     <use xlink:href="#MicrosoftYaHei-Bold-1b" transform="translate(61.671875 0)"/>
     <use xlink:href="#MicrosoftYaHei-Bold-b" transform="translate(123.34375 0)"/>
    </g>
   </g>
   <g id="text_14">
    <!-- 35% -->
    <g style="fill: #1e8449" transform="translate(312.603969 181.907988) scale(0.09 -0.09)">
     <defs>
      <path id="MicrosoftYaHei-Bold-19" d="M 494 1053 
Q 978 691 1625 691 
Q 2034 691 2275 872 
Q 2516 1053 2516 1388 
Q 2516 1731 2230 1912 
Q 1944 2094 1428 2094 
L 997 2094 
L 997 2872 
L 1394 2872 
Q 2369 2872 2369 3528 
Q 2369 4147 1622 4147 
Q 1134 4147 675 3828 
L 675 4663 
Q 1175 4922 1853 4922 
Q 2541 4922 2969 4605 
Q 3397 4288 3397 3725 
Q 3397 2775 2434 2531 
L 2434 2516 
Q 2941 2459 3244 2145 
Q 3547 1831 3547 1381 
Q 3547 691 3042 303 
Q 2538 -84 1697 -84 
Q 950 -84 494 163 
L 494 1053 
z
" transform="scale(0.015625)"/>
     </defs>
     <use xlink:href="#MicrosoftYaHei-Bold-19"/>
     <use xlink:href="#MicrosoftYaHei-Bold-1b" transform="translate(61.671875 0)"/>
     <use xlink:href="#MicrosoftYaHei-Bold-b" transform="translate(123.34375 0)"/>
    </g>
   </g>
   <g id="text_15">
    <!-- 25% -->
    <g style="fill: #1e8449" transform="translate(518.77714 248.246009) scale(0.09 -0.09)">
     <defs>
      <path id="MicrosoftYaHei-Bold-18" d="M 1500 841 
L 3553 841 
L 3553 0 
L 334 0 
L 334 359 
Q 334 738 473 1050 
Q 613 1363 856 1633 
Q 1100 1903 1613 2266 
Q 2081 2616 2268 2886 
Q 2456 3156 2456 3459 
Q 2456 4113 1744 4113 
Q 1119 4113 550 3613 
L 550 4513 
Q 1184 4922 1975 4922 
Q 2700 4922 3122 4551 
Q 3544 4181 3544 3531 
Q 3544 3169 3422 2876 
Q 3300 2584 3069 2328 
Q 2838 2072 2328 1713 
Q 1838 1363 1669 1172 
Q 1500 981 1500 841 
z
" transform="scale(0.015625)"/>
     </defs>
     <use xlink:href="#MicrosoftYaHei-Bold-18"/>
     <use xlink:href="#MicrosoftYaHei-Bold-1b" transform="translate(61.671875 0)"/>
     <use xlink:href="#MicrosoftYaHei-Bold-b" transform="translate(123.34375 0)"/>
    </g>
   </g>
   <g id="text_16">
    <!-- 45% -->
    <g style="fill: #1e8449" transform="translate(724.950311 115.569967) scale(0.09 -0.09)">
     <defs>
      <path id="MicrosoftYaHei-Bold-1a" d="M 3184 4841 
L 3184 1766 
L 3869 1766 
L 3869 1031 
L 3184 1031 
L 3184 0 
L 2266 0 
L 2266 1031 
L 103 1031 
L 103 1772 
Q 775 2522 1362 3359 
Q 1950 4197 2250 4841 
L 3184 4841 
z
M 997 1766 
L 2266 1766 
L 2266 3541 
Q 2116 3259 1836 2859 
Q 1556 2459 997 1766 
z
" transform="scale(0.015625)"/>
     </defs>
     <use xlink:href="#MicrosoftYaHei-Bold-1a"/>
     <use xlink:href="#MicrosoftYaHei-Bold-1b" transform="translate(61.671875 0)"/>
     <use xlink:href="#MicrosoftYaHei-Bold-b" transform="translate(123.34375 0)"/>
    </g>
   </g>
   <g id="text_17">
    <!-- 数据为定性示意：振子制造利润高但管控最强，终端应用利润高但管控最弱 -->
    <g style="fill: #7f8c8d" transform="translate(625.182404 415.134568) scale(0.075 -0.075)">
     <defs>
      <path id="MicrosoftYaHei-783" d="M 4175 5303 
L 4675 5228 
Q 4544 4622 4369 4097 
L 6281 4097 
L 6281 3672 
L 5888 3672 
Q 5731 1834 5088 753 
Q 5594 66 6375 -372 
Q 6175 -647 6038 -866 
Q 5275 -372 4769 309 
Q 4194 -403 3400 -928 
Q 3263 -747 3044 -534 
Q 3919 41 4463 772 
Q 3956 1647 3794 2791 
Q 3663 2559 3519 2359 
Q 3394 2541 3206 2759 
Q 3931 3803 4175 5303 
z
M 150 1697 
L 1100 1697 
Q 1238 1934 1369 2184 
L 1819 2041 
Q 1719 1866 1619 1697 
L 3150 1697 
L 3150 1291 
Q 2913 678 2431 216 
Q 2775 53 3131 -109 
L 2856 -541 
Q 2469 -322 2050 -103 
Q 1344 -609 269 -903 
Q 169 -703 56 -466 
Q 969 -259 1600 128 
Q 1063 403 475 691 
Q 675 978 863 1284 
L 150 1284 
L 150 1697 
z
M 219 3847 
L 1656 3847 
L 1656 5247 
L 2119 5247 
L 2119 3847 
L 3319 3847 
L 3319 3434 
L 2119 3434 
L 2119 3053 
L 2306 3266 
Q 2888 2841 3281 2516 
L 2981 2166 
Q 2638 2491 2119 2897 
L 2119 2184 
L 1656 2184 
L 1656 3059 
Q 1088 2466 331 2016 
Q 213 2197 63 2397 
Q 850 2822 1506 3434 
L 219 3434 
L 219 3847 
z
M 5388 3672 
L 4219 3672 
Q 4188 3591 4150 3516 
Q 4263 2191 4775 1247 
Q 5275 2159 5388 3672 
z
M 1088 834 
Q 1531 634 2000 416 
Q 2431 784 2675 1284 
L 1375 1284 
Q 1231 1053 1088 834 
z
M 3038 5091 
L 3425 4834 
Q 3081 4384 2738 4003 
Q 2594 4128 2400 4266 
Q 2725 4647 3038 5091 
z
M 381 4816 
L 738 5059 
Q 1019 4716 1319 4322 
L 931 4047 
Q 656 4453 381 4816 
z
" transform="scale(0.015625)"/>
      <path id="MicrosoftYaHei-747" d="M 2900 1334 
L 4188 1334 
L 4188 2128 
L 2731 2128 
Q 2663 206 1844 -841 
Q 1694 -647 1506 -447 
Q 2288 516 2288 2509 
L 2288 4947 
L 5975 4947 
L 5975 3134 
L 5525 3134 
L 5525 3328 
L 2738 3328 
L 2738 2553 
L 4188 2553 
L 4188 3209 
L 4638 3209 
L 4638 2553 
L 6288 2553 
L 6288 2128 
L 4638 2128 
L 4638 1334 
L 5938 1334 
L 5938 -778 
L 5488 -778 
L 5488 -416 
L 3350 -416 
L 3350 -778 
L 2900 -778 
L 2900 1334 
z
M 100 1966 
Q 544 2088 963 2213 
L 963 3641 
L 175 3641 
L 175 4091 
L 963 4091 
L 963 5284 
L 1425 5284 
L 1425 4091 
L 2106 4091 
L 2106 3641 
L 1425 3641 
L 1425 2356 
Q 1722 2450 2006 2547 
Q 2013 2266 2044 2059 
Q 1722 1956 1425 1856 
L 1425 -34 
Q 1425 -741 806 -753 
Q 613 -759 231 -747 
Q 206 -497 156 -228 
Q 500 -266 681 -266 
Q 963 -266 963 53 
L 963 1703 
Q 534 1559 163 1428 
L 100 1966 
z
M 5525 4534 
L 2738 4534 
L 2738 3741 
L 5525 3741 
L 5525 4534 
z
M 5488 922 
L 3350 922 
L 3350 -9 
L 5488 -9 
L 5488 922 
z
" transform="scale(0.015625)"/>
      <path id="MicrosoftYaHei-41e" d="M 356 3684 
L 2703 3684 
Q 2794 4450 2794 5341 
L 3331 5341 
Q 3331 4413 3244 3684 
L 5900 3684 
Q 5863 1753 5788 497 
Q 5725 -672 4550 -672 
Q 4063 -672 3394 -641 
Q 3369 -397 3300 -59 
Q 3888 -141 4456 -141 
Q 5206 -141 5244 597 
Q 5331 1822 5356 3197 
L 3175 3197 
Q 2716 441 606 -903 
Q 431 -684 225 -441 
Q 2169 706 2628 3197 
L 356 3197 
L 356 3684 
z
M 3325 2072 
L 3669 2378 
Q 4269 1822 4756 1284 
L 4369 934 
Q 3888 1503 3325 2072 
z
M 800 4922 
L 1138 5234 
Q 1656 4784 2138 4309 
L 1756 3953 
Q 1294 4459 800 4922 
z
" transform="scale(0.015625)"/>
      <path id="MicrosoftYaHei-614" d="M 81 -384 
Q 1119 509 1281 2241 
L 1806 2159 
Q 1731 1581 1578 1081 
Q 2063 50 3081 -103 
L 3081 2647 
L 225 2647 
L 225 3116 
L 6163 3116 
L 6163 2647 
L 3600 2647 
L 3600 1634 
L 5775 1634 
L 5775 1172 
L 3600 1172 
L 3600 -138 
Q 4844 -169 6306 -116 
Q 6200 -359 6125 -634 
Q 4594 -653 3450 -616 
Q 2041 -616 1378 528 
Q 1022 -300 413 -872 
Q 269 -628 81 -384 
z
M 450 4566 
L 3116 4566 
Q 2931 4834 2725 5091 
L 3200 5347 
Q 3444 5066 3731 4716 
L 3450 4566 
L 5981 4566 
L 5981 3378 
L 5488 3378 
L 5488 4097 
L 944 4097 
L 944 3384 
L 450 3384 
L 450 4566 
z
" transform="scale(0.015625)"/>
      <path id="MicrosoftYaHei-6c5" d="M 1963 -153 
L 3988 -153 
L 3988 1522 
L 2375 1522 
L 2375 1959 
L 3988 1959 
L 3988 3472 
L 2975 3472 
Q 2744 2878 2438 2291 
Q 2169 2509 2019 2578 
Q 2644 3709 2894 4891 
L 3388 4759 
Q 3281 4328 3138 3909 
L 3988 3909 
L 3988 5284 
L 4481 5284 
L 4481 3909 
L 6125 3909 
L 6125 3472 
L 4481 3472 
L 4481 1959 
L 6000 1959 
L 6000 1522 
L 4481 1522 
L 4481 -153 
L 6319 -153 
L 6319 -591 
L 1963 -591 
L 1963 -153 
z
M 988 5291 
L 1469 5291 
L 1469 4091 
L 1738 4241 
Q 2063 3734 2294 3291 
L 1906 3041 
Q 1688 3503 1469 3859 
L 1469 -872 
L 988 -872 
L 988 5291 
z
M 406 3878 
L 819 3784 
Q 706 3028 506 2178 
Q 338 2241 75 2297 
Q 263 2978 406 3878 
z
" transform="scale(0.015625)"/>
      <path id="MicrosoftYaHei-950" d="M 100 3072 
L 6300 3072 
L 6300 2603 
L 3619 2603 
L 3619 78 
Q 3619 -703 2800 -709 
Q 2366 -709 1825 -703 
Q 1788 -447 1731 -128 
Q 2225 -178 2663 -178 
Q 3088 -178 3088 241 
L 3088 2603 
L 100 2603 
L 100 3072 
z
M 675 4916 
L 5744 4916 
L 5744 4447 
L 675 4447 
L 675 4916 
z
M 4413 1847 
L 4831 2128 
Q 5600 1184 6319 159 
L 5863 -141 
Q 5088 991 4413 1847 
z
M 1481 2141 
L 1938 1884 
Q 1281 747 538 -278 
Q 344 -134 125 16 
Q 825 922 1481 2141 
z
" transform="scale(0.015625)"/>
      <path id="MicrosoftYaHei-6de" d="M 2706 759 
L 3022 1028 
L 1419 1028 
L 1419 834 
L 956 834 
L 956 2997 
L 5406 2997 
L 5406 834 
L 4944 834 
L 4944 1028 
L 3038 1028 
Q 3447 681 3756 353 
L 3388 47 
Q 3125 353 2706 759 
z
M 150 3722 
L 1906 3722 
Q 1659 3956 1406 4172 
L 1594 4347 
L 538 4347 
L 538 4722 
L 3028 4722 
Q 2900 4984 2763 5216 
L 3188 5397 
Q 3391 5044 3538 4722 
L 5863 4722 
L 5863 4347 
L 4772 4347 
L 4988 4184 
Q 4738 3953 4472 3722 
L 6250 3722 
L 6250 3347 
L 150 3347 
L 150 3722 
z
M 1650 791 
L 2125 791 
L 2125 78 
Q 2125 -284 2538 -284 
L 3819 -284 
Q 4269 -284 4350 59 
Q 4413 297 4463 622 
Q 4681 528 4931 447 
Q 4856 91 4794 -128 
Q 4644 -709 3950 -709 
L 2438 -709 
Q 1650 -709 1650 34 
L 1650 791 
z
M 1419 1391 
L 4944 1391 
L 4944 1841 
L 1419 1841 
L 1419 1391 
z
M 4944 2634 
L 1419 2634 
L 1419 2191 
L 4944 2191 
L 4944 2634 
z
M 3925 3834 
Q 4178 4047 4481 4347 
L 1838 4347 
Q 2116 4141 2381 3909 
L 2191 3722 
L 4038 3722 
L 3925 3834 
z
M 656 759 
L 1094 591 
Q 869 22 569 -559 
Q 381 -472 131 -366 
Q 388 97 656 759 
z
M 5175 503 
L 5531 778 
Q 5975 303 6325 -116 
L 5931 -428 
Q 5550 72 5175 503 
z
" transform="scale(0.015625)"/>
      <path id="MicrosoftYaHei-379" d="M 1606 3531 
Q 1772 3531 1890 3415 
Q 2009 3300 2009 3138 
Q 2009 2975 1893 2858 
Q 1778 2741 1606 2741 
Q 1434 2741 1318 2858 
Q 1203 2975 1203 3138 
Q 1203 3300 1322 3415 
Q 1441 3531 1606 3531 
z
M 1606 716 
Q 1772 716 1890 600 
Q 2009 484 2009 319 
Q 2009 150 1890 36 
Q 1772 -78 1606 -78 
Q 1441 -78 1322 36 
Q 1203 150 1203 319 
Q 1203 484 1322 600 
Q 1441 716 1606 716 
z
" transform="scale(0.015625)"/>
      <path id="MicrosoftYaHei-be4" d="M 1194 3922 
L 5250 3922 
L 5250 2397 
L 4775 2397 
L 4775 2597 
L 1669 2597 
L 1669 2403 
L 1194 2403 
L 1194 3922 
z
M 969 -784 
L 494 -784 
L 494 2147 
L 5956 2147 
L 5956 22 
Q 5956 -747 5231 -747 
Q 4825 -747 4319 -734 
Q 4281 -522 4219 -241 
Q 4794 -284 5100 -284 
Q 5481 -284 5481 97 
L 5481 1747 
L 969 1747 
L 969 -784 
z
M 1813 1334 
L 4638 1334 
L 4638 28 
L 2263 28 
L 2263 -241 
L 1813 -241 
L 1813 1334 
z
M 125 4747 
L 2988 4747 
Q 2850 5013 2725 5216 
L 3194 5403 
Q 3372 5094 3541 4747 
L 6275 4747 
L 6275 4334 
L 125 4334 
L 125 4747 
z
M 4775 3534 
L 1669 3534 
L 1669 2984 
L 4775 2984 
L 4775 3534 
z
M 4188 416 
L 4188 947 
L 2263 947 
L 2263 416 
L 4188 416 
z
" transform="scale(0.015625)"/>
      <path id="MicrosoftYaHei-478" d="M 2419 4884 
L 5794 4884 
L 5794 647 
L 5306 647 
L 5306 1053 
L 2906 1053 
L 2906 647 
L 2419 647 
L 2419 4884 
z
M 81 2334 
Q 1069 3678 1556 5284 
L 2063 5116 
Q 1750 4247 1388 3516 
L 1388 -809 
L 913 -809 
L 913 2659 
Q 616 2175 288 1772 
Q 200 2034 81 2334 
z
M 2906 1491 
L 5306 1491 
L 5306 2759 
L 2906 2759 
L 2906 1491 
z
M 5306 4447 
L 2906 4447 
L 2906 3184 
L 5306 3184 
L 5306 4447 
z
M 1850 28 
L 6319 28 
L 6319 -403 
L 1850 -403 
L 1850 28 
z
" transform="scale(0.015625)"/>
      <path id="MicrosoftYaHei-992" d="M 1063 2634 
L 4913 2634 
L 4913 1128 
L 4438 1128 
L 4438 1284 
L 1544 1284 
L 1544 809 
L 5438 809 
L 5438 -822 
L 4963 -822 
L 4963 -584 
L 1544 -584 
L 1544 -828 
L 1063 -828 
L 1063 2634 
z
M 356 3503 
L 3028 3503 
Q 2919 3700 2763 3941 
L 3194 4128 
Q 3400 3828 3569 3503 
L 6038 3503 
L 6038 2534 
L 5556 2534 
L 5556 3097 
L 838 3097 
L 838 2528 
L 356 2528 
L 356 3503 
z
M 4963 434 
L 1544 434 
L 1544 -178 
L 4963 -178 
L 4963 434 
z
M 1988 3534 
Q 1750 3847 1469 4172 
L 1750 4372 
L 1213 4372 
Q 853 3916 413 3566 
Q 288 3716 100 3916 
Q 831 4484 1294 5347 
L 1831 5347 
Q 1675 5038 1491 4759 
L 3325 4759 
L 3325 4372 
L 1825 4372 
Q 2106 4100 2356 3816 
L 1988 3534 
z
M 4438 2259 
L 1544 2259 
L 1544 1659 
L 4438 1659 
L 4438 2259 
z
M 4844 3541 
Q 4638 3834 4338 4178 
L 4609 4372 
L 4081 4372 
Q 3900 4081 3700 3834 
Q 3563 3972 3319 4141 
Q 3756 4628 4050 5347 
L 4588 5347 
Q 4453 5038 4303 4759 
L 6300 4759 
L 6300 4372 
L 4700 4372 
Q 4984 4097 5213 3822 
L 4844 3541 
z
" transform="scale(0.015625)"/>
      <path id="MicrosoftYaHei-74f" d="M 88 1978 
Q 550 2091 975 2200 
L 975 3647 
L 119 3647 
L 119 4097 
L 975 4097 
L 975 5309 
L 1463 5309 
L 1463 4097 
L 2100 4097 
L 2100 3647 
L 1463 3647 
L 1463 2328 
Q 1788 2416 2088 2503 
Q 2100 2216 2131 2016 
Q 1784 1919 1463 1825 
L 1463 -103 
Q 1463 -766 869 -766 
Q 663 -766 225 -753 
Q 200 -497 144 -234 
Q 513 -278 694 -278 
Q 975 -278 975 16 
L 975 1684 
Q 534 1556 150 1441 
L 88 1978 
z
M 2425 1884 
L 5975 1884 
L 5975 1447 
L 4438 1447 
L 4438 -109 
L 6275 -109 
L 6275 -572 
L 2013 -572 
L 2013 -109 
L 3950 -109 
L 3950 1447 
L 2425 1447 
L 2425 1884 
z
M 2331 4372 
L 4125 4372 
Q 3894 4738 3613 5103 
L 4013 5359 
Q 4363 4928 4606 4578 
L 4297 4372 
L 6100 4372 
L 6100 3247 
L 5613 3247 
L 5613 3916 
L 2819 3916 
L 2819 3247 
L 2331 3247 
L 2331 4372 
z
M 4506 3166 
L 4838 3491 
Q 5669 2884 6244 2372 
L 5894 1978 
Q 5325 2541 4506 3166 
z
M 3919 3159 
Q 3188 2503 2531 1984 
L 2188 2359 
Q 2950 2909 3563 3503 
L 3919 3159 
z
" transform="scale(0.015625)"/>
      <path id="MicrosoftYaHei-7c2" d="M 169 -28 
Q 475 3 781 38 
L 781 2416 
L 94 2416 
L 94 2791 
L 6288 2791 
L 6288 2416 
L 3025 2416 
L 3025 331 
Q 3325 375 3625 422 
Q 3619 309 3631 22 
Q 3338 -19 3025 -63 
L 3025 -859 
L 2600 -859 
L 2600 -125 
Q 1525 -278 281 -472 
L 169 -28 
z
M 1038 5053 
L 5363 5053 
L 5363 3047 
L 4925 3047 
L 4925 3191 
L 1475 3191 
L 1475 3047 
L 1038 3047 
L 1038 5053 
z
M 3338 1609 
L 3338 1972 
L 5819 1972 
L 5819 1609 
Q 5500 844 4981 278 
Q 5516 -113 6306 -316 
Q 6144 -553 6025 -753 
Q 5219 -488 4666 -34 
Q 4128 -516 3413 -822 
Q 3306 -634 3125 -428 
Q 3834 -156 4347 266 
Q 3825 825 3603 1609 
L 3338 1609 
z
M 1475 3553 
L 4925 3553 
L 4925 3953 
L 1475 3953 
L 1475 3553 
z
M 4925 4691 
L 1475 4691 
L 1475 4291 
L 4925 4291 
L 4925 4691 
z
M 5344 1609 
L 4025 1609 
Q 4222 994 4659 556 
Q 5094 1013 5344 1609 
z
M 2600 269 
L 2600 691 
L 1206 691 
L 1206 88 
Q 1913 172 2600 269 
z
M 1206 1916 
L 2600 1916 
L 2600 2416 
L 1206 2416 
L 1206 1916 
z
M 1206 1053 
L 2600 1053 
L 2600 1553 
L 1206 1553 
L 1206 1053 
z
" transform="scale(0.015625)"/>
      <path id="MicrosoftYaHei-6a0" d="M 5250 466 
L 5669 666 
Q 6031 28 6363 -641 
L 5894 -878 
Q 5794 -641 5688 -416 
Q 3750 -547 2219 -653 
L 2150 -134 
Q 3088 -97 3969 -59 
L 3969 866 
L 2894 866 
L 2894 622 
L 2431 622 
L 2431 2616 
L 3969 2616 
L 3969 3297 
L 3144 3297 
L 3144 3047 
L 2681 3047 
L 2681 4972 
L 5731 4972 
L 5731 3047 
L 5269 3047 
L 5269 3297 
L 4444 3297 
L 4444 2616 
L 5988 2616 
L 5988 866 
L 4444 866 
L 4444 -41 
Q 4975 -22 5488 3 
Q 5369 241 5250 466 
z
M 425 3466 
L 1650 3466 
L 1650 4516 
L 238 4516 
L 238 4941 
L 2113 4941 
L 2113 2772 
L 1650 2772 
L 1650 3041 
L 831 3041 
L 719 2072 
L 2056 2072 
Q 1994 741 1944 128 
Q 1888 -722 1100 -722 
Q 819 -722 425 -716 
Q 388 -484 325 -216 
Q 731 -247 1019 -247 
Q 1444 -247 1475 191 
Q 1525 828 1563 1647 
L 225 1647 
L 425 3466 
z
M 5269 4547 
L 3144 4547 
L 3144 3722 
L 5269 3722 
L 5269 4547 
z
M 5525 1291 
L 5525 2191 
L 4444 2191 
L 4444 1291 
L 5525 1291 
z
M 2894 1291 
L 3969 1291 
L 3969 2191 
L 2894 2191 
L 2894 1291 
z
" transform="scale(0.015625)"/>
      <path id="MicrosoftYaHei-36b" d="M 1931 775 
L 1403 -891 
L 966 -891 
L 1350 775 
L 1931 775 
z
" transform="scale(0.015625)"/>
      <path id="MicrosoftYaHei-69e" d="M 3963 3353 
L 3813 2559 
L 6044 2559 
Q 5994 1072 5938 241 
Q 5894 -753 4938 -753 
Q 4456 -753 4075 -734 
Q 4044 -497 3981 -216 
Q 4481 -278 4894 -278 
Q 5431 -278 5463 259 
Q 5519 1034 5550 2128 
L 3281 2128 
L 3594 3784 
L 5388 3784 
L 5388 4559 
L 3400 4559 
L 3400 4991 
L 5856 4991 
L 5856 3147 
L 5388 3147 
L 5388 3353 
L 3963 3353 
z
M 1025 3353 
L 881 2559 
L 2881 2559 
Q 2831 1059 2781 216 
Q 2738 -759 1763 -759 
Q 1381 -759 913 -741 
Q 881 -453 819 -222 
Q 1344 -284 1725 -284 
Q 2281 -284 2306 284 
Q 2369 1066 2394 2128 
L 356 2128 
L 656 3784 
L 2388 3784 
L 2388 4559 
L 375 4559 
L 375 4991 
L 2856 4991 
L 2856 3147 
L 2388 3147 
L 2388 3353 
L 1025 3353 
z
M 3206 528 
Q 4269 778 5231 1066 
Q 5219 747 5213 566 
Q 4419 359 3281 22 
L 3206 528 
z
M 156 503 
Q 1006 659 2144 947 
Q 2125 641 2113 466 
Q 1194 259 213 3 
L 156 503 
z
M 3563 1984 
Q 4094 1784 4756 1491 
Q 4625 1272 4519 1072 
Q 3994 1334 3344 1616 
L 3563 1984 
z
M 731 1984 
Q 1250 1772 1863 1472 
Q 1713 1228 1606 1047 
Q 1038 1372 494 1616 
L 731 1984 
z
" transform="scale(0.015625)"/>
     </defs>
     <use xlink:href="#MicrosoftYaHei-783"/>
     <use xlink:href="#MicrosoftYaHei-747" transform="translate(100 0)"/>
     <use xlink:href="#MicrosoftYaHei-41e" transform="translate(200 0)"/>
     <use xlink:href="#MicrosoftYaHei-614" transform="translate(300 0)"/>
     <use xlink:href="#MicrosoftYaHei-6c5" transform="translate(400 0)"/>
     <use xlink:href="#MicrosoftYaHei-950" transform="translate(500 0)"/>
     <use xlink:href="#MicrosoftYaHei-6de" transform="translate(600 0)"/>
     <use xlink:href="#MicrosoftYaHei-379" transform="translate(700 0)"/>
     <use xlink:href="#MicrosoftYaHei-37a6" transform="translate(800 0)"/>
     <use xlink:href="#MicrosoftYaHei-5ff" transform="translate(900 0)"/>
     <use xlink:href="#MicrosoftYaHei-4f2" transform="translate(1000 0)"/>
     <use xlink:href="#MicrosoftYaHei-b2d" transform="translate(1100 0)"/>
     <use xlink:href="#MicrosoftYaHei-4ef" transform="translate(1200 0)"/>
     <use xlink:href="#MicrosoftYaHei-40d4" transform="translate(1300 0)"/>
     <use xlink:href="#MicrosoftYaHei-be4" transform="translate(1400 0)"/>
     <use xlink:href="#MicrosoftYaHei-478" transform="translate(1500 0)"/>
     <use xlink:href="#MicrosoftYaHei-992" transform="translate(1600 0)"/>
     <use xlink:href="#MicrosoftYaHei-74f" transform="translate(1700 0)"/>
     <use xlink:href="#MicrosoftYaHei-7c2" transform="translate(1800 0)"/>
     <use xlink:href="#MicrosoftYaHei-6a0" transform="translate(1900 0)"/>
     <use xlink:href="#MicrosoftYaHei-36b" transform="translate(2000 0)"/>
     <use xlink:href="#MicrosoftYaHei-9c4" transform="translate(2100 0)"/>
     <use xlink:href="#MicrosoftYaHei-980" transform="translate(2200 0)"/>
     <use xlink:href="#MicrosoftYaHei-681" transform="translate(2300 0)"/>
     <use xlink:href="#MicrosoftYaHei-900" transform="translate(2400 0)"/>
     <use xlink:href="#MicrosoftYaHei-4ef" transform="translate(2500 0)"/>
     <use xlink:href="#MicrosoftYaHei-40d4" transform="translate(2600 0)"/>
     <use xlink:href="#MicrosoftYaHei-be4" transform="translate(2700 0)"/>
     <use xlink:href="#MicrosoftYaHei-478" transform="translate(2800 0)"/>
     <use xlink:href="#MicrosoftYaHei-992" transform="translate(2900 0)"/>
     <use xlink:href="#MicrosoftYaHei-74f" transform="translate(3000 0)"/>
     <use xlink:href="#MicrosoftYaHei-7c2" transform="translate(3100 0)"/>
     <use xlink:href="#MicrosoftYaHei-69e" transform="translate(3200 0)"/>
    </g>
   </g>
   <g id="text_18">
    <!-- 图 19 Ξ 工业产业链：利润率与管控强度 -->
    <g style="fill: #2c3e50" transform="translate(337.473437 18.9775) scale(0.14 -0.14)">
     <defs>
      <path id="MicrosoftYaHei-Bold-5a2" d="M 369 -841 
L 369 5072 
L 6019 5072 
L 6019 -834 
L 5156 -834 
L 5156 -591 
L 1231 -591 
L 1231 -841 
L 369 -841 
z
M 4875 3978 
L 4875 3466 
Q 4547 3022 4006 2678 
Q 4513 2541 5156 2463 
L 5156 4316 
L 3256 4316 
Q 3141 4144 3009 3978 
L 4875 3978 
z
M 2394 4316 
L 1231 4316 
L 1231 3231 
Q 2016 3747 2394 4316 
z
M 3228 2959 
Q 3666 3163 3919 3416 
L 2575 3416 
Q 2828 3156 3228 2959 
z
M 1644 2747 
Q 1481 2925 1231 3147 
L 1231 2400 
Q 1950 2522 2500 2688 
Q 2266 2863 2078 3063 
Q 1872 2900 1644 2747 
z
M 1669 1303 
Q 3319 1084 4775 841 
L 4600 166 
L 5156 166 
L 5156 2388 
Q 5019 2159 4825 1822 
Q 3897 1978 3219 2275 
Q 2872 2134 2472 2019 
Q 3509 1888 4500 1722 
L 4375 1128 
Q 3344 1309 2063 1484 
L 2159 1934 
Q 1856 1859 1525 1797 
Q 1409 2059 1231 2347 
L 1231 166 
L 4569 166 
Q 3297 425 1494 647 
L 1669 1303 
z
" transform="scale(0.015625)"/>
      <path id="MicrosoftYaHei-Bold-3" transform="scale(0.015625)"/>
      <path id="MicrosoftYaHei-Bold-1f" d="M 544 941 
Q 931 691 1456 691 
Q 2628 691 2653 2216 
L 2634 2222 
Q 2316 1731 1650 1731 
Q 1047 1731 658 2154 
Q 269 2578 269 3222 
Q 269 3978 737 4450 
Q 1206 4922 1959 4922 
Q 2744 4922 3191 4325 
Q 3638 3728 3638 2659 
Q 3638 1391 3098 653 
Q 2559 -84 1547 -84 
Q 975 -84 544 100 
L 544 941 
z
M 1259 3313 
Q 1259 2928 1445 2709 
Q 1631 2491 1953 2491 
Q 2241 2491 2427 2700 
Q 2613 2909 2613 3219 
Q 2613 3591 2427 3869 
Q 2241 4147 1928 4147 
Q 1625 4147 1442 3906 
Q 1259 3666 1259 3313 
z
" transform="scale(0.015625)"/>
      <path id="MicrosoftYaHei-Bold-145" d="M 3513 3975 
L 284 3975 
L 284 4841 
L 3513 4841 
L 3513 3975 
z
M 3025 2009 
L 769 2009 
L 769 2859 
L 3025 2859 
L 3025 2009 
z
M 3594 0 
L 206 0 
L 206 872 
L 3594 872 
L 3594 0 
z
" transform="scale(0.015625)"/>
      <path id="MicrosoftYaHei-Bold-656" d="M 163 384 
L 2675 384 
L 2675 3966 
L 500 3966 
L 500 4853 
L 5925 4853 
L 5925 3966 
L 3700 3966 
L 3700 384 
L 6244 384 
L 6244 -503 
L 163 -503 
L 163 384 
z
" transform="scale(0.015625)"/>
      <path id="MicrosoftYaHei-Bold-40e" d="M 1888 5216 
L 2800 5216 
L 2800 303 
L 3600 303 
L 3600 5216 
L 4500 5216 
L 4500 1838 
Q 5009 2850 5494 4172 
L 6300 3828 
Q 5825 2641 5163 1253 
L 4500 1563 
L 4500 303 
L 6300 303 
L 6300 -553 
L 125 -553 
L 125 303 
L 1888 303 
L 1888 1541 
L 1188 1241 
Q 675 2697 163 3916 
L 913 4259 
Q 1453 3047 1888 1922 
L 1888 5216 
z
" transform="scale(0.015625)"/>
      <path id="MicrosoftYaHei-Bold-443" d="M 725 2766 
L 1925 2766 
Q 1666 3084 1313 3491 
L 1963 3878 
L 313 3878 
L 313 4666 
L 2806 4666 
Q 2706 4947 2600 5216 
L 3588 5366 
L 3766 4666 
L 6200 4666 
L 6200 3878 
L 4469 3878 
L 5269 3491 
L 4628 2766 
L 6094 2766 
L 6094 1978 
L 1550 1978 
L 1550 1828 
Q 1550 447 731 -878 
Q 500 -622 69 -234 
Q 694 803 725 1934 
L 725 2766 
z
M 2881 2959 
L 2569 2766 
L 3609 2766 
Q 3975 3269 4369 3878 
L 2106 3878 
L 2881 2959 
z
" transform="scale(0.015625)"/>
      <path id="MicrosoftYaHei-Bold-b34" d="M 3463 1566 
L 4588 1566 
L 4588 2128 
L 3488 2128 
L 3488 2797 
Q 3647 3247 3841 3966 
L 3444 3966 
L 3444 4691 
L 4028 4691 
L 4188 5347 
L 4925 5241 
Q 4850 4959 4772 4691 
L 6163 4691 
L 6163 3966 
L 4569 3966 
L 4238 2853 
L 4588 2853 
L 4588 3678 
L 5313 3678 
L 5313 2853 
L 6106 2853 
L 6106 2128 
L 5313 2128 
L 5313 1566 
L 6225 1566 
L 6225 841 
L 5313 841 
L 5313 166 
L 4588 166 
L 4588 841 
L 3463 841 
L 3463 1566 
z
M 6306 78 
Q 6156 -403 6088 -697 
L 4363 -700 
Q 3713 -694 3375 -522 
Q 3038 -350 2888 -78 
Q 2638 -434 2388 -841 
L 1966 -103 
Q 1247 -575 1000 -847 
L 575 -228 
Q 744 -28 744 347 
L 744 1372 
L 100 1372 
L 100 2078 
L 744 2078 
L 744 2709 
L 547 2709 
Q 428 2503 300 2316 
Q 194 2853 81 3316 
Q 556 4216 788 5341 
L 1525 5178 
Q 1441 4863 1347 4566 
L 2156 4566 
L 2156 3866 
L 1100 3866 
Q 1009 3634 909 3416 
L 1944 3416 
L 1944 2709 
L 1488 2709 
L 1488 2078 
L 2113 2078 
L 2113 1372 
L 1488 1372 
L 1488 428 
Q 1756 591 2025 772 
Q 2041 400 2072 106 
Q 2275 350 2469 572 
L 2469 2328 
L 2094 2328 
L 2094 3128 
L 3244 3128 
L 3244 559 
Q 3522 53 4416 53 
Q 5066 53 6306 78 
z
M 2894 5297 
Q 3125 4628 3338 3834 
L 2581 3622 
Q 2394 4403 2163 5097 
L 2894 5297 
z
" transform="scale(0.015625)"/>
      <path id="MicrosoftYaHei-Bold-375" d="M 1594 3506 
Q 1831 3506 2000 3354 
Q 2169 3203 2169 2981 
Q 2169 2766 2003 2614 
Q 1838 2463 1594 2463 
Q 1353 2463 1189 2616 
Q 1025 2769 1025 2981 
Q 1025 3200 1192 3353 
Q 1359 3506 1594 3506 
z
M 1594 959 
Q 1831 959 2000 806 
Q 2169 653 2169 434 
Q 2169 222 2000 69 
Q 1831 -84 1594 -84 
Q 1356 -84 1190 69 
Q 1025 222 1025 434 
Q 1025 653 1190 806 
Q 1356 959 1594 959 
z
" transform="scale(0.015625)"/>
      <path id="MicrosoftYaHei-Bold-4ee" d="M 6031 5272 
L 6031 72 
Q 6031 -456 5684 -632 
Q 5338 -809 4119 -784 
Q 4031 -297 3906 59 
Q 4184 44 4513 44 
Q 4719 44 4872 48 
Q 5025 53 5103 154 
Q 5181 256 5181 453 
L 5181 5272 
L 6031 5272 
z
M 75 928 
Q 934 1853 1338 2709 
L 125 2709 
L 125 3516 
L 1400 3516 
L 1400 4203 
L 288 4103 
Q 206 4622 144 4897 
Q 1581 4984 3169 5166 
L 3325 4397 
L 2238 4284 
L 2238 3516 
L 3400 3516 
L 3400 2709 
L 2238 2709 
L 2238 2025 
L 2431 2228 
Q 2806 1928 3563 1272 
L 2963 666 
L 2238 1406 
L 2238 -859 
L 1400 -859 
L 1400 1344 
Q 988 600 413 -78 
Q 294 328 75 928 
z
M 4475 641 
L 3650 641 
L 3650 4678 
L 4475 4678 
L 4475 641 
z
" transform="scale(0.015625)"/>
      <path id="MicrosoftYaHei-Bold-40c2" d="M 3600 5003 
L 6088 5003 
L 6088 -34 
Q 6088 -728 5356 -784 
Q 5031 -809 4150 -809 
Q 4069 -403 3969 28 
Q 4619 -3 4975 -3 
Q 5263 -3 5263 291 
L 5263 4241 
L 3600 4241 
L 3600 5003 
z
M 2700 1078 
L 3500 1078 
L 3500 1816 
L 2838 1816 
L 2838 2466 
L 3500 2466 
L 3500 3191 
L 2750 3191 
L 2750 3872 
L 5038 3872 
L 5038 3191 
L 4275 3191 
L 4275 2466 
L 4938 2466 
L 4938 1816 
L 4275 1816 
L 4275 1078 
L 5075 1078 
L 5075 403 
L 2700 403 
L 2700 1078 
z
M 2513 -834 
L 1688 -834 
L 1688 4078 
L 2513 4078 
L 2513 -834 
z
M 838 1822 
Q 1225 1653 1619 1528 
Q 1356 497 1025 -834 
Q 619 -684 225 -578 
Q 550 447 838 1822 
z
M 600 3609 
Q 1075 3266 1588 2822 
L 1025 2147 
Q 606 2553 88 3016 
L 600 3609 
z
M 775 5241 
Q 1481 4734 1800 4472 
L 1219 3841 
Q 781 4272 256 4697 
L 775 5241 
z
M 2069 4947 
L 2644 5384 
Q 3013 4972 3331 4584 
L 2700 4116 
Q 2388 4547 2069 4947 
z
" transform="scale(0.015625)"/>
      <path id="MicrosoftYaHei-Bold-8b4" d="M 213 4766 
L 2719 4766 
L 2613 5303 
L 3588 5341 
Q 3631 5119 3684 4766 
L 6200 4766 
L 6200 4028 
L 3447 4028 
L 2775 3391 
L 3391 3403 
Q 3672 3675 3969 3991 
L 4606 3622 
Q 3894 2928 2919 2122 
L 3684 2172 
Q 3588 2322 3500 2447 
L 4069 2772 
Q 4506 2203 4888 1603 
L 4263 1253 
L 4063 1581 
Q 2722 1488 1938 1397 
L 1681 2053 
Q 2163 2328 2722 2797 
Q 2322 2766 2013 2728 
L 1719 3309 
Q 2050 3463 2519 4028 
L 213 4028 
L 213 4766 
z
M 5944 3484 
L 5119 2803 
Q 5609 2513 6188 2141 
L 5725 1472 
Q 5125 1972 4488 2416 
L 4800 2844 
L 4500 3216 
Q 5044 3616 5438 3966 
L 5944 3484 
z
M 375 3472 
L 856 3959 
Q 1225 3672 1650 3272 
L 1144 2759 
Q 713 3191 375 3472 
z
M 1569 2941 
L 1950 2372 
L 544 1372 
L 175 2122 
Q 700 2397 1569 2941 
z
M 88 1066 
L 2763 1066 
L 2763 1341 
L 3638 1341 
L 3638 1066 
L 6288 1066 
L 6288 328 
L 3638 328 
L 3638 -872 
L 2763 -872 
L 2763 328 
L 88 328 
L 88 1066 
z
" transform="scale(0.015625)"/>
      <path id="MicrosoftYaHei-Bold-409" d="M 6138 3747 
L 2000 3747 
L 1956 3041 
L 5838 3041 
L 5738 541 
Q 5709 -169 5351 -453 
Q 4994 -738 4381 -741 
L 3031 -741 
Q 2956 -359 2813 166 
Q 3463 134 4081 134 
Q 4731 134 4784 526 
Q 4838 919 4863 2234 
L 969 2234 
L 1144 5272 
L 2094 5272 
L 2050 4566 
L 6138 4566 
L 6138 3747 
z
M 4456 766 
L 181 766 
L 181 1584 
L 4456 1584 
L 4456 766 
z
" transform="scale(0.015625)"/>
      <path id="MicrosoftYaHei-Bold-961" d="M 288 3628 
L 613 3628 
Q 469 3816 113 4197 
Q 794 4697 1100 5334 
L 1963 5334 
Q 1863 5109 1750 4903 
L 3363 4903 
L 3363 4309 
L 2163 4309 
Q 2350 4103 2531 3897 
L 2169 3628 
L 2775 3628 
Q 2719 3791 2663 3959 
L 3369 4078 
Q 3438 3859 3506 3628 
L 4944 3628 
Q 4688 3953 4494 4159 
L 4688 4309 
L 4406 4309 
Q 4200 3984 3944 3703 
Q 3763 3841 3281 4159 
Q 3731 4653 4019 5334 
L 4888 5334 
Q 4813 5109 4719 4903 
L 6163 4903 
L 6163 4309 
L 5225 4309 
Q 5394 4128 5556 3947 
L 5119 3628 
L 6138 3628 
L 6138 2728 
L 5288 2728 
L 5288 2991 
L 1138 2991 
L 1138 2728 
L 288 2728 
L 288 3628 
z
M 4900 278 
L 1725 278 
L 1725 -84 
L 4900 -84 
L 4900 278 
z
M 4700 1703 
L 4700 2041 
L 1725 2041 
L 1725 1703 
L 4700 1703 
z
M 625 3628 
L 1888 3628 
Q 1719 3841 1494 4109 
L 1750 4309 
L 1338 4309 
Q 1025 3928 625 3628 
z
M 5513 2616 
L 5513 1128 
L 1725 1128 
L 1725 853 
L 5713 853 
L 5713 -853 
L 4900 -853 
L 4900 -653 
L 1725 -653 
L 1725 -853 
L 875 -853 
L 875 2616 
L 5513 2616 
z
" transform="scale(0.015625)"/>
      <path id="MicrosoftYaHei-Bold-730" d="M 2150 4597 
L 3656 4597 
L 3494 5141 
L 4381 5309 
Q 4491 4947 4572 4597 
L 6138 4597 
L 6138 3334 
L 5350 3334 
L 5350 3834 
L 2938 3834 
L 2938 3334 
L 2150 3334 
L 2150 4597 
z
M 138 4153 
L 713 4153 
L 713 5266 
L 1469 5266 
L 1469 4153 
L 1894 4153 
L 1894 3353 
L 1469 3353 
L 1469 2413 
L 1938 2528 
Q 1888 2103 1913 1678 
L 1469 1556 
L 1469 -66 
Q 1469 -378 1362 -548 
Q 1256 -719 1061 -753 
Q 866 -788 275 -803 
Q 225 -434 106 16 
Q 269 -3 544 -3 
Q 706 -3 713 259 
L 713 1356 
L 119 1203 
L 69 2103 
Q 378 2163 713 2238 
L 713 3353 
L 138 3353 
L 138 4153 
z
M 3925 3009 
L 2500 1959 
L 1988 2547 
Q 2606 2953 3363 3553 
L 3925 3009 
z
M 4288 3003 
L 4819 3534 
Q 5406 3128 6213 2522 
L 5669 1934 
Q 5413 2141 4288 3003 
z
M 2300 1897 
L 5900 1897 
L 5900 1134 
L 4500 1134 
L 4500 184 
L 6225 184 
L 6225 -578 
L 1925 -578 
L 1925 184 
L 3700 184 
L 3700 1134 
L 2300 1134 
L 2300 1897 
z
" transform="scale(0.015625)"/>
      <path id="MicrosoftYaHei-Bold-69f" d="M 163 1403 
L 325 3622 
L 1375 3622 
L 1375 4353 
L 194 4353 
L 194 5097 
L 2150 5097 
L 2150 2878 
L 1050 2878 
L 994 2147 
L 2081 2147 
Q 2056 622 2017 169 
Q 1978 -284 1847 -478 
Q 1716 -672 1497 -736 
Q 1278 -800 381 -784 
Q 331 -478 200 53 
Q 672 34 866 34 
Q 1113 34 1181 201 
Q 1250 369 1275 1403 
L 163 1403 
z
M 5716 816 
Q 6025 191 6344 -572 
L 5625 -859 
L 5463 -459 
Q 4025 -631 2325 -791 
L 2175 9 
L 3813 128 
L 3813 816 
L 2406 816 
L 2406 2797 
L 3813 2797 
L 3813 3228 
L 2613 3228 
L 2613 5091 
L 5813 5091 
L 5813 3228 
L 4613 3228 
L 4613 2797 
L 6031 2797 
L 6031 816 
L 5716 816 
z
M 5025 4403 
L 3400 4403 
L 3400 3916 
L 5025 3916 
L 5025 4403 
z
M 5256 1503 
L 5256 2109 
L 4613 2109 
L 4613 1503 
L 5256 1503 
z
M 3181 1503 
L 3813 1503 
L 3813 2109 
L 3181 2109 
L 3181 1503 
z
M 5709 816 
L 4613 816 
L 4613 200 
L 5150 253 
L 5013 553 
L 5709 816 
z
" transform="scale(0.015625)"/>
      <path id="MicrosoftYaHei-Bold-685" d="M 5656 1697 
L 5656 1022 
Q 5156 447 4656 97 
Q 5344 -34 6306 -66 
Q 6119 -428 5938 -822 
Q 4556 -653 3719 -353 
Q 2825 -653 1494 -872 
Q 1338 -522 1088 -178 
Q 2100 -128 2888 78 
Q 2369 453 1938 1022 
L 1538 1022 
L 1538 1697 
L 5656 1697 
z
M 1325 2478 
Q 1338 134 700 -884 
Q 356 -553 19 -297 
Q 550 697 525 2591 
L 525 4772 
L 3013 4772 
Q 2944 4953 2831 5209 
L 3869 5359 
Q 3981 5072 4094 4772 
L 6256 4772 
L 6256 4072 
L 1325 4072 
L 1325 2478 
z
M 1463 3684 
L 2144 3684 
L 2144 3947 
L 2944 3947 
L 2944 3684 
L 4494 3684 
L 4494 3947 
L 5294 3947 
L 5294 3684 
L 6144 3684 
L 6144 3009 
L 5294 3009 
L 5294 1991 
L 2144 1991 
L 2144 3009 
L 1463 3009 
L 1463 3684 
z
M 3756 378 
Q 4325 641 4725 1022 
L 2825 1022 
Q 3225 622 3756 378 
z
M 4494 2628 
L 4494 3009 
L 2944 3009 
L 2944 2628 
L 4494 2628 
z
" transform="scale(0.015625)"/>
     </defs>
     <use xlink:href="#MicrosoftYaHei-Bold-5a2"/>
     <use xlink:href="#MicrosoftYaHei-Bold-3" transform="translate(100 0)"/>
     <use xlink:href="#MicrosoftYaHei-Bold-17" transform="translate(129.78125 0)"/>
     <use xlink:href="#MicrosoftYaHei-Bold-1f" transform="translate(191.453125 0)"/>
     <use xlink:href="#MicrosoftYaHei-Bold-3" transform="translate(253.125 0)"/>
     <use xlink:href="#MicrosoftYaHei-Bold-145" transform="translate(282.90625 0)"/>
     <use xlink:href="#MicrosoftYaHei-Bold-3" transform="translate(342.1875 0)"/>
     <use xlink:href="#MicrosoftYaHei-Bold-656" transform="translate(371.96875 0)"/>
     <use xlink:href="#MicrosoftYaHei-Bold-40e" transform="translate(471.96875 0)"/>
     <use xlink:href="#MicrosoftYaHei-Bold-443" transform="translate(571.96875 0)"/>
     <use xlink:href="#MicrosoftYaHei-Bold-40e" transform="translate(671.96875 0)"/>
     <use xlink:href="#MicrosoftYaHei-Bold-b34" transform="translate(771.96875 0)"/>
     <use xlink:href="#MicrosoftYaHei-Bold-375" transform="translate(871.96875 0)"/>
     <use xlink:href="#MicrosoftYaHei-Bold-4ee" transform="translate(971.96875 0)"/>
     <use xlink:href="#MicrosoftYaHei-Bold-40c2" transform="translate(1071.96875 0)"/>
     <use xlink:href="#MicrosoftYaHei-Bold-8b4" transform="translate(1171.96875 0)"/>
     <use xlink:href="#MicrosoftYaHei-Bold-409" transform="translate(1271.96875 0)"/>
     <use xlink:href="#MicrosoftYaHei-Bold-961" transform="translate(1371.96875 0)"/>
     <use xlink:href="#MicrosoftYaHei-Bold-730" transform="translate(1471.96875 0)"/>
     <use xlink:href="#MicrosoftYaHei-Bold-69f" transform="translate(1571.96875 0)"/>
     <use xlink:href="#MicrosoftYaHei-Bold-685" transform="translate(1671.96875 0)"/>
    </g>
   </g>
   <g id="legend_1">
    <g id="patch_11">
     <path d="M 407.608984 60.874492 
L 515.413516 60.874492 
Q 517.213516 60.874492 517.213516 59.074492 
L 517.213516 31.2775 
Q 517.213516 29.4775 515.413516 29.4775 
L 407.608984 29.4775 
Q 405.808984 29.4775 405.808984 31.2775 
L 405.808984 59.074492 
Q 405.808984 60.874492 407.608984 60.874492 
z
" style="fill: #ffffff; opacity: 0.9; stroke: #cccccc; stroke-linejoin: miter"/>
    </g>
    <g id="patch_12">
     <path d="M 409.408984 40.631875 
L 427.408984 40.631875 
L 427.408984 34.331875 
L 409.408984 34.331875 
z
" style="fill: #58d68d; stroke: #1e8449; stroke-width: 1.5; stroke-linejoin: miter"/>
    </g>
    <g id="text_19">
     <!-- 利润率（%·定性） -->
     <g transform="translate(434.608984 40.631875) scale(0.09 -0.09)">
      <defs>
       <path id="MicrosoftYaHei-78" d="M 372 2113 
Q 372 2278 490 2395 
Q 609 2513 775 2513 
Q 941 2513 1061 2397 
Q 1181 2281 1181 2113 
Q 1181 1950 1064 1831 
Q 947 1713 772 1713 
Q 600 1713 486 1831 
Q 372 1950 372 2113 
z
" transform="scale(0.015625)"/>
      </defs>
      <use xlink:href="#MicrosoftYaHei-4ef"/>
      <use xlink:href="#MicrosoftYaHei-40d4" transform="translate(100 0)"/>
      <use xlink:href="#MicrosoftYaHei-8e4" transform="translate(200 0)"/>
      <use xlink:href="#MicrosoftYaHei-367" transform="translate(300 0)"/>
      <use xlink:href="#MicrosoftYaHei-b" transform="translate(400 0)"/>
      <use xlink:href="#MicrosoftYaHei-78" transform="translate(488.96875 0)"/>
      <use xlink:href="#MicrosoftYaHei-614" transform="translate(513.046875 0)"/>
      <use xlink:href="#MicrosoftYaHei-6c5" transform="translate(613.046875 0)"/>
      <use xlink:href="#MicrosoftYaHei-368" transform="translate(713.046875 0)"/>
     </g>
    </g>
    <g id="patch_13">
     <path d="M 409.408984 54.99373 
L 427.408984 54.99373 
L 427.408984 48.69373 
L 409.408984 48.69373 
z
" style="fill: #ba4a00; opacity: 0.4; stroke: #ba4a00; stroke-width: 1.5; stroke-linejoin: miter"/>
    </g>
    <g id="text_20">
     <!-- 管控强度（0-100） -->
     <g transform="translate(434.608984 54.99373) scale(0.09 -0.09)">
      <defs>
       <path id="MicrosoftYaHei-686" d="M 1550 1216 
L 1550 1628 
L 5469 1628 
L 5469 1222 
Q 4903 613 4147 163 
Q 5050 -200 6263 -309 
L 6019 -797 
Q 4625 -603 3644 -109 
Q 2600 -619 1250 -866 
Q 1150 -666 994 -416 
Q 2231 -222 3166 166 
Q 2497 600 2066 1216 
L 1550 1216 
z
M 1363 3541 
L 2294 3541 
L 2294 4066 
L 2769 4066 
L 2769 3541 
L 4538 3541 
L 4538 4072 
L 5013 4072 
L 5013 3541 
L 6150 3541 
L 6150 3128 
L 5013 3128 
L 5013 1928 
L 4538 1928 
L 4538 2147 
L 2769 2147 
L 2769 1922 
L 2294 1922 
L 2294 3128 
L 1363 3128 
L 1363 3541 
z
M 3025 5172 
L 3481 5391 
Q 3694 5056 3909 4634 
L 6213 4634 
L 6213 4197 
L 1225 4197 
L 1225 2316 
Q 1225 178 394 -872 
Q 238 -666 38 -447 
Q 725 397 738 2347 
L 738 4634 
L 3331 4634 
Q 3188 4909 3025 5172 
z
M 2769 2547 
L 4538 2547 
L 4538 3128 
L 2769 3128 
L 2769 2547 
z
M 4819 1216 
L 2588 1216 
Q 3031 728 3656 391 
Q 4334 741 4819 1216 
z
" transform="scale(0.015625)"/>
       <path id="MicrosoftYaHei-13" d="M 2328 1681 
L 488 1681 
L 488 2153 
L 2328 2153 
L 2328 1681 
z
" transform="scale(0.015625)"/>
      </defs>
      <use xlink:href="#MicrosoftYaHei-992"/>
      <use xlink:href="#MicrosoftYaHei-74f" transform="translate(100 0)"/>
      <use xlink:href="#MicrosoftYaHei-6a0" transform="translate(200 0)"/>
      <use xlink:href="#MicrosoftYaHei-686" transform="translate(300 0)"/>
      <use xlink:href="#MicrosoftYaHei-367" transform="translate(400 0)"/>
      <use xlink:href="#MicrosoftYaHei-16" transform="translate(500 0)"/>
      <use xlink:href="#MicrosoftYaHei-13" transform="translate(558.640625 0)"/>
      <use xlink:href="#MicrosoftYaHei-17" transform="translate(601.90625 0)"/>
      <use xlink:href="#MicrosoftYaHei-16" transform="translate(660.546875 0)"/>
      <use xlink:href="#MicrosoftYaHei-16" transform="translate(719.1875 0)"/>
      <use xlink:href="#MicrosoftYaHei-368" transform="translate(777.828125 0)"/>
     </g>
    </g>
   </g>
  </g>
  <g id="axes_2">
   <g id="patch_14">
    <path d="M 152.251494 423.005625 
L 224.412104 423.005625 
L 224.412104 97.34625 
L 152.251494 97.34625 
z
" clip-path="url(#peacc199554)" style="fill: #ba4a00; opacity: 0.4; stroke: #ba4a00; stroke-width: 1.5; stroke-linejoin: miter"/>
   </g>
   <g id="patch_15">
    <path d="M 358.424665 423.005625 
L 430.585274 423.005625 
L 430.585274 79.254062 
L 358.424665 79.254062 
z
" clip-path="url(#peacc199554)" style="fill: #ba4a00; opacity: 0.4; stroke: #ba4a00; stroke-width: 1.5; stroke-linejoin: miter"/>
   </g>
   <g id="patch_16">
    <path d="M 564.597835 423.005625 
L 636.758445 423.005625 
L 636.758445 205.899375 
L 564.597835 205.899375 
z
" clip-path="url(#peacc199554)" style="fill: #ba4a00; opacity: 0.4; stroke: #ba4a00; stroke-width: 1.5; stroke-linejoin: miter"/>
   </g>
   <g id="patch_17">
    <path d="M 770.771006 423.005625 
L 842.931616 423.005625 
L 842.931616 314.4525 
L 770.771006 314.4525 
z
" clip-path="url(#peacc199554)" style="fill: #ba4a00; opacity: 0.4; stroke: #ba4a00; stroke-width: 1.5; stroke-linejoin: miter"/>
   </g>
   <g id="matplotlib.axis_3">
    <g id="ytick_8">
     <g id="line2d_19">
      <defs>
       <path id="m9d06db1919" d="M 0 0 
L 3.5 0 
" style="stroke: #000000; stroke-width: 0.8"/>
      </defs>
      <g>
       <use xlink:href="#m9d06db1919" x="881.073652" y="423.005625" style="stroke: #000000; stroke-width: 0.8"/>
      </g>
     </g>
     <g id="text_21">
      <!-- 0 -->
      <g transform="translate(888.073652 427.065684) scale(0.1 -0.1)">
       <use xlink:href="#MicrosoftYaHei-16"/>
      </g>
     </g>
    </g>
    <g id="ytick_9">
     <g id="line2d_20">
      <g>
       <use xlink:href="#m9d06db1919" x="881.073652" y="350.636875" style="stroke: #000000; stroke-width: 0.8"/>
      </g>
     </g>
     <g id="text_22">
      <!-- 20 -->
      <g transform="translate(888.073652 354.696934) scale(0.1 -0.1)">
       <use xlink:href="#MicrosoftYaHei-18"/>
       <use xlink:href="#MicrosoftYaHei-16" transform="translate(58.640625 0)"/>
      </g>
     </g>
    </g>
    <g id="ytick_10">
     <g id="line2d_21">
      <g>
       <use xlink:href="#m9d06db1919" x="881.073652" y="278.268125" style="stroke: #000000; stroke-width: 0.8"/>
      </g>
     </g>
     <g id="text_23">
      <!-- 40 -->
      <g transform="translate(888.073652 282.328184) scale(0.1 -0.1)">
       <use xlink:href="#MicrosoftYaHei-1a"/>
       <use xlink:href="#MicrosoftYaHei-16" transform="translate(58.640625 0)"/>
      </g>
     </g>
    </g>
    <g id="ytick_11">
     <g id="line2d_22">
      <g>
       <use xlink:href="#m9d06db1919" x="881.073652" y="205.899375" style="stroke: #000000; stroke-width: 0.8"/>
      </g>
     </g>
     <g id="text_24">
      <!-- 60 -->
      <g transform="translate(888.073652 209.959434) scale(0.1 -0.1)">
       <use xlink:href="#MicrosoftYaHei-1c"/>
       <use xlink:href="#MicrosoftYaHei-16" transform="translate(58.640625 0)"/>
      </g>
     </g>
    </g>
    <g id="ytick_12">
     <g id="line2d_23">
      <g>
       <use xlink:href="#m9d06db1919" x="881.073652" y="133.530625" style="stroke: #000000; stroke-width: 0.8"/>
      </g>
     </g>
     <g id="text_25">
      <!-- 80 -->
      <g transform="translate(888.073652 137.590684) scale(0.1 -0.1)">
       <defs>
        <path id="MicrosoftYaHei-1e" d="M 306 1350 
Q 306 1769 556 2122 
Q 806 2475 1200 2625 
Q 884 2803 700 3081 
Q 516 3359 516 3684 
Q 516 4028 692 4312 
Q 869 4597 1183 4759 
Q 1497 4922 1875 4922 
Q 2256 4922 2572 4761 
Q 2888 4600 3063 4315 
Q 3238 4031 3238 3684 
Q 3238 3366 3058 3086 
Q 2878 2806 2559 2625 
Q 2953 2472 3200 2119 
Q 3447 1766 3447 1350 
Q 3447 938 3250 611 
Q 3053 284 2690 103 
Q 2328 -78 1875 -78 
Q 1425 -78 1065 103 
Q 706 284 506 612 
Q 306 941 306 1350 
z
M 906 1378 
Q 906 947 1172 687 
Q 1438 428 1878 428 
Q 2309 428 2582 692 
Q 2856 956 2856 1378 
Q 2856 1778 2579 2051 
Q 2303 2325 1878 2325 
Q 1456 2325 1181 2058 
Q 906 1791 906 1378 
z
M 1081 3634 
Q 1081 3309 1312 3076 
Q 1544 2844 1878 2844 
Q 2206 2844 2445 3078 
Q 2684 3313 2684 3634 
Q 2684 3963 2454 4191 
Q 2225 4419 1878 4419 
Q 1534 4419 1307 4195 
Q 1081 3972 1081 3634 
z
" transform="scale(0.015625)"/>
       </defs>
       <use xlink:href="#MicrosoftYaHei-1e"/>
       <use xlink:href="#MicrosoftYaHei-16" transform="translate(58.640625 0)"/>
      </g>
     </g>
    </g>
    <g id="ytick_13">
     <g id="line2d_24">
      <g>
       <use xlink:href="#m9d06db1919" x="881.073652" y="61.161875" style="stroke: #000000; stroke-width: 0.8"/>
      </g>
     </g>
     <g id="text_26">
      <!-- 100 -->
      <g transform="translate(888.073652 65.221934) scale(0.1 -0.1)">
       <use xlink:href="#MicrosoftYaHei-17"/>
       <use xlink:href="#MicrosoftYaHei-16" transform="translate(58.640625 0)"/>
       <use xlink:href="#MicrosoftYaHei-16" transform="translate(117.28125 0)"/>
      </g>
     </g>
    </g>
    <g id="text_27">
     <!-- 管控强度 -->
     <g style="fill: #ba4a00" transform="translate(918.931621 245.991562) rotate(-90) scale(0.11 -0.11)">
      <use xlink:href="#MicrosoftYaHei-992"/>
      <use xlink:href="#MicrosoftYaHei-74f" transform="translate(100 0)"/>
      <use xlink:href="#MicrosoftYaHei-6a0" transform="translate(200 0)"/>
      <use xlink:href="#MicrosoftYaHei-686" transform="translate(300 0)"/>
     </g>
    </g>
   </g>
   <g id="patch_18">
    <path d="M 41.948848 423.005625 
L 41.948848 24.9775 
" style="fill: none; stroke: #000000; stroke-width: 0.8; stroke-linejoin: miter; stroke-linecap: square"/>
   </g>
   <g id="patch_19">
    <path d="M 881.073652 423.005625 
L 881.073652 24.9775 
" style="fill: none; stroke: #000000; stroke-width: 0.8; stroke-linejoin: miter; stroke-linecap: square"/>
   </g>
   <g id="patch_20">
    <path d="M 41.948848 423.005625 
L 881.073652 423.005625 
" style="fill: none; stroke: #000000; stroke-width: 0.8; stroke-linejoin: miter; stroke-linecap: square"/>
   </g>
   <g id="patch_21">
    <path d="M 41.948848 24.9775 
L 881.073652 24.9775 
" style="fill: none; stroke: #000000; stroke-width: 0.8; stroke-linejoin: miter; stroke-linecap: square"/>
   </g>
   <g id="text_28">
    <!-- 90 -->
    <g style="fill: #ba4a00" transform="translate(182.78133 87.828613) scale(0.09 -0.09)">
     <defs>
      <path id="MicrosoftYaHei-Bold-16" d="M 244 2341 
Q 244 3597 706 4259 
Q 1169 4922 2044 4922 
Q 3713 4922 3713 2453 
Q 3713 1238 3259 577 
Q 2806 -84 1950 -84 
Q 244 -84 244 2341 
z
M 1266 2366 
Q 1266 691 1981 691 
Q 2684 691 2684 2416 
Q 2684 4147 2000 4147 
Q 1266 4147 1266 2366 
z
" transform="scale(0.015625)"/>
     </defs>
     <use xlink:href="#MicrosoftYaHei-Bold-1f"/>
     <use xlink:href="#MicrosoftYaHei-Bold-16" transform="translate(61.671875 0)"/>
    </g>
   </g>
   <g id="text_29">
    <!-- 95 -->
    <g style="fill: #ba4a00" transform="translate(388.954501 69.736426) scale(0.09 -0.09)">
     <use xlink:href="#MicrosoftYaHei-Bold-1f"/>
     <use xlink:href="#MicrosoftYaHei-Bold-1b" transform="translate(61.671875 0)"/>
    </g>
   </g>
   <g id="text_30">
    <!-- 60 -->
    <g style="fill: #ba4a00" transform="translate(595.127671 196.381738) scale(0.09 -0.09)">
     <defs>
      <path id="MicrosoftYaHei-Bold-1c" d="M 3378 3938 
Q 3009 4147 2575 4147 
Q 2016 4147 1680 3708 
Q 1344 3269 1344 2572 
L 1363 2572 
Q 1709 3103 2391 3103 
Q 3000 3103 3358 2686 
Q 3716 2269 3716 1600 
Q 3716 869 3250 392 
Q 2784 -84 2059 -84 
Q 1228 -84 786 516 
Q 344 1116 344 2159 
Q 344 3388 917 4155 
Q 1491 4922 2513 4922 
Q 3063 4922 3378 4791 
L 3378 3938 
z
M 1378 1591 
Q 1378 1216 1565 953 
Q 1753 691 2059 691 
Q 2369 691 2547 931 
Q 2725 1172 2725 1534 
Q 2725 2350 2053 2350 
Q 1750 2350 1564 2134 
Q 1378 1919 1378 1591 
z
" transform="scale(0.015625)"/>
     </defs>
     <use xlink:href="#MicrosoftYaHei-Bold-1c"/>
     <use xlink:href="#MicrosoftYaHei-Bold-16" transform="translate(61.671875 0)"/>
    </g>
   </g>
   <g id="text_31">
    <!-- 30 -->
    <g style="fill: #ba4a00" transform="translate(801.300842 304.934863) scale(0.09 -0.09)">
     <use xlink:href="#MicrosoftYaHei-Bold-19"/>
     <use xlink:href="#MicrosoftYaHei-Bold-16" transform="translate(61.671875 0)"/>
    </g>
   </g>
  </g>
 </g>
 <defs>
  <clipPath id="peacc199554">
   <rect x="41.948848" y="24.9775" width="839.124805" height="398.028125"/>
  </clipPath>
 </defs>
</svg>
